  0
SECTION
  2
HEADER
  9
$ANGBASE
  50
0.0
  9
$ANGDIR
  70
1
  9
$MEASUREMENT
  70
0
  9
$INSUNITS
  70
1
  0
ENDSEC
  0
SECTION
  2
TABLES
  0
TABLE
  2
LTYPE
  70
4
  0
LTYPE
  5
40F
  2
CONTINUOUS
  70
0
  3
Solid line
  72
65
  73
0
  40
0.0
  0
LTYPE
  5
410
  2
DASHDOT
 70
0
  3
Dash Dot ____ _ ____ _
 72
65
 73
4
 40
2.0
 49
1.25
 49
-0.25
 49
0.25
 49
-0.25
  0
LTYPE
  5
411
  2
DASHED
 70
0
  3
Dashed __ __ __ __ __
 72
65
 73
2
 40
0.75
 49
0.5
 49
-0.25
  0
LTYPE
  5
43B
  2
DOTTED
 70
0
  3
Dotted .  .  .  .
 72
65
 73
2
 40
0.2
 49
0.0
 49
-0.2
  0
ENDTAB
  0
TABLE
  2
STYLE
  70
4
  0
STYLE
  2
KICAD
  70
0
  40
0
  41
1
  42
1
  50
0
  71
0
  3
isocp.shx
  0
STYLE
  2
KICADB
  70
0
  40
0
  41
1
  42
1
  50
0
  71
0
  3
isocp.shx
  0
STYLE
  2
KICADI
  70
0
  40
0
  41
1
  42
1
  50
15
  71
0
  3
isocp.shx
  0
STYLE
  2
KICADBI
  70
0
  40
0
  41
1
  42
1
  50
15
  71
0
  3
isocp.shx
  0
ENDTAB
  0
TABLE
  2
LAYER
  70
2
  0
LAYER
  2
F.Silkscreen
  70
0
  62
41
  420
15920545
  6
CONTINUOUS
  0
LAYER
  2
Edge.Cuts
  70
0
  62
254
  420
13685453
  6
CONTINUOUS
  0
ENDTAB
  0
ENDSEC
  0
SECTION
  2
ENTITIES
0
LINE
8
Edge.Cuts
6
CONTINUOUS
10
4.0646501968503932
20
-5.5880087007874018
11
4.0735753937007875
21
-5.5909087007874012
0
LINE
8
Edge.Cuts
6
CONTINUOUS
10
4.0735753937007875
20
-5.5909087007874012
11
4.0819370472440948
21
-5.5951691732283466
0
LINE
8
Edge.Cuts
6
CONTINUOUS
10
4.0819370472440948
20
-5.5951691732283466
11
4.0895292913385823
21
-5.600685236220472
0
LINE
8
Edge.Cuts
6
CONTINUOUS
10
4.0895292913385823
20
-5.600685236220472
11
4.0961651574803151
21
-5.6073211023622047
0
LINE
8
Edge.Cuts
6
CONTINUOUS
10
4.0961651574803151
20
-5.6073211023622047
11
4.1016812204724404
21
-5.6149133464566932
0
LINE
8
Edge.Cuts
6
CONTINUOUS
10
4.1016812204724404
20
-5.6149133464566932
11
4.1059416929133858
21
-5.6232749999999996
0
LINE
8
Edge.Cuts
6
CONTINUOUS
10
4.1059416929133858
20
-5.6232749999999996
11
4.1088416929133853
21
-5.6322001968503939
0
LINE
8
Edge.Cuts
6
CONTINUOUS
10
4.1088416929133853
20
-5.6322001968503939
11
4.1103097244094489
21
-5.6414691732283462
0
LINE
8
Edge.Cuts
6
CONTINUOUS
10
4.1103097244094489
20
-5.6414691732283462
11
4.1103097244094489
21
-5.6508536614173224
0
LINE
8
Edge.Cuts
6
CONTINUOUS
10
4.1103097244094489
20
-5.6508536614173224
11
4.1088416929133853
21
-5.6601226377952756
0
LINE
8
Edge.Cuts
6
CONTINUOUS
10
4.1088416929133853
20
-5.6601226377952756
11
4.1059416929133858
21
-5.669047834645669
0
LINE
8
Edge.Cuts
6
CONTINUOUS
10
4.1059416929133858
20
-5.669047834645669
11
4.1016812204724404
21
-5.6774094881889763
0
LINE
8
Edge.Cuts
6
CONTINUOUS
10
4.1016812204724404
20
-5.6774094881889763
11
4.0961651574803151
21
-5.6850017322834647
0
LINE
8
Edge.Cuts
6
CONTINUOUS
10
4.0961651574803151
20
-5.6850017322834647
11
4.0895292913385823
21
-5.6916375984251966
0
LINE
8
Edge.Cuts
6
CONTINUOUS
10
4.0895292913385823
20
-5.6916375984251966
11
4.0819370472440948
21
-5.6971536614173228
0
LINE
8
Edge.Cuts
6
CONTINUOUS
10
4.0819370472440948
20
-5.6971536614173228
11
4.0735753937007875
21
-5.7014141338582673
0
LINE
8
Edge.Cuts
6
CONTINUOUS
10
4.0735753937007875
20
-5.7014141338582673
11
4.0646501968503932
21
-5.7043141338582677
0
LINE
8
Edge.Cuts
6
CONTINUOUS
10
4.0646501968503932
20
-5.7043141338582677
11
4.0553812204724409
21
-5.7057821653543304
0
LINE
8
Edge.Cuts
6
CONTINUOUS
10
4.0553812204724409
20
-5.7057821653543304
11
4.0459967322834647
21
-5.7057821653543304
0
LINE
8
Edge.Cuts
6
CONTINUOUS
10
4.0459967322834647
20
-5.7057821653543304
11
4.0367277559055115
21
-5.7043141338582677
0
LINE
8
Edge.Cuts
6
CONTINUOUS
10
4.0367277559055115
20
-5.7043141338582677
11
4.0278025590551181
21
-5.7014141338582673
0
LINE
8
Edge.Cuts
6
CONTINUOUS
10
4.0278025590551181
20
-5.7014141338582673
11
4.0194409055118108
21
-5.6971536614173228
0
LINE
8
Edge.Cuts
6
CONTINUOUS
10
4.0194409055118108
20
-5.6971536614173228
11
4.0118486614173223
21
-5.6916375984251966
0
LINE
8
Edge.Cuts
6
CONTINUOUS
10
4.0118486614173223
20
-5.6916375984251966
11
4.0052127952755905
21
-5.6850017322834647
0
LINE
8
Edge.Cuts
6
CONTINUOUS
10
4.0052127952755905
20
-5.6850017322834647
11
3.9996967322834647
21
-5.6774094881889763
0
LINE
8
Edge.Cuts
6
CONTINUOUS
10
3.9996967322834647
20
-5.6774094881889763
11
3.9954362598425197
21
-5.669047834645669
0
LINE
8
Edge.Cuts
6
CONTINUOUS
10
3.9954362598425197
20
-5.669047834645669
11
3.9925362598425198
21
-5.6601226377952756
0
LINE
8
Edge.Cuts
6
CONTINUOUS
10
3.9925362598425198
20
-5.6601226377952756
11
3.9910682283464567
21
-5.6508536614173224
0
LINE
8
Edge.Cuts
6
CONTINUOUS
10
3.9910682283464567
20
-5.6508536614173224
11
3.9910682283464567
21
-5.6415727165354328
0
LINE
8
Edge.Cuts
6
CONTINUOUS
10
3.9910682283464567
20
-5.6415727165354328
11
3.9910682283464567
21
-5.6414691732283462
0
LINE
8
Edge.Cuts
6
CONTINUOUS
10
3.9910682283464567
20
-5.6414691732283462
11
3.9925362598425198
21
-5.6322001968503939
0
LINE
8
Edge.Cuts
6
CONTINUOUS
10
3.9925362598425198
20
-5.6322001968503939
11
3.9954362598425197
21
-5.6232749999999996
0
LINE
8
Edge.Cuts
6
CONTINUOUS
10
3.9954362598425197
20
-5.6232749999999996
11
3.9996967322834647
21
-5.6149133464566932
0
LINE
8
Edge.Cuts
6
CONTINUOUS
10
3.9996967322834647
20
-5.6149133464566932
11
4.0052127952755905
21
-5.6073211023622047
0
LINE
8
Edge.Cuts
6
CONTINUOUS
10
4.0052127952755905
20
-5.6073211023622047
11
4.0118486614173223
21
-5.600685236220472
0
LINE
8
Edge.Cuts
6
CONTINUOUS
10
4.0118486614173223
20
-5.600685236220472
11
4.0194409055118108
21
-5.5951691732283466
0
LINE
8
Edge.Cuts
6
CONTINUOUS
10
4.0194409055118108
20
-5.5951691732283466
11
4.0278025590551181
21
-5.5909087007874012
0
LINE
8
Edge.Cuts
6
CONTINUOUS
10
4.0278025590551181
20
-5.5909087007874012
11
4.0367277559055115
21
-5.5880087007874018
0
LINE
8
Edge.Cuts
6
CONTINUOUS
10
4.0367277559055115
20
-5.5880087007874018
11
4.0459967322834647
21
-5.5865406692913382
0
LINE
8
Edge.Cuts
6
CONTINUOUS
10
4.0459967322834647
20
-5.5865406692913382
11
4.0553812204724409
21
-5.5865406692913382
0
LINE
8
Edge.Cuts
6
CONTINUOUS
10
4.0553812204724409
20
-5.5865406692913382
11
4.0646501968503932
21
-5.5880087007874018
0
LINE
8
Edge.Cuts
6
CONTINUOUS
10
3.9923838582677162
20
-5.6507501181102358
11
3.9938195275590549
21
-5.6598145669291338
0
LINE
8
Edge.Cuts
6
CONTINUOUS
10
3.9938195275590549
20
-5.6598145669291338
11
3.9966555118110234
21
-5.6685427952755907
0
LINE
8
Edge.Cuts
6
CONTINUOUS
10
3.9966555118110234
20
-5.6685427952755907
11
4.0008219685039368
21
-5.6767199606299208
0
LINE
8
Edge.Cuts
6
CONTINUOUS
10
4.0008219685039368
20
-5.6767199606299208
11
4.0062163385826768
21
-5.6841446456692912
0
LINE
8
Edge.Cuts
6
CONTINUOUS
10
4.0062163385826768
20
-5.6841446456692912
11
4.0127057480314958
21
-5.6906340551181103
0
LINE
8
Edge.Cuts
6
CONTINUOUS
10
4.0127057480314958
20
-5.6906340551181103
11
4.0201304330708663
21
-5.6960284251968503
0
LINE
8
Edge.Cuts
6
CONTINUOUS
10
4.0201304330708663
20
-5.6960284251968503
11
4.0283075984251964
21
-5.7001948818897636
0
LINE
8
Edge.Cuts
6
CONTINUOUS
10
4.0283075984251964
20
-5.7001948818897636
11
4.0370358267716533
21
-5.7030308661417317
0
LINE
8
Edge.Cuts
6
CONTINUOUS
10
4.0370358267716533
20
-5.7030308661417317
11
4.0461002755905513
21
-5.7044665354330704
0
LINE
8
Edge.Cuts
6
CONTINUOUS
10
4.0461002755905513
20
-5.7044665354330704
11
4.0552776771653543
21
-5.7044665354330704
0
LINE
8
Edge.Cuts
6
CONTINUOUS
10
4.0552776771653543
20
-5.7044665354330704
11
4.0643421259842523
21
-5.7030308661417317
0
LINE
8
Edge.Cuts
6
CONTINUOUS
10
4.0643421259842523
20
-5.7030308661417317
11
4.0730703543307083
21
-5.7001948818897636
0
LINE
8
Edge.Cuts
6
CONTINUOUS
10
4.0730703543307083
20
-5.7001948818897636
11
4.0812475196850393
21
-5.6960284251968503
0
LINE
8
Edge.Cuts
6
CONTINUOUS
10
4.0812475196850393
20
-5.6960284251968503
11
4.0886722047244097
21
-5.6906340551181103
0
LINE
8
Edge.Cuts
6
CONTINUOUS
10
4.0886722047244097
20
-5.6906340551181103
11
4.0951616141732279
21
-5.6841446456692912
0
LINE
8
Edge.Cuts
6
CONTINUOUS
10
4.0951616141732279
20
-5.6841446456692912
11
4.1005559842519688
21
-5.6767199606299208
0
LINE
8
Edge.Cuts
6
CONTINUOUS
10
4.1005559842519688
20
-5.6767199606299208
11
4.1047224409448821
21
-5.6685427952755907
0
LINE
8
Edge.Cuts
6
CONTINUOUS
10
4.1047224409448821
20
-5.6685427952755907
11
4.1075584251968502
21
-5.6598145669291338
0
LINE
8
Edge.Cuts
6
CONTINUOUS
10
4.1075584251968502
20
-5.6598145669291338
11
4.1089940944881889
21
-5.6507501181102358
0
LINE
8
Edge.Cuts
6
CONTINUOUS
10
4.1089940944881889
20
-5.6507501181102358
11
4.1089940944881889
21
-5.6415727165354328
0
LINE
8
Edge.Cuts
6
CONTINUOUS
10
4.1089940944881889
20
-5.6415727165354328
11
4.1075584251968502
21
-5.6325082677165357
0
LINE
8
Edge.Cuts
6
CONTINUOUS
10
4.1075584251968502
20
-5.6325082677165357
11
4.1047224409448821
21
-5.6237800393700788
0
LINE
8
Edge.Cuts
6
CONTINUOUS
10
4.1047224409448821
20
-5.6237800393700788
11
4.1005559842519688
21
-5.6156028740157478
0
LINE
8
Edge.Cuts
6
CONTINUOUS
10
4.1005559842519688
20
-5.6156028740157478
11
4.0951616141732279
21
-5.6081781889763782
0
LINE
8
Edge.Cuts
6
CONTINUOUS
10
4.0951616141732279
20
-5.6081781889763782
11
4.0886722047244097
21
-5.6016887795275592
0
LINE
8
Edge.Cuts
6
CONTINUOUS
10
4.0886722047244097
20
-5.6016887795275592
11
4.0812475196850393
21
-5.5962944094488192
0
LINE
8
Edge.Cuts
6
CONTINUOUS
10
4.0812475196850393
20
-5.5962944094488192
11
4.0730703543307083
21
-5.5921279527559058
0
LINE
8
Edge.Cuts
6
CONTINUOUS
10
4.0730703543307083
20
-5.5921279527559058
11
4.0643421259842523
21
-5.5892919685039368
0
LINE
8
Edge.Cuts
6
CONTINUOUS
10
4.0643421259842523
20
-5.5892919685039368
11
4.0552776771653543
21
-5.5878562992125982
0
LINE
8
Edge.Cuts
6
CONTINUOUS
10
4.0552776771653543
20
-5.5878562992125982
11
4.0461002755905513
21
-5.5878562992125982
0
LINE
8
Edge.Cuts
6
CONTINUOUS
10
4.0461002755905513
20
-5.5878562992125982
11
4.0370358267716533
21
-5.5892919685039368
0
LINE
8
Edge.Cuts
6
CONTINUOUS
10
4.0370358267716533
20
-5.5892919685039368
11
4.0283075984251964
21
-5.5921279527559058
0
LINE
8
Edge.Cuts
6
CONTINUOUS
10
4.0283075984251964
20
-5.5921279527559058
11
4.0201304330708663
21
-5.5962944094488192
0
LINE
8
Edge.Cuts
6
CONTINUOUS
10
4.0201304330708663
20
-5.5962944094488192
11
4.0127057480314958
21
-5.6016887795275592
0
LINE
8
Edge.Cuts
6
CONTINUOUS
10
4.0127057480314958
20
-5.6016887795275592
11
4.0062163385826768
21
-5.6081781889763782
0
LINE
8
Edge.Cuts
6
CONTINUOUS
10
4.0062163385826768
20
-5.6081781889763782
11
4.0008219685039368
21
-5.6156028740157478
0
LINE
8
Edge.Cuts
6
CONTINUOUS
10
4.0008219685039368
20
-5.6156028740157478
11
3.9966555118110234
21
-5.6237800393700788
0
LINE
8
Edge.Cuts
6
CONTINUOUS
10
3.9966555118110234
20
-5.6237800393700788
11
3.9938195275590549
21
-5.6325082677165357
0
LINE
8
Edge.Cuts
6
CONTINUOUS
10
3.9938195275590549
20
-5.6325082677165357
11
3.9923838582677162
21
-5.6415727165354328
0
LINE
8
Edge.Cuts
6
CONTINUOUS
10
3.9923838582677162
20
-5.6415727165354328
11
3.9923838582677162
21
-5.6507501181102358
0
LINE
8
Edge.Cuts
6
CONTINUOUS
10
5.0646501968503932
20
-5.5880087007874018
11
5.0735753937007875
21
-5.5909087007874012
0
LINE
8
Edge.Cuts
6
CONTINUOUS
10
5.0735753937007875
20
-5.5909087007874012
11
5.0819370472440948
21
-5.5951691732283466
0
LINE
8
Edge.Cuts
6
CONTINUOUS
10
5.0819370472440948
20
-5.5951691732283466
11
5.0895292913385823
21
-5.600685236220472
0
LINE
8
Edge.Cuts
6
CONTINUOUS
10
5.0895292913385823
20
-5.600685236220472
11
5.0961651574803151
21
-5.6073211023622047
0
LINE
8
Edge.Cuts
6
CONTINUOUS
10
5.0961651574803151
20
-5.6073211023622047
11
5.1016812204724404
21
-5.6149133464566932
0
LINE
8
Edge.Cuts
6
CONTINUOUS
10
5.1016812204724404
20
-5.6149133464566932
11
5.1059416929133858
21
-5.6232749999999996
0
LINE
8
Edge.Cuts
6
CONTINUOUS
10
5.1059416929133858
20
-5.6232749999999996
11
5.1088416929133853
21
-5.6322001968503939
0
LINE
8
Edge.Cuts
6
CONTINUOUS
10
5.1088416929133853
20
-5.6322001968503939
11
5.1103097244094489
21
-5.6414691732283462
0
LINE
8
Edge.Cuts
6
CONTINUOUS
10
5.1103097244094489
20
-5.6414691732283462
11
5.1103097244094489
21
-5.6508536614173224
0
LINE
8
Edge.Cuts
6
CONTINUOUS
10
5.1103097244094489
20
-5.6508536614173224
11
5.1088416929133853
21
-5.6601226377952756
0
LINE
8
Edge.Cuts
6
CONTINUOUS
10
5.1088416929133853
20
-5.6601226377952756
11
5.1059416929133858
21
-5.669047834645669
0
LINE
8
Edge.Cuts
6
CONTINUOUS
10
5.1059416929133858
20
-5.669047834645669
11
5.1016812204724404
21
-5.6774094881889763
0
LINE
8
Edge.Cuts
6
CONTINUOUS
10
5.1016812204724404
20
-5.6774094881889763
11
5.0961651574803151
21
-5.6850017322834647
0
LINE
8
Edge.Cuts
6
CONTINUOUS
10
5.0961651574803151
20
-5.6850017322834647
11
5.0895292913385823
21
-5.6916375984251966
0
LINE
8
Edge.Cuts
6
CONTINUOUS
10
5.0895292913385823
20
-5.6916375984251966
11
5.0819370472440948
21
-5.6971536614173228
0
LINE
8
Edge.Cuts
6
CONTINUOUS
10
5.0819370472440948
20
-5.6971536614173228
11
5.0735753937007875
21
-5.7014141338582673
0
LINE
8
Edge.Cuts
6
CONTINUOUS
10
5.0735753937007875
20
-5.7014141338582673
11
5.0646501968503932
21
-5.7043141338582677
0
LINE
8
Edge.Cuts
6
CONTINUOUS
10
5.0646501968503932
20
-5.7043141338582677
11
5.0553812204724409
21
-5.7057821653543304
0
LINE
8
Edge.Cuts
6
CONTINUOUS
10
5.0553812204724409
20
-5.7057821653543304
11
5.0459967322834647
21
-5.7057821653543304
0
LINE
8
Edge.Cuts
6
CONTINUOUS
10
5.0459967322834647
20
-5.7057821653543304
11
5.0367277559055115
21
-5.7043141338582677
0
LINE
8
Edge.Cuts
6
CONTINUOUS
10
5.0367277559055115
20
-5.7043141338582677
11
5.0278025590551181
21
-5.7014141338582673
0
LINE
8
Edge.Cuts
6
CONTINUOUS
10
5.0278025590551181
20
-5.7014141338582673
11
5.0194409055118108
21
-5.6971536614173228
0
LINE
8
Edge.Cuts
6
CONTINUOUS
10
5.0194409055118108
20
-5.6971536614173228
11
5.0118486614173223
21
-5.6916375984251966
0
LINE
8
Edge.Cuts
6
CONTINUOUS
10
5.0118486614173223
20
-5.6916375984251966
11
5.0052127952755905
21
-5.6850017322834647
0
LINE
8
Edge.Cuts
6
CONTINUOUS
10
5.0052127952755905
20
-5.6850017322834647
11
4.9996967322834642
21
-5.6774094881889763
0
LINE
8
Edge.Cuts
6
CONTINUOUS
10
4.9996967322834642
20
-5.6774094881889763
11
4.9954362598425197
21
-5.669047834645669
0
LINE
8
Edge.Cuts
6
CONTINUOUS
10
4.9954362598425197
20
-5.669047834645669
11
4.9925362598425194
21
-5.6601226377952756
0
LINE
8
Edge.Cuts
6
CONTINUOUS
10
4.9925362598425194
20
-5.6601226377952756
11
4.9910682283464567
21
-5.6508536614173224
0
LINE
8
Edge.Cuts
6
CONTINUOUS
10
4.9910682283464567
20
-5.6508536614173224
11
4.9910682283464567
21
-5.6415727165354328
0
LINE
8
Edge.Cuts
6
CONTINUOUS
10
4.9910682283464567
20
-5.6415727165354328
11
4.9910682283464567
21
-5.6414691732283462
0
LINE
8
Edge.Cuts
6
CONTINUOUS
10
4.9910682283464567
20
-5.6414691732283462
11
4.9925362598425194
21
-5.6322001968503939
0
LINE
8
Edge.Cuts
6
CONTINUOUS
10
4.9925362598425194
20
-5.6322001968503939
11
4.9954362598425197
21
-5.6232749999999996
0
LINE
8
Edge.Cuts
6
CONTINUOUS
10
4.9954362598425197
20
-5.6232749999999996
11
4.9996967322834642
21
-5.6149133464566932
0
LINE
8
Edge.Cuts
6
CONTINUOUS
10
4.9996967322834642
20
-5.6149133464566932
11
5.0052127952755905
21
-5.6073211023622047
0
LINE
8
Edge.Cuts
6
CONTINUOUS
10
5.0052127952755905
20
-5.6073211023622047
11
5.0118486614173223
21
-5.600685236220472
0
LINE
8
Edge.Cuts
6
CONTINUOUS
10
5.0118486614173223
20
-5.600685236220472
11
5.0194409055118108
21
-5.5951691732283466
0
LINE
8
Edge.Cuts
6
CONTINUOUS
10
5.0194409055118108
20
-5.5951691732283466
11
5.0278025590551181
21
-5.5909087007874012
0
LINE
8
Edge.Cuts
6
CONTINUOUS
10
5.0278025590551181
20
-5.5909087007874012
11
5.0367277559055115
21
-5.5880087007874018
0
LINE
8
Edge.Cuts
6
CONTINUOUS
10
5.0367277559055115
20
-5.5880087007874018
11
5.0459967322834647
21
-5.5865406692913382
0
LINE
8
Edge.Cuts
6
CONTINUOUS
10
5.0459967322834647
20
-5.5865406692913382
11
5.0553812204724409
21
-5.5865406692913382
0
LINE
8
Edge.Cuts
6
CONTINUOUS
10
5.0553812204724409
20
-5.5865406692913382
11
5.0646501968503932
21
-5.5880087007874018
0
LINE
8
Edge.Cuts
6
CONTINUOUS
10
4.9923838582677167
20
-5.6507501181102358
11
4.9938195275590553
21
-5.6598145669291338
0
LINE
8
Edge.Cuts
6
CONTINUOUS
10
4.9938195275590553
20
-5.6598145669291338
11
4.9966555118110234
21
-5.6685427952755907
0
LINE
8
Edge.Cuts
6
CONTINUOUS
10
4.9966555118110234
20
-5.6685427952755907
11
5.0008219685039368
21
-5.6767199606299208
0
LINE
8
Edge.Cuts
6
CONTINUOUS
10
5.0008219685039368
20
-5.6767199606299208
11
5.0062163385826768
21
-5.6841446456692912
0
LINE
8
Edge.Cuts
6
CONTINUOUS
10
5.0062163385826768
20
-5.6841446456692912
11
5.0127057480314958
21
-5.6906340551181103
0
LINE
8
Edge.Cuts
6
CONTINUOUS
10
5.0127057480314958
20
-5.6906340551181103
11
5.0201304330708663
21
-5.6960284251968503
0
LINE
8
Edge.Cuts
6
CONTINUOUS
10
5.0201304330708663
20
-5.6960284251968503
11
5.0283075984251964
21
-5.7001948818897636
0
LINE
8
Edge.Cuts
6
CONTINUOUS
10
5.0283075984251964
20
-5.7001948818897636
11
5.0370358267716533
21
-5.7030308661417317
0
LINE
8
Edge.Cuts
6
CONTINUOUS
10
5.0370358267716533
20
-5.7030308661417317
11
5.0461002755905513
21
-5.7044665354330704
0
LINE
8
Edge.Cuts
6
CONTINUOUS
10
5.0461002755905513
20
-5.7044665354330704
11
5.0552776771653543
21
-5.7044665354330704
0
LINE
8
Edge.Cuts
6
CONTINUOUS
10
5.0552776771653543
20
-5.7044665354330704
11
5.0643421259842523
21
-5.7030308661417317
0
LINE
8
Edge.Cuts
6
CONTINUOUS
10
5.0643421259842523
20
-5.7030308661417317
11
5.0730703543307083
21
-5.7001948818897636
0
LINE
8
Edge.Cuts
6
CONTINUOUS
10
5.0730703543307083
20
-5.7001948818897636
11
5.0812475196850393
21
-5.6960284251968503
0
LINE
8
Edge.Cuts
6
CONTINUOUS
10
5.0812475196850393
20
-5.6960284251968503
11
5.0886722047244097
21
-5.6906340551181103
0
LINE
8
Edge.Cuts
6
CONTINUOUS
10
5.0886722047244097
20
-5.6906340551181103
11
5.0951616141732279
21
-5.6841446456692912
0
LINE
8
Edge.Cuts
6
CONTINUOUS
10
5.0951616141732279
20
-5.6841446456692912
11
5.1005559842519688
21
-5.6767199606299208
0
LINE
8
Edge.Cuts
6
CONTINUOUS
10
5.1005559842519688
20
-5.6767199606299208
11
5.1047224409448821
21
-5.6685427952755907
0
LINE
8
Edge.Cuts
6
CONTINUOUS
10
5.1047224409448821
20
-5.6685427952755907
11
5.1075584251968502
21
-5.6598145669291338
0
LINE
8
Edge.Cuts
6
CONTINUOUS
10
5.1075584251968502
20
-5.6598145669291338
11
5.1089940944881889
21
-5.6507501181102358
0
LINE
8
Edge.Cuts
6
CONTINUOUS
10
5.1089940944881889
20
-5.6507501181102358
11
5.1089940944881889
21
-5.6415727165354328
0
LINE
8
Edge.Cuts
6
CONTINUOUS
10
5.1089940944881889
20
-5.6415727165354328
11
5.1075584251968502
21
-5.6325082677165357
0
LINE
8
Edge.Cuts
6
CONTINUOUS
10
5.1075584251968502
20
-5.6325082677165357
11
5.1047224409448821
21
-5.6237800393700788
0
LINE
8
Edge.Cuts
6
CONTINUOUS
10
5.1047224409448821
20
-5.6237800393700788
11
5.1005559842519688
21
-5.6156028740157478
0
LINE
8
Edge.Cuts
6
CONTINUOUS
10
5.1005559842519688
20
-5.6156028740157478
11
5.0951616141732279
21
-5.6081781889763782
0
LINE
8
Edge.Cuts
6
CONTINUOUS
10
5.0951616141732279
20
-5.6081781889763782
11
5.0886722047244097
21
-5.6016887795275592
0
LINE
8
Edge.Cuts
6
CONTINUOUS
10
5.0886722047244097
20
-5.6016887795275592
11
5.0812475196850393
21
-5.5962944094488192
0
LINE
8
Edge.Cuts
6
CONTINUOUS
10
5.0812475196850393
20
-5.5962944094488192
11
5.0730703543307083
21
-5.5921279527559058
0
LINE
8
Edge.Cuts
6
CONTINUOUS
10
5.0730703543307083
20
-5.5921279527559058
11
5.0643421259842523
21
-5.5892919685039368
0
LINE
8
Edge.Cuts
6
CONTINUOUS
10
5.0643421259842523
20
-5.5892919685039368
11
5.0552776771653543
21
-5.5878562992125982
0
LINE
8
Edge.Cuts
6
CONTINUOUS
10
5.0552776771653543
20
-5.5878562992125982
11
5.0461002755905513
21
-5.5878562992125982
0
LINE
8
Edge.Cuts
6
CONTINUOUS
10
5.0461002755905513
20
-5.5878562992125982
11
5.0370358267716533
21
-5.5892919685039368
0
LINE
8
Edge.Cuts
6
CONTINUOUS
10
5.0370358267716533
20
-5.5892919685039368
11
5.0283075984251964
21
-5.5921279527559058
0
LINE
8
Edge.Cuts
6
CONTINUOUS
10
5.0283075984251964
20
-5.5921279527559058
11
5.0201304330708663
21
-5.5962944094488192
0
LINE
8
Edge.Cuts
6
CONTINUOUS
10
5.0201304330708663
20
-5.5962944094488192
11
5.0127057480314958
21
-5.6016887795275592
0
LINE
8
Edge.Cuts
6
CONTINUOUS
10
5.0127057480314958
20
-5.6016887795275592
11
5.0062163385826768
21
-5.6081781889763782
0
LINE
8
Edge.Cuts
6
CONTINUOUS
10
5.0062163385826768
20
-5.6081781889763782
11
5.0008219685039368
21
-5.6156028740157478
0
LINE
8
Edge.Cuts
6
CONTINUOUS
10
5.0008219685039368
20
-5.6156028740157478
11
4.9966555118110234
21
-5.6237800393700788
0
LINE
8
Edge.Cuts
6
CONTINUOUS
10
4.9966555118110234
20
-5.6237800393700788
11
4.9938195275590553
21
-5.6325082677165357
0
LINE
8
Edge.Cuts
6
CONTINUOUS
10
4.9938195275590553
20
-5.6325082677165357
11
4.9923838582677167
21
-5.6415727165354328
0
LINE
8
Edge.Cuts
6
CONTINUOUS
10
4.9923838582677167
20
-5.6415727165354328
11
4.9923838582677167
21
-5.6507501181102358
0
LINE
8
Edge.Cuts
6
CONTINUOUS
10
4.6884842519685037
20
-5.405253937007874
11
4.6969953937007869
21
-5.405862677165354
0
LINE
8
Edge.Cuts
6
CONTINUOUS
10
4.6969953937007869
20
-5.405862677165354
11
4.7053333070866143
21
-5.4076764566929132
0
LINE
8
Edge.Cuts
6
CONTINUOUS
10
4.7053333070866143
20
-5.4076764566929132
11
4.7133281889763783
21
-5.4106584251968499
0
LINE
8
Edge.Cuts
6
CONTINUOUS
10
4.7133281889763783
20
-5.4106584251968499
11
4.7208173228346455
21
-5.4147477952755905
0
LINE
8
Edge.Cuts
6
CONTINUOUS
10
4.7208173228346455
20
-5.4147477952755905
11
4.7276482677165355
21
-5.4198613779527554
0
LINE
8
Edge.Cuts
6
CONTINUOUS
10
4.7276482677165355
20
-5.4198613779527554
11
4.7336819291338585
21
-5.4258950393700784
0
LINE
8
Edge.Cuts
6
CONTINUOUS
10
4.7336819291338585
20
-5.4258950393700784
11
4.7387955118110234
21
-5.4327259842519684
0
LINE
8
Edge.Cuts
6
CONTINUOUS
10
4.7387955118110234
20
-5.4327259842519684
11
4.742884881889764
21
-5.4402151181102365
0
LINE
8
Edge.Cuts
6
CONTINUOUS
10
4.742884881889764
20
-5.4402151181102365
11
4.7458668503937007
21
-5.4482099999999996
0
LINE
8
Edge.Cuts
6
CONTINUOUS
10
4.7458668503937007
20
-5.4482099999999996
11
4.7476806299212599
21
-5.456547913385827
0
LINE
8
Edge.Cuts
6
CONTINUOUS
10
4.7476806299212599
20
-5.456547913385827
11
4.7482893700787399
21
-5.4650590551181102
0
LINE
8
Edge.Cuts
6
CONTINUOUS
10
4.7482893700787399
20
-5.4650590551181102
11
4.7482893700787399
21
-5.5044291338582676
0
LINE
8
Edge.Cuts
6
CONTINUOUS
10
4.7482893700787399
20
-5.5044291338582676
11
4.7476806299212599
21
-5.5129402755905508
0
LINE
8
Edge.Cuts
6
CONTINUOUS
10
4.7476806299212599
20
-5.5129402755905508
11
4.7458668503937007
21
-5.5212781889763782
0
LINE
8
Edge.Cuts
6
CONTINUOUS
10
4.7458668503937007
20
-5.5212781889763782
11
4.742884881889764
21
-5.5292730708661413
0
LINE
8
Edge.Cuts
6
CONTINUOUS
10
4.742884881889764
20
-5.5292730708661413
11
4.7387955118110234
21
-5.5367622047244094
0
LINE
8
Edge.Cuts
6
CONTINUOUS
10
4.7387955118110234
20
-5.5367622047244094
11
4.7336819291338585
21
-5.5435931496062993
0
LINE
8
Edge.Cuts
6
CONTINUOUS
10
4.7336819291338585
20
-5.5435931496062993
11
4.7276482677165355
21
-5.5496268110236215
0
LINE
8
Edge.Cuts
6
CONTINUOUS
10
4.7276482677165355
20
-5.5496268110236215
11
4.7208173228346455
21
-5.5547403937007873
0
LINE
8
Edge.Cuts
6
CONTINUOUS
10
4.7208173228346455
20
-5.5547403937007873
11
4.7133281889763783
21
-5.5588297637795279
0
LINE
8
Edge.Cuts
6
CONTINUOUS
10
4.7133281889763783
20
-5.5588297637795279
11
4.7053333070866143
21
-5.5618117322834646
0
LINE
8
Edge.Cuts
6
CONTINUOUS
10
4.7053333070866143
20
-5.5618117322834646
11
4.6969953937007869
21
-5.5636255118110238
0
LINE
8
Edge.Cuts
6
CONTINUOUS
10
4.6969953937007869
20
-5.5636255118110238
11
4.6884842519685037
21
-5.5642342519685037
0
LINE
8
Edge.Cuts
6
CONTINUOUS
10
4.6884842519685037
20
-5.5642342519685037
11
4.4128937007874018
21
-5.5642342519685037
0
LINE
8
Edge.Cuts
6
CONTINUOUS
10
4.4128937007874018
20
-5.5642342519685037
11
4.4043825590551178
21
-5.5636255118110238
0
LINE
8
Edge.Cuts
6
CONTINUOUS
10
4.4043825590551178
20
-5.5636255118110238
11
4.3960446456692912
21
-5.5618117322834646
0
LINE
8
Edge.Cuts
6
CONTINUOUS
10
4.3960446456692912
20
-5.5618117322834646
11
4.3880497637795273
21
-5.5588297637795279
0
LINE
8
Edge.Cuts
6
CONTINUOUS
10
4.3880497637795273
20
-5.5588297637795279
11
4.3805606299212601
21
-5.5547403937007873
0
LINE
8
Edge.Cuts
6
CONTINUOUS
10
4.3805606299212601
20
-5.5547403937007873
11
4.3737296850393701
21
-5.5496268110236215
0
LINE
8
Edge.Cuts
6
CONTINUOUS
10
4.3737296850393701
20
-5.5496268110236215
11
4.367696023622047
21
-5.5435931496062993
0
LINE
8
Edge.Cuts
6
CONTINUOUS
10
4.367696023622047
20
-5.5435931496062993
11
4.3625824409448821
21
-5.5367622047244094
0
LINE
8
Edge.Cuts
6
CONTINUOUS
10
4.3625824409448821
20
-5.5367622047244094
11
4.3584930708661416
21
-5.5292730708661413
0
LINE
8
Edge.Cuts
6
CONTINUOUS
10
4.3584930708661416
20
-5.5292730708661413
11
4.3555111023622048
21
-5.5212781889763782
0
LINE
8
Edge.Cuts
6
CONTINUOUS
10
4.3555111023622048
20
-5.5212781889763782
11
4.3536973228346456
21
-5.5129402755905508
0
LINE
8
Edge.Cuts
6
CONTINUOUS
10
4.3536973228346456
20
-5.5129402755905508
11
4.3530885826771657
21
-5.5044291338582676
0
LINE
8
Edge.Cuts
6
CONTINUOUS
10
4.3530885826771657
20
-5.5044291338582676
11
4.3530885826771657
21
-5.4650590551181102
0
LINE
8
Edge.Cuts
6
CONTINUOUS
10
4.3530885826771657
20
-5.4650590551181102
11
4.3536973228346456
21
-5.456547913385827
0
LINE
8
Edge.Cuts
6
CONTINUOUS
10
4.3536973228346456
20
-5.456547913385827
11
4.3555111023622048
21
-5.4482099999999996
0
LINE
8
Edge.Cuts
6
CONTINUOUS
10
4.3555111023622048
20
-5.4482099999999996
11
4.3584930708661416
21
-5.4402151181102365
0
LINE
8
Edge.Cuts
6
CONTINUOUS
10
4.3584930708661416
20
-5.4402151181102365
11
4.3625824409448821
21
-5.4327259842519684
0
LINE
8
Edge.Cuts
6
CONTINUOUS
10
4.3625824409448821
20
-5.4327259842519684
11
4.367696023622047
21
-5.4258950393700784
0
LINE
8
Edge.Cuts
6
CONTINUOUS
10
4.367696023622047
20
-5.4258950393700784
11
4.3737296850393701
21
-5.4198613779527554
0
LINE
8
Edge.Cuts
6
CONTINUOUS
10
4.3737296850393701
20
-5.4198613779527554
11
4.3805606299212601
21
-5.4147477952755905
0
LINE
8
Edge.Cuts
6
CONTINUOUS
10
4.3805606299212601
20
-5.4147477952755905
11
4.3880497637795273
21
-5.4106584251968499
0
LINE
8
Edge.Cuts
6
CONTINUOUS
10
4.3880497637795273
20
-5.4106584251968499
11
4.3960446456692912
21
-5.4076764566929132
0
LINE
8
Edge.Cuts
6
CONTINUOUS
10
4.3960446456692912
20
-5.4076764566929132
11
4.4043825590551178
21
-5.405862677165354
0
LINE
8
Edge.Cuts
6
CONTINUOUS
10
4.4043825590551178
20
-5.405862677165354
11
4.4128937007874018
21
-5.405253937007874
0
LINE
8
Edge.Cuts
6
CONTINUOUS
10
4.4128937007874018
20
-5.405253937007874
11
4.6884842519685037
21
-5.405253937007874
0
LINE
8
Edge.Cuts
6
CONTINUOUS
10
4.4128937007874018
20
-5.4067539370078741
11
4.4087236220472441
21
-5.4067539370078741
0
LINE
8
Edge.Cuts
6
CONTINUOUS
10
4.4087236220472441
20
-5.4067539370078741
11
4.4004683858267715
21
-5.4079408661417325
0
LINE
8
Edge.Cuts
6
CONTINUOUS
10
4.4004683858267715
20
-5.4079408661417325
11
4.3924661023622047
21
-5.4102905511811024
0
LINE
8
Edge.Cuts
6
CONTINUOUS
10
4.3924661023622047
20
-5.4102905511811024
11
4.3848796456692911
21
-5.4137551574803151
0
LINE
8
Edge.Cuts
6
CONTINUOUS
10
4.3848796456692911
20
-5.4137551574803151
11
4.3778635039370082
21
-5.4182641732283461
0
LINE
8
Edge.Cuts
6
CONTINUOUS
10
4.3778635039370082
20
-5.4182641732283461
11
4.3715604330708659
21
-5.4237257874015743
0
LINE
8
Edge.Cuts
6
CONTINUOUS
10
4.3715604330708659
20
-5.4237257874015743
11
4.3660988188976377
21
-5.4300288582677165
0
LINE
8
Edge.Cuts
6
CONTINUOUS
10
4.3660988188976377
20
-5.4300288582677165
11
4.3615898031496059
21
-5.4370449999999995
0
LINE
8
Edge.Cuts
6
CONTINUOUS
10
4.3615898031496059
20
-5.4370449999999995
11
4.358125196850394
21
-5.444631456692913
0
LINE
8
Edge.Cuts
6
CONTINUOUS
10
4.358125196850394
20
-5.444631456692913
11
4.3557755118110233
21
-5.4526337401574798
0
LINE
8
Edge.Cuts
6
CONTINUOUS
10
4.3557755118110233
20
-5.4526337401574798
11
4.3545885826771649
21
-5.4608889763779525
0
LINE
8
Edge.Cuts
6
CONTINUOUS
10
4.3545885826771649
20
-5.4608889763779525
11
4.3545885826771649
21
-5.4650590551181102
0
LINE
8
Edge.Cuts
6
CONTINUOUS
10
4.3545885826771649
20
-5.4650590551181102
11
4.3545885826771649
21
-5.5044291338582676
0
LINE
8
Edge.Cuts
6
CONTINUOUS
10
4.3545885826771649
20
-5.5044291338582676
11
4.3545885826771649
21
-5.5085992125984253
0
LINE
8
Edge.Cuts
6
CONTINUOUS
10
4.3545885826771649
20
-5.5085992125984253
11
4.3557755118110233
21
-5.5168544488188971
0
LINE
8
Edge.Cuts
6
CONTINUOUS
10
4.3557755118110233
20
-5.5168544488188971
11
4.358125196850394
21
-5.5248567322834647
0
LINE
8
Edge.Cuts
6
CONTINUOUS
10
4.358125196850394
20
-5.5248567322834647
11
4.3615898031496059
21
-5.5324431889763774
0
LINE
8
Edge.Cuts
6
CONTINUOUS
10
4.3615898031496059
20
-5.5324431889763774
11
4.3660988188976377
21
-5.5394593307086613
0
LINE
8
Edge.Cuts
6
CONTINUOUS
10
4.3660988188976377
20
-5.5394593307086613
11
4.3715604330708659
21
-5.5457624015748026
0
LINE
8
Edge.Cuts
6
CONTINUOUS
10
4.3715604330708659
20
-5.5457624015748026
11
4.3778635039370082
21
-5.5512240157480317
0
LINE
8
Edge.Cuts
6
CONTINUOUS
10
4.3778635039370082
20
-5.5512240157480317
11
4.3848796456692911
21
-5.5557330314960627
0
LINE
8
Edge.Cuts
6
CONTINUOUS
10
4.3848796456692911
20
-5.5557330314960627
11
4.3924661023622047
21
-5.5591976377952754
0
LINE
8
Edge.Cuts
6
CONTINUOUS
10
4.3924661023622047
20
-5.5591976377952754
11
4.4004683858267715
21
-5.5615473228346453
0
LINE
8
Edge.Cuts
6
CONTINUOUS
10
4.4004683858267715
20
-5.5615473228346453
11
4.4087236220472441
21
-5.5627342519685037
0
LINE
8
Edge.Cuts
6
CONTINUOUS
10
4.4087236220472441
20
-5.5627342519685037
11
4.4128937007874018
21
-5.5627342519685037
0
LINE
8
Edge.Cuts
6
CONTINUOUS
10
4.4128937007874018
20
-5.5627342519685037
11
4.6884842519685037
21
-5.5627342519685037
0
LINE
8
Edge.Cuts
6
CONTINUOUS
10
4.6884842519685037
20
-5.5627342519685037
11
4.6926543307086614
21
-5.5627342519685037
0
LINE
8
Edge.Cuts
6
CONTINUOUS
10
4.6926543307086614
20
-5.5627342519685037
11
4.7009095669291341
21
-5.5615473228346453
0
LINE
8
Edge.Cuts
6
CONTINUOUS
10
4.7009095669291341
20
-5.5615473228346453
11
4.7089118503937009
21
-5.5591976377952754
0
LINE
8
Edge.Cuts
6
CONTINUOUS
10
4.7089118503937009
20
-5.5591976377952754
11
4.7164983070866144
21
-5.5557330314960627
0
LINE
8
Edge.Cuts
6
CONTINUOUS
10
4.7164983070866144
20
-5.5557330314960627
11
4.7235144488188974
21
-5.5512240157480317
0
LINE
8
Edge.Cuts
6
CONTINUOUS
10
4.7235144488188974
20
-5.5512240157480317
11
4.7298175196850396
21
-5.5457624015748026
0
LINE
8
Edge.Cuts
6
CONTINUOUS
10
4.7298175196850396
20
-5.5457624015748026
11
4.7352791338582678
21
-5.5394593307086613
0
LINE
8
Edge.Cuts
6
CONTINUOUS
10
4.7352791338582678
20
-5.5394593307086613
11
4.7397881496062988
21
-5.5324431889763774
0
LINE
8
Edge.Cuts
6
CONTINUOUS
10
4.7397881496062988
20
-5.5324431889763774
11
4.7432527559055115
21
-5.5248567322834647
0
LINE
8
Edge.Cuts
6
CONTINUOUS
10
4.7432527559055115
20
-5.5248567322834647
11
4.7456024409448814
21
-5.5168544488188971
0
LINE
8
Edge.Cuts
6
CONTINUOUS
10
4.7456024409448814
20
-5.5168544488188971
11
4.7467893700787398
21
-5.5085992125984253
0
LINE
8
Edge.Cuts
6
CONTINUOUS
10
4.7467893700787398
20
-5.5085992125984253
11
4.7467893700787398
21
-5.5044291338582676
0
LINE
8
Edge.Cuts
6
CONTINUOUS
10
4.7467893700787398
20
-5.5044291338582676
11
4.7467893700787398
21
-5.4650590551181102
0
LINE
8
Edge.Cuts
6
CONTINUOUS
10
4.7467893700787398
20
-5.4650590551181102
11
4.7467893700787398
21
-5.4608889763779525
0
LINE
8
Edge.Cuts
6
CONTINUOUS
10
4.7467893700787398
20
-5.4608889763779525
11
4.7456024409448814
21
-5.4526337401574798
0
LINE
8
Edge.Cuts
6
CONTINUOUS
10
4.7456024409448814
20
-5.4526337401574798
11
4.7432527559055115
21
-5.444631456692913
0
LINE
8
Edge.Cuts
6
CONTINUOUS
10
4.7432527559055115
20
-5.444631456692913
11
4.7397881496062988
21
-5.4370449999999995
0
LINE
8
Edge.Cuts
6
CONTINUOUS
10
4.7397881496062988
20
-5.4370449999999995
11
4.7352791338582678
21
-5.4300288582677165
0
LINE
8
Edge.Cuts
6
CONTINUOUS
10
4.7352791338582678
20
-5.4300288582677165
11
4.7298175196850396
21
-5.4237257874015743
0
LINE
8
Edge.Cuts
6
CONTINUOUS
10
4.7298175196850396
20
-5.4237257874015743
11
4.7235144488188974
21
-5.4182641732283461
0
LINE
8
Edge.Cuts
6
CONTINUOUS
10
4.7235144488188974
20
-5.4182641732283461
11
4.7164983070866144
21
-5.4137551574803151
0
LINE
8
Edge.Cuts
6
CONTINUOUS
10
4.7164983070866144
20
-5.4137551574803151
11
4.7089118503937009
21
-5.4102905511811024
0
LINE
8
Edge.Cuts
6
CONTINUOUS
10
4.7089118503937009
20
-5.4102905511811024
11
4.7009095669291341
21
-5.4079408661417325
0
LINE
8
Edge.Cuts
6
CONTINUOUS
10
4.7009095669291341
20
-5.4079408661417325
11
4.6926543307086614
21
-5.4067539370078741
0
LINE
8
Edge.Cuts
6
CONTINUOUS
10
4.6926543307086614
20
-5.4067539370078741
11
4.6884842519685037
21
-5.4067539370078741
0
LINE
8
Edge.Cuts
6
CONTINUOUS
10
4.6884842519685037
20
-5.4067539370078741
11
4.4128937007874018
21
-5.4067539370078741
0
LINE
8
Edge.Cuts
6
CONTINUOUS
10
3.7775621653543308
20
-5.0926512992125987
11
3.7775655118110234
21
-5.0926506692913387
0
LINE
8
Edge.Cuts
6
CONTINUOUS
10
3.7775655118110234
20
-5.0926506692913387
11
3.7796740551181101
21
-5.0926694881889762
0
LINE
8
Edge.Cuts
6
CONTINUOUS
10
3.7796740551181101
20
-5.0926694881889762
11
3.7796973228346458
21
-5.092674330708661
0
LINE
8
Edge.Cuts
6
CONTINUOUS
10
3.7796973228346458
20
-5.092674330708661
11
3.7797208661417323
21
-5.0926713779527555
0
LINE
8
Edge.Cuts
6
CONTINUOUS
10
3.7797208661417323
20
-5.0926713779527555
11
3.783927086614173
21
-5.0929722047244095
0
LINE
8
Edge.Cuts
6
CONTINUOUS
10
3.783927086614173
20
-5.0929722047244095
11
3.783953188976378
21
-5.092979330708661
0
LINE
8
Edge.Cuts
6
CONTINUOUS
10
3.783953188976378
20
-5.092979330708661
11
3.7839803149606297
21
-5.0929779133858268
0
LINE
8
Edge.Cuts
6
CONTINUOUS
10
3.7839803149606297
20
-5.0929779133858268
11
3.7881543700787401
21
-5.0935780708661413
0
LINE
8
Edge.Cuts
6
CONTINUOUS
10
3.7881543700787401
20
-5.0935780708661413
11
3.7881798818897638
21
-5.0935870472440943
0
LINE
8
Edge.Cuts
6
CONTINUOUS
10
3.7881798818897638
20
-5.0935870472440943
11
3.7882070472440943
21
-5.0935875590551181
0
LINE
8
Edge.Cuts
6
CONTINUOUS
10
3.7882070472440943
20
-5.0935875590551181
11
3.7923276771653542
21
-5.0944839370078743
0
LINE
8
Edge.Cuts
6
CONTINUOUS
10
3.7923276771653542
20
-5.0944839370078743
11
3.7923525984251967
21
-5.0944947637795277
0
LINE
8
Edge.Cuts
6
CONTINUOUS
10
3.7923525984251967
20
-5.0944947637795277
11
3.7923795275590551
21
-5.0944972047244095
0
LINE
8
Edge.Cuts
6
CONTINUOUS
10
3.7923795275590551
20
-5.0944972047244095
11
3.7964256692913385
21
-5.0956852755905508
0
LINE
8
Edge.Cuts
6
CONTINUOUS
10
3.7964256692913385
20
-5.0956852755905508
11
3.7964496456692913
21
-5.0956977952755906
0
LINE
8
Edge.Cuts
6
CONTINUOUS
10
3.7964496456692913
20
-5.0956977952755906
11
3.7964764566929134
21
-5.0957021653543304
0
LINE
8
Edge.Cuts
6
CONTINUOUS
10
3.7964764566929134
20
-5.0957021653543304
11
3.8004275590551182
21
-5.0971758267716538
0
LINE
8
Edge.Cuts
6
CONTINUOUS
10
3.8004275590551182
20
-5.0971758267716538
11
3.8004506692913385
21
-5.0971900787401569
0
LINE
8
Edge.Cuts
6
CONTINUOUS
10
3.8004506692913385
20
-5.0971900787401569
11
3.8004770472440943
21
-5.0971963385826768
0
LINE
8
Edge.Cuts
6
CONTINUOUS
10
3.8004770472440943
20
-5.0971963385826768
11
3.8043129527559056
21
-5.0989481889763777
0
LINE
8
Edge.Cuts
6
CONTINUOUS
10
3.8043129527559056
20
-5.0989481889763777
11
3.8043348818897638
21
-5.0989639763779531
0
LINE
8
Edge.Cuts
6
CONTINUOUS
10
3.8043348818897638
20
-5.0989639763779531
11
3.8043608267716533
21
-5.0989721259842522
0
LINE
8
Edge.Cuts
6
CONTINUOUS
10
3.8043608267716533
20
-5.0989721259842522
11
3.808061968503937
21
-5.1009930708661413
0
LINE
8
Edge.Cuts
6
CONTINUOUS
10
3.808061968503937
20
-5.1009930708661413
11
3.8080827952755905
21
-5.1010104724409446
0
LINE
8
Edge.Cuts
6
CONTINUOUS
10
3.8080827952755905
20
-5.1010104724409446
11
3.8081079921259842
21
-5.1010203937007876
0
LINE
8
Edge.Cuts
6
CONTINUOUS
10
3.8081079921259842
20
-5.1010203937007876
11
3.8116555511811021
21
-5.1033002362204725
0
LINE
8
Edge.Cuts
6
CONTINUOUS
10
3.8116555511811021
20
-5.1033002362204725
11
3.8116750787401572
21
-5.1033190944881888
0
LINE
8
Edge.Cuts
6
CONTINUOUS
10
3.8116750787401572
20
-5.1033190944881888
11
3.8116995275590551
21
-5.1033307874015748
0
LINE
8
Edge.Cuts
6
CONTINUOUS
10
3.8116995275590551
20
-5.1033307874015748
11
3.8150753937007873
21
-5.1058579527559056
0
LINE
8
Edge.Cuts
6
CONTINUOUS
10
3.8150753937007873
20
-5.1058579527559056
11
3.8150935039370077
21
-5.1058781102362207
0
LINE
8
Edge.Cuts
6
CONTINUOUS
10
3.8150935039370077
20
-5.1058781102362207
11
3.8151170472440943
21
-5.1058915354330709
0
LINE
8
Edge.Cuts
6
CONTINUOUS
10
3.8151170472440943
20
-5.1058915354330709
11
3.81830405511811
21
-5.108653031496063
0
LINE
8
Edge.Cuts
6
CONTINUOUS
10
3.81830405511811
20
-5.108653031496063
11
3.818320708661417
21
-5.1086744881889761
0
LINE
8
Edge.Cuts
6
CONTINUOUS
10
3.818320708661417
20
-5.1086744881889761
11
3.8183432283464565
21
-5.1086895275590551
0
LINE
8
Edge.Cuts
6
CONTINUOUS
10
3.8183432283464565
20
-5.1086895275590551
11
3.8213250787401574
21
-5.1116713779527556
0
LINE
8
Edge.Cuts
6
CONTINUOUS
10
3.8213250787401574
20
-5.1116713779527556
11
3.821340118110236
21
-5.1116938582677163
0
LINE
8
Edge.Cuts
6
CONTINUOUS
10
3.821340118110236
20
-5.1116938582677163
11
3.8213615748031495
21
-5.1117105511811021
0
LINE
8
Edge.Cuts
6
CONTINUOUS
10
3.8213615748031495
20
-5.1117105511811021
11
3.8241230708661416
21
-5.1148975590551178
0
LINE
8
Edge.Cuts
6
CONTINUOUS
10
3.8241230708661416
20
-5.1148975590551178
11
3.8241364960629922
21
-5.1149211417322835
0
LINE
8
Edge.Cuts
6
CONTINUOUS
10
3.8241364960629922
20
-5.1149211417322835
11
3.8241566535433069
21
-5.1149392519685035
0
LINE
8
Edge.Cuts
6
CONTINUOUS
10
3.8241566535433069
20
-5.1149392519685035
11
3.8266838188976378
21
-5.1183150787401575
0
LINE
8
Edge.Cuts
6
CONTINUOUS
10
3.8266838188976378
20
-5.1183150787401575
11
3.826695472440945
21
-5.1183394881889761
0
LINE
8
Edge.Cuts
6
CONTINUOUS
10
3.826695472440945
20
-5.1183394881889761
11
3.82671437007874
21
-5.11835905511811
0
LINE
8
Edge.Cuts
6
CONTINUOUS
10
3.82671437007874
20
-5.11835905511811
11
3.8289942125984253
21
-5.1219066141732279
0
LINE
8
Edge.Cuts
6
CONTINUOUS
10
3.8289942125984253
20
-5.1219066141732279
11
3.8290040944881887
21
-5.1219317716535429
0
LINE
8
Edge.Cuts
6
CONTINUOUS
10
3.8290040944881887
20
-5.1219317716535429
11
3.8290215354330708
21
-5.1219526377952755
0
LINE
8
Edge.Cuts
6
CONTINUOUS
10
3.8290215354330708
20
-5.1219526377952755
11
3.8310425196850395
21
-5.1256538188976375
0
LINE
8
Edge.Cuts
6
CONTINUOUS
10
3.8310425196850395
20
-5.1256538188976375
11
3.8310506299212599
21
-5.1256797244094487
0
LINE
8
Edge.Cuts
6
CONTINUOUS
10
3.8310506299212599
20
-5.1256797244094487
11
3.8310664566929131
21
-5.1257016929133856
0
LINE
8
Edge.Cuts
6
CONTINUOUS
10
3.8310664566929131
20
-5.1257016929133856
11
3.832818307086614
21
-5.1295375984251965
0
LINE
8
Edge.Cuts
6
CONTINUOUS
10
3.832818307086614
20
-5.1295375984251965
11
3.8328245275590551
21
-5.1295639763779528
0
LINE
8
Edge.Cuts
6
CONTINUOUS
10
3.8328245275590551
20
-5.1295639763779528
11
3.8328387795275591
21
-5.1295870472440948
0
LINE
8
Edge.Cuts
6
CONTINUOUS
10
3.8328387795275591
20
-5.1295870472440948
11
3.8343124409448817
21
-5.1335381496062995
0
LINE
8
Edge.Cuts
6
CONTINUOUS
10
3.8343124409448817
20
-5.1335381496062995
11
3.8343167716535431
21
-5.1335649212598424
0
LINE
8
Edge.Cuts
6
CONTINUOUS
10
3.8343167716535431
20
-5.1335649212598424
11
3.8343293307086612
21
-5.1335889370078736
0
LINE
8
Edge.Cuts
6
CONTINUOUS
10
3.8343293307086612
20
-5.1335889370078736
11
3.8355174409448818
21
-5.137635078740157
0
LINE
8
Edge.Cuts
6
CONTINUOUS
10
3.8355174409448818
20
-5.137635078740157
11
3.8355198425196848
21
-5.1376620078740158
0
LINE
8
Edge.Cuts
6
CONTINUOUS
10
3.8355198425196848
20
-5.1376620078740158
11
3.8355307086614174
21
-5.137686968503937
0
LINE
8
Edge.Cuts
6
CONTINUOUS
10
3.8355307086614174
20
-5.137686968503937
11
3.8364270472440944
21
-5.1418075590551178
0
LINE
8
Edge.Cuts
6
CONTINUOUS
10
3.8364270472440944
20
-5.1418075590551178
11
3.8364275196850395
21
-5.1418346850393704
0
LINE
8
Edge.Cuts
6
CONTINUOUS
10
3.8364275196850395
20
-5.1418346850393704
11
3.8364365354330707
21
-5.1418602362204719
0
LINE
8
Edge.Cuts
6
CONTINUOUS
10
3.8364365354330707
20
-5.1418602362204719
11
3.8370366929133857
21
-5.1460342913385828
0
LINE
8
Edge.Cuts
6
CONTINUOUS
10
3.8370366929133857
20
-5.1460342913385828
11
3.8370352362204723
21
-5.1460613779527558
0
LINE
8
Edge.Cuts
6
CONTINUOUS
10
3.8370352362204723
20
-5.1460613779527558
11
3.837042401574803
21
-5.1460875196850395
0
LINE
8
Edge.Cuts
6
CONTINUOUS
10
3.837042401574803
20
-5.1460875196850395
11
3.8373432283464566
21
-5.1502937401574798
0
LINE
8
Edge.Cuts
6
CONTINUOUS
10
3.8373432283464566
20
-5.1502937401574798
11
3.8373402362204723
21
-5.150317244094488
0
LINE
8
Edge.Cuts
6
CONTINUOUS
10
3.8373402362204723
20
-5.150317244094488
11
3.8373451181102363
21
-5.1503405511811025
0
LINE
8
Edge.Cuts
6
CONTINUOUS
10
3.8373451181102363
20
-5.1503405511811025
11
3.8373639370078738
21
-5.1524490551181099
0
LINE
8
Edge.Cuts
6
CONTINUOUS
10
3.8373639370078738
20
-5.1524490551181099
11
3.8373632677165355
21
-5.1524523622047242
0
LINE
8
Edge.Cuts
6
CONTINUOUS
10
3.8373632677165355
20
-5.1524523622047242
11
3.8373639763779526
21
-5.1524557480314961
0
LINE
8
Edge.Cuts
6
CONTINUOUS
10
3.8373639763779526
20
-5.1524557480314961
11
3.8373639763779526
21
-5.428046299212598
0
LINE
8
Edge.Cuts
6
CONTINUOUS
10
3.8373639763779526
20
-5.428046299212598
11
3.8373632677165355
21
-5.428049645669291
0
LINE
8
Edge.Cuts
6
CONTINUOUS
10
3.8373632677165355
20
-5.428049645669291
11
3.8373639370078738
21
-5.4280529921259841
0
LINE
8
Edge.Cuts
6
CONTINUOUS
10
3.8373639370078738
20
-5.4280529921259841
11
3.8373451181102363
21
-5.4301614960629916
0
LINE
8
Edge.Cuts
6
CONTINUOUS
10
3.8373451181102363
20
-5.4301614960629916
11
3.8373402362204723
21
-5.4301847637795273
0
LINE
8
Edge.Cuts
6
CONTINUOUS
10
3.8373402362204723
20
-5.4301847637795273
11
3.8373432283464566
21
-5.4302083070866143
0
LINE
8
Edge.Cuts
6
CONTINUOUS
10
3.8373432283464566
20
-5.4302083070866143
11
3.837042401574803
21
-5.4344145275590554
0
LINE
8
Edge.Cuts
6
CONTINUOUS
10
3.837042401574803
20
-5.4344145275590554
11
3.8370352362204723
21
-5.4344406299212595
0
LINE
8
Edge.Cuts
6
CONTINUOUS
10
3.8370352362204723
20
-5.4344406299212595
11
3.8370366929133857
21
-5.4344677559055121
0
LINE
8
Edge.Cuts
6
CONTINUOUS
10
3.8370366929133857
20
-5.4344677559055121
11
3.8364365354330707
21
-5.4386418110236221
0
LINE
8
Edge.Cuts
6
CONTINUOUS
10
3.8364365354330707
20
-5.4386418110236221
11
3.8364275196850395
21
-5.4386673228346458
0
LINE
8
Edge.Cuts
6
CONTINUOUS
10
3.8364275196850395
20
-5.4386673228346458
11
3.8364270472440944
21
-5.4386944881889763
0
LINE
8
Edge.Cuts
6
CONTINUOUS
10
3.8364270472440944
20
-5.4386944881889763
11
3.8355307086614174
21
-5.442815078740157
0
LINE
8
Edge.Cuts
6
CONTINUOUS
10
3.8355307086614174
20
-5.442815078740157
11
3.8355198425196848
21
-5.4428399999999995
0
LINE
8
Edge.Cuts
6
CONTINUOUS
10
3.8355198425196848
20
-5.4428399999999995
11
3.8355174409448818
21
-5.442866968503937
0
LINE
8
Edge.Cuts
6
CONTINUOUS
10
3.8355174409448818
20
-5.442866968503937
11
3.8343293307086612
21
-5.4469131102362205
0
LINE
8
Edge.Cuts
6
CONTINUOUS
10
3.8343293307086612
20
-5.4469131102362205
11
3.8343167716535431
21
-5.4469370866141729
0
LINE
8
Edge.Cuts
6
CONTINUOUS
10
3.8343167716535431
20
-5.4469370866141729
11
3.8343124409448817
21
-5.4469638976377954
0
LINE
8
Edge.Cuts
6
CONTINUOUS
10
3.8343124409448817
20
-5.4469638976377954
11
3.8328387795275591
21
-5.4509150000000002
0
LINE
8
Edge.Cuts
6
CONTINUOUS
10
3.8328387795275591
20
-5.4509150000000002
11
3.8328245275590551
21
-5.4509380314960625
0
LINE
8
Edge.Cuts
6
CONTINUOUS
10
3.8328245275590551
20
-5.4509380314960625
11
3.832818307086614
21
-5.4509644488188975
0
LINE
8
Edge.Cuts
6
CONTINUOUS
10
3.832818307086614
20
-5.4509644488188975
11
3.8310664566929131
21
-5.4548003543307084
0
LINE
8
Edge.Cuts
6
CONTINUOUS
10
3.8310664566929131
20
-5.4548003543307084
11
3.8310506299212599
21
-5.4548222834645665
0
LINE
8
Edge.Cuts
6
CONTINUOUS
10
3.8310506299212599
20
-5.4548222834645665
11
3.8310425196850395
21
-5.4548482283464566
0
LINE
8
Edge.Cuts
6
CONTINUOUS
10
3.8310425196850395
20
-5.4548482283464566
11
3.8290215354330708
21
-5.4585494094488185
0
LINE
8
Edge.Cuts
6
CONTINUOUS
10
3.8290215354330708
20
-5.4585494094488185
11
3.8290040944881887
21
-5.4585702362204724
0
LINE
8
Edge.Cuts
6
CONTINUOUS
10
3.8290040944881887
20
-5.4585702362204724
11
3.8289942125984253
21
-5.4585954330708661
0
LINE
8
Edge.Cuts
6
CONTINUOUS
10
3.8289942125984253
20
-5.4585954330708661
11
3.82671437007874
21
-5.4621429921259841
0
LINE
8
Edge.Cuts
6
CONTINUOUS
10
3.82671437007874
20
-5.4621429921259841
11
3.826695472440945
21
-5.4621625196850392
0
LINE
8
Edge.Cuts
6
CONTINUOUS
10
3.826695472440945
20
-5.4621625196850392
11
3.8266838188976378
21
-5.4621869685039366
0
LINE
8
Edge.Cuts
6
CONTINUOUS
10
3.8266838188976378
20
-5.4621869685039366
11
3.8241566535433069
21
-5.4655627952755905
0
LINE
8
Edge.Cuts
6
CONTINUOUS
10
3.8241566535433069
20
-5.4655627952755905
11
3.8241364960629922
21
-5.4655808661417318
0
LINE
8
Edge.Cuts
6
CONTINUOUS
10
3.8241364960629922
20
-5.4655808661417318
11
3.8241230708661416
21
-5.4656044881889763
0
LINE
8
Edge.Cuts
6
CONTINUOUS
10
3.8241230708661416
20
-5.4656044881889763
11
3.8213615748031495
21
-5.468791496062992
0
LINE
8
Edge.Cuts
6
CONTINUOUS
10
3.8213615748031495
20
-5.468791496062992
11
3.821340118110236
21
-5.468808149606299
0
LINE
8
Edge.Cuts
6
CONTINUOUS
10
3.821340118110236
20
-5.468808149606299
11
3.8213250787401574
21
-5.4688306692913384
0
LINE
8
Edge.Cuts
6
CONTINUOUS
10
3.8213250787401574
20
-5.4688306692913384
11
3.8183432283464565
21
-5.4718125196850389
0
LINE
8
Edge.Cuts
6
CONTINUOUS
10
3.8183432283464565
20
-5.4718125196850389
11
3.818320708661417
21
-5.4718275196850392
0
LINE
8
Edge.Cuts
6
CONTINUOUS
10
3.818320708661417
20
-5.4718275196850392
11
3.81830405511811
21
-5.4718490157480311
0
LINE
8
Edge.Cuts
6
CONTINUOUS
10
3.81830405511811
20
-5.4718490157480311
11
3.8151170472440943
21
-5.4746105118110231
0
LINE
8
Edge.Cuts
6
CONTINUOUS
10
3.8151170472440943
20
-5.4746105118110231
11
3.8150935039370077
21
-5.4746238976377954
0
LINE
8
Edge.Cuts
6
CONTINUOUS
10
3.8150935039370077
20
-5.4746238976377954
11
3.8150753937007873
21
-5.4746440944881885
0
LINE
8
Edge.Cuts
6
CONTINUOUS
10
3.8150753937007873
20
-5.4746440944881885
11
3.8116995275590551
21
-5.4771712598425193
0
LINE
8
Edge.Cuts
6
CONTINUOUS
10
3.8116995275590551
20
-5.4771712598425193
11
3.8116750787401572
21
-5.4771829133858265
0
LINE
8
Edge.Cuts
6
CONTINUOUS
10
3.8116750787401572
20
-5.4771829133858265
11
3.8116555511811021
21
-5.4772018110236216
0
LINE
8
Edge.Cuts
6
CONTINUOUS
10
3.8116555511811021
20
-5.4772018110236216
11
3.8081079921259842
21
-5.4794816535433073
0
LINE
8
Edge.Cuts
6
CONTINUOUS
10
3.8081079921259842
20
-5.4794816535433073
11
3.8080827952755905
21
-5.4794915354330707
0
LINE
8
Edge.Cuts
6
CONTINUOUS
10
3.8080827952755905
20
-5.4794915354330707
11
3.808061968503937
21
-5.4795089763779528
0
LINE
8
Edge.Cuts
6
CONTINUOUS
10
3.808061968503937
20
-5.4795089763779528
11
3.8043608267716533
21
-5.4815299212598427
0
LINE
8
Edge.Cuts
6
CONTINUOUS
10
3.8043608267716533
20
-5.4815299212598427
11
3.8043348818897638
21
-5.4815380314960631
0
LINE
8
Edge.Cuts
6
CONTINUOUS
10
3.8043348818897638
20
-5.4815380314960631
11
3.8043129527559056
21
-5.4815538582677164
0
LINE
8
Edge.Cuts
6
CONTINUOUS
10
3.8043129527559056
20
-5.4815538582677164
11
3.8004770472440943
21
-5.4833057086614172
0
LINE
8
Edge.Cuts
6
CONTINUOUS
10
3.8004770472440943
20
-5.4833057086614172
11
3.8004506692913385
21
-5.4833119291338583
0
LINE
8
Edge.Cuts
6
CONTINUOUS
10
3.8004506692913385
20
-5.4833119291338583
11
3.8004275590551182
21
-5.4833262204724411
0
LINE
8
Edge.Cuts
6
CONTINUOUS
10
3.8004275590551182
20
-5.4833262204724411
11
3.7964764566929134
21
-5.4847998818897636
0
LINE
8
Edge.Cuts
6
CONTINUOUS
10
3.7964764566929134
20
-5.4847998818897636
11
3.7964496456692913
21
-5.4848042125984247
0
LINE
8
Edge.Cuts
6
CONTINUOUS
10
3.7964496456692913
20
-5.4848042125984247
11
3.7964256692913385
21
-5.4848167716535432
0
LINE
8
Edge.Cuts
6
CONTINUOUS
10
3.7964256692913385
20
-5.4848167716535432
11
3.7923795275590551
21
-5.4860048425196846
0
LINE
8
Edge.Cuts
6
CONTINUOUS
10
3.7923795275590551
20
-5.4860048425196846
11
3.7923525984251967
21
-5.4860072440944885
0
LINE
8
Edge.Cuts
6
CONTINUOUS
10
3.7923525984251967
20
-5.4860072440944885
11
3.7923276771653542
21
-5.4860181102362207
0
LINE
8
Edge.Cuts
6
CONTINUOUS
10
3.7923276771653542
20
-5.4860181102362207
11
3.7882070472440943
21
-5.486914488188976
0
LINE
8
Edge.Cuts
6
CONTINUOUS
10
3.7882070472440943
20
-5.486914488188976
11
3.7881798818897638
21
-5.486914960629921
0
LINE
8
Edge.Cuts
6
CONTINUOUS
10
3.7881798818897638
20
-5.486914960629921
11
3.7881543700787401
21
-5.4869239763779527
0
LINE
8
Edge.Cuts
6
CONTINUOUS
10
3.7881543700787401
20
-5.4869239763779527
11
3.7839803149606297
21
-5.4875241338582672
0
LINE
8
Edge.Cuts
6
CONTINUOUS
10
3.7839803149606297
20
-5.4875241338582672
11
3.783953188976378
21
-5.4875226771653542
0
LINE
8
Edge.Cuts
6
CONTINUOUS
10
3.783953188976378
20
-5.4875226771653542
11
3.783927086614173
21
-5.4875298425196846
0
LINE
8
Edge.Cuts
6
CONTINUOUS
10
3.783927086614173
20
-5.4875298425196846
11
3.7797208661417323
21
-5.4878306692913386
0
LINE
8
Edge.Cuts
6
CONTINUOUS
10
3.7797208661417323
20
-5.4878306692913386
11
3.7796973228346458
21
-5.4878276771653542
0
LINE
8
Edge.Cuts
6
CONTINUOUS
10
3.7796973228346458
20
-5.4878276771653542
11
3.7796740551181101
21
-5.4878325590551178
0
LINE
8
Edge.Cuts
6
CONTINUOUS
10
3.7796740551181101
20
-5.4878325590551178
11
3.7775655118110234
21
-5.4878513779527553
0
LINE
8
Edge.Cuts
6
CONTINUOUS
10
3.7775655118110234
20
-5.4878513779527553
11
3.7775621653543308
21
-5.4878507086614174
0
LINE
8
Edge.Cuts
6
CONTINUOUS
10
3.7775621653543308
20
-5.4878507086614174
11
3.7775588188976377
21
-5.4878514173228341
0
LINE
8
Edge.Cuts
6
CONTINUOUS
10
3.7775588188976377
20
-5.4878514173228341
11
3.7381888188976378
21
-5.4878514173228341
0
LINE
8
Edge.Cuts
6
CONTINUOUS
10
3.7381888188976378
20
-5.4878514173228341
11
3.7381854330708659
21
-5.4878507086614174
0
LINE
8
Edge.Cuts
6
CONTINUOUS
10
3.7381854330708659
20
-5.4878507086614174
11
3.738182125984252
21
-5.4878513779527553
0
LINE
8
Edge.Cuts
6
CONTINUOUS
10
3.738182125984252
20
-5.4878513779527553
11
3.7360735826771654
21
-5.4878325590551178
0
LINE
8
Edge.Cuts
6
CONTINUOUS
10
3.7360735826771654
20
-5.4878325590551178
11
3.7360502755905509
21
-5.4878276771653542
0
LINE
8
Edge.Cuts
6
CONTINUOUS
10
3.7360502755905509
20
-5.4878276771653542
11
3.7360267716535431
21
-5.4878306692913386
0
LINE
8
Edge.Cuts
6
CONTINUOUS
10
3.7360267716535431
20
-5.4878306692913386
11
3.7318205511811025
21
-5.4875298425196846
0
LINE
8
Edge.Cuts
6
CONTINUOUS
10
3.7318205511811025
20
-5.4875298425196846
11
3.7317944094488187
21
-5.4875226771653542
0
LINE
8
Edge.Cuts
6
CONTINUOUS
10
3.7317944094488187
20
-5.4875226771653542
11
3.7317673228346457
21
-5.4875241338582672
0
LINE
8
Edge.Cuts
6
CONTINUOUS
10
3.7317673228346457
20
-5.4875241338582672
11
3.7275932677165353
21
-5.4869239763779527
0
LINE
8
Edge.Cuts
6
CONTINUOUS
10
3.7275932677165353
20
-5.4869239763779527
11
3.7275677165354328
21
-5.486914960629921
0
LINE
8
Edge.Cuts
6
CONTINUOUS
10
3.7275677165354328
20
-5.486914960629921
11
3.7275405905511811
21
-5.486914488188976
0
LINE
8
Edge.Cuts
6
CONTINUOUS
10
3.7275405905511811
20
-5.486914488188976
11
3.72342
21
-5.4860181102362207
0
LINE
8
Edge.Cuts
6
CONTINUOUS
10
3.72342
20
-5.4860181102362207
11
3.7233950393700788
21
-5.4860072440944885
0
LINE
8
Edge.Cuts
6
CONTINUOUS
10
3.7233950393700788
20
-5.4860072440944885
11
3.7233681102362204
21
-5.4860048425196846
0
LINE
8
Edge.Cuts
6
CONTINUOUS
10
3.7233681102362204
20
-5.4860048425196846
11
3.7193219685039369
21
-5.4848167716535432
0
LINE
8
Edge.Cuts
6
CONTINUOUS
10
3.7193219685039369
20
-5.4848167716535432
11
3.7192979527559054
21
-5.4848042125984247
0
LINE
8
Edge.Cuts
6
CONTINUOUS
10
3.7192979527559054
20
-5.4848042125984247
11
3.719271181102362
21
-5.4847998818897636
0
LINE
8
Edge.Cuts
6
CONTINUOUS
10
3.719271181102362
20
-5.4847998818897636
11
3.7153200787401572
21
-5.4833262204724411
0
LINE
8
Edge.Cuts
6
CONTINUOUS
10
3.7153200787401572
20
-5.4833262204724411
11
3.7152969291338582
21
-5.4833119291338583
0
LINE
8
Edge.Cuts
6
CONTINUOUS
10
3.7152969291338582
20
-5.4833119291338583
11
3.7152705905511811
21
-5.4833057086614172
0
LINE
8
Edge.Cuts
6
CONTINUOUS
10
3.7152705905511811
20
-5.4833057086614172
11
3.7114346850393698
21
-5.4815538582677164
0
LINE
8
Edge.Cuts
6
CONTINUOUS
10
3.7114346850393698
20
-5.4815538582677164
11
3.7114127165354329
21
-5.4815379921259844
0
LINE
8
Edge.Cuts
6
CONTINUOUS
10
3.7114127165354329
20
-5.4815379921259844
11
3.7113868503937009
21
-5.4815299212598427
0
LINE
8
Edge.Cuts
6
CONTINUOUS
10
3.7113868503937009
20
-5.4815299212598427
11
3.7076856692913385
21
-5.4795089763779528
0
LINE
8
Edge.Cuts
6
CONTINUOUS
10
3.7076856692913385
20
-5.4795089763779528
11
3.7076648031496062
21
-5.4794915354330707
0
LINE
8
Edge.Cuts
6
CONTINUOUS
10
3.7076648031496062
20
-5.4794915354330707
11
3.7076396456692913
21
-5.4794816535433073
0
LINE
8
Edge.Cuts
6
CONTINUOUS
10
3.7076396456692913
20
-5.4794816535433073
11
3.7040920866141733
21
-5.4772018110236216
0
LINE
8
Edge.Cuts
6
CONTINUOUS
10
3.7040920866141733
20
-5.4772018110236216
11
3.7040725196850395
21
-5.4771829133858265
0
LINE
8
Edge.Cuts
6
CONTINUOUS
10
3.7040725196850395
20
-5.4771829133858265
11
3.7040481102362204
21
-5.4771712598425193
0
LINE
8
Edge.Cuts
6
CONTINUOUS
10
3.7040481102362204
20
-5.4771712598425193
11
3.7006722834645669
21
-5.4746440944881885
0
LINE
8
Edge.Cuts
6
CONTINUOUS
10
3.7006722834645669
20
-5.4746440944881885
11
3.7006541732283464
21
-5.4746239370078742
0
LINE
8
Edge.Cuts
6
CONTINUOUS
10
3.7006541732283464
20
-5.4746239370078742
11
3.7006305905511812
21
-5.4746105118110231
0
LINE
8
Edge.Cuts
6
CONTINUOUS
10
3.7006305905511812
20
-5.4746105118110231
11
3.6974435826771654
21
-5.4718490157480311
0
LINE
8
Edge.Cuts
6
CONTINUOUS
10
3.6974435826771654
20
-5.4718490157480311
11
3.6974268897637796
21
-5.471827559055118
0
LINE
8
Edge.Cuts
6
CONTINUOUS
10
3.6974268897637796
20
-5.471827559055118
11
3.697404409448819
21
-5.4718125196850389
0
LINE
8
Edge.Cuts
6
CONTINUOUS
10
3.697404409448819
20
-5.4718125196850389
11
3.6944225590551181
21
-5.4688306692913384
0
LINE
8
Edge.Cuts
6
CONTINUOUS
10
3.6944225590551181
20
-5.4688306692913384
11
3.6944075196850394
21
-5.468808149606299
0
LINE
8
Edge.Cuts
6
CONTINUOUS
10
3.6944075196850394
20
-5.468808149606299
11
3.6943860629921259
21
-5.468791496062992
0
LINE
8
Edge.Cuts
6
CONTINUOUS
10
3.6943860629921259
20
-5.468791496062992
11
3.6916245669291339
21
-5.4656044881889763
0
LINE
8
Edge.Cuts
6
CONTINUOUS
10
3.6916245669291339
20
-5.4656044881889763
11
3.6916111417322832
21
-5.4655809448818893
0
LINE
8
Edge.Cuts
6
CONTINUOUS
10
3.6916111417322832
20
-5.4655809448818893
11
3.6915909842519685
21
-5.4655628346456693
0
LINE
8
Edge.Cuts
6
CONTINUOUS
10
3.6915909842519685
20
-5.4655628346456693
11
3.6890638188976377
21
-5.4621869685039366
0
LINE
8
Edge.Cuts
6
CONTINUOUS
10
3.6890638188976377
20
-5.4621869685039366
11
3.6890521259842517
21
-5.4621625196850392
0
LINE
8
Edge.Cuts
6
CONTINUOUS
10
3.6890521259842517
20
-5.4621625196850392
11
3.6890332677165354
21
-5.4621429921259841
0
LINE
8
Edge.Cuts
6
CONTINUOUS
10
3.6890332677165354
20
-5.4621429921259841
11
3.6867534251968501
21
-5.4585954330708661
0
LINE
8
Edge.Cuts
6
CONTINUOUS
10
3.6867534251968501
20
-5.4585954330708661
11
3.686743503937008
21
-5.4585702362204724
0
LINE
8
Edge.Cuts
6
CONTINUOUS
10
3.686743503937008
20
-5.4585702362204724
11
3.6867261023622047
21
-5.4585494094488185
0
LINE
8
Edge.Cuts
6
CONTINUOUS
10
3.6867261023622047
20
-5.4585494094488185
11
3.6847051181102359
21
-5.4548482283464566
0
LINE
8
Edge.Cuts
6
CONTINUOUS
10
3.6847051181102359
20
-5.4548482283464566
11
3.6846969685039368
21
-5.4548222834645665
0
LINE
8
Edge.Cuts
6
CONTINUOUS
10
3.6846969685039368
20
-5.4548222834645665
11
3.6846811811023623
21
-5.4548003543307084
0
LINE
8
Edge.Cuts
6
CONTINUOUS
10
3.6846811811023623
20
-5.4548003543307084
11
3.6829293700787402
21
-5.4509644881889763
0
LINE
8
Edge.Cuts
6
CONTINUOUS
10
3.6829293700787402
20
-5.4509644881889763
11
3.6829231102362203
21
-5.45093811023622
0
LINE
8
Edge.Cuts
6
CONTINUOUS
10
3.6829231102362203
20
-5.45093811023622
11
3.6829088582677163
21
-5.4509150000000002
0
LINE
8
Edge.Cuts
6
CONTINUOUS
10
3.6829088582677163
20
-5.4509150000000002
11
3.6814351968503938
21
-5.4469638976377954
0
LINE
8
Edge.Cuts
6
CONTINUOUS
10
3.6814351968503938
20
-5.4469638976377954
11
3.6814308267716536
21
-5.4469370866141729
0
LINE
8
Edge.Cuts
6
CONTINUOUS
10
3.6814308267716536
20
-5.4469370866141729
11
3.6814183070866142
21
-5.4469131102362205
0
LINE
8
Edge.Cuts
6
CONTINUOUS
10
3.6814183070866142
20
-5.4469131102362205
11
3.6802301968503937
21
-5.442866968503937
0
LINE
8
Edge.Cuts
6
CONTINUOUS
10
3.6802301968503937
20
-5.442866968503937
11
3.6802277559055119
21
-5.4428400393700782
0
LINE
8
Edge.Cuts
6
CONTINUOUS
10
3.6802277559055119
20
-5.4428400393700782
11
3.680216929133858
21
-5.4428151181102358
0
LINE
8
Edge.Cuts
6
CONTINUOUS
10
3.680216929133858
20
-5.4428151181102358
11
3.679320590551181
21
-5.4386944881889763
0
LINE
8
Edge.Cuts
6
CONTINUOUS
10
3.679320590551181
20
-5.4386944881889763
11
3.6793200787401572
21
-5.4386673228346458
0
LINE
8
Edge.Cuts
6
CONTINUOUS
10
3.6793200787401572
20
-5.4386673228346458
11
3.6793111023622047
21
-5.4386418110236221
0
LINE
8
Edge.Cuts
6
CONTINUOUS
10
3.6793111023622047
20
-5.4386418110236221
11
3.6787109448818898
21
-5.4344677559055121
0
LINE
8
Edge.Cuts
6
CONTINUOUS
10
3.6787109448818898
20
-5.4344677559055121
11
3.6787123622047244
21
-5.4344406299212595
0
LINE
8
Edge.Cuts
6
CONTINUOUS
10
3.6787123622047244
20
-5.4344406299212595
11
3.6787052362204724
21
-5.4344145275590554
0
LINE
8
Edge.Cuts
6
CONTINUOUS
10
3.6787052362204724
20
-5.4344145275590554
11
3.6784044094488189
21
-5.4302083070866143
0
LINE
8
Edge.Cuts
6
CONTINUOUS
10
3.6784044094488189
20
-5.4302083070866143
11
3.6784073622047244
21
-5.4301847637795273
0
LINE
8
Edge.Cuts
6
CONTINUOUS
10
3.6784073622047244
20
-5.4301847637795273
11
3.6784025196850392
21
-5.4301614960629916
0
LINE
8
Edge.Cuts
6
CONTINUOUS
10
3.6784025196850392
20
-5.4301614960629916
11
3.6783837007874016
21
-5.4280529921259841
0
LINE
8
Edge.Cuts
6
CONTINUOUS
10
3.6783837007874016
20
-5.4280529921259841
11
3.6783843307086612
21
-5.428049645669291
0
LINE
8
Edge.Cuts
6
CONTINUOUS
10
3.6783843307086612
20
-5.428049645669291
11
3.6783836614173229
21
-5.428046299212598
0
LINE
8
Edge.Cuts
6
CONTINUOUS
10
3.6783836614173229
20
-5.428046299212598
11
3.6783836614173229
21
-5.1524557480314961
0
LINE
8
Edge.Cuts
6
CONTINUOUS
10
3.6783836614173229
20
-5.1524557480314961
11
3.6783843307086612
21
-5.1524523622047242
0
LINE
8
Edge.Cuts
6
CONTINUOUS
10
3.6783843307086612
20
-5.1524523622047242
11
3.6783837007874016
21
-5.1524490551181099
0
LINE
8
Edge.Cuts
6
CONTINUOUS
10
3.6783837007874016
20
-5.1524490551181099
11
3.6784025196850392
21
-5.1503405511811025
0
LINE
8
Edge.Cuts
6
CONTINUOUS
10
3.6784025196850392
20
-5.1503405511811025
11
3.6784073622047244
21
-5.150317244094488
0
LINE
8
Edge.Cuts
6
CONTINUOUS
10
3.6784073622047244
20
-5.150317244094488
11
3.6784044094488189
21
-5.1502937401574798
0
LINE
8
Edge.Cuts
6
CONTINUOUS
10
3.6784044094488189
20
-5.1502937401574798
11
3.6787052362204724
21
-5.1460875196850395
0
LINE
8
Edge.Cuts
6
CONTINUOUS
10
3.6787052362204724
20
-5.1460875196850395
11
3.6787123622047244
21
-5.1460613779527558
0
LINE
8
Edge.Cuts
6
CONTINUOUS
10
3.6787123622047244
20
-5.1460613779527558
11
3.6787109448818898
21
-5.1460342913385828
0
LINE
8
Edge.Cuts
6
CONTINUOUS
10
3.6787109448818898
20
-5.1460342913385828
11
3.6793111023622047
21
-5.1418602362204719
0
LINE
8
Edge.Cuts
6
CONTINUOUS
10
3.6793111023622047
20
-5.1418602362204719
11
3.6793200787401572
21
-5.1418346850393704
0
LINE
8
Edge.Cuts
6
CONTINUOUS
10
3.6793200787401572
20
-5.1418346850393704
11
3.679320590551181
21
-5.1418075590551178
0
LINE
8
Edge.Cuts
6
CONTINUOUS
10
3.679320590551181
20
-5.1418075590551178
11
3.680216929133858
21
-5.1376869291338583
0
LINE
8
Edge.Cuts
6
CONTINUOUS
10
3.680216929133858
20
-5.1376869291338583
11
3.6802277559055119
21
-5.1376619685039371
0
LINE
8
Edge.Cuts
6
CONTINUOUS
10
3.6802277559055119
20
-5.1376619685039371
11
3.6802301968503937
21
-5.137635078740157
0
LINE
8
Edge.Cuts
6
CONTINUOUS
10
3.6802301968503937
20
-5.137635078740157
11
3.6814183070866142
21
-5.1335889370078736
0
LINE
8
Edge.Cuts
6
CONTINUOUS
10
3.6814183070866142
20
-5.1335889370078736
11
3.6814308267716536
21
-5.1335649212598424
0
LINE
8
Edge.Cuts
6
CONTINUOUS
10
3.6814308267716536
20
-5.1335649212598424
11
3.6814351968503938
21
-5.1335381496062995
0
LINE
8
Edge.Cuts
6
CONTINUOUS
10
3.6814351968503938
20
-5.1335381496062995
11
3.6829088582677163
21
-5.1295870472440948
0
LINE
8
Edge.Cuts
6
CONTINUOUS
10
3.6829088582677163
20
-5.1295870472440948
11
3.6829231102362203
21
-5.1295638976377953
0
LINE
8
Edge.Cuts
6
CONTINUOUS
10
3.6829231102362203
20
-5.1295638976377953
11
3.6829293700787402
21
-5.1295375590551178
0
LINE
8
Edge.Cuts
6
CONTINUOUS
10
3.6829293700787402
20
-5.1295375590551178
11
3.6846811811023623
21
-5.1257016929133856
0
LINE
8
Edge.Cuts
6
CONTINUOUS
10
3.6846811811023623
20
-5.1257016929133856
11
3.6846969685039368
21
-5.1256797244094487
0
LINE
8
Edge.Cuts
6
CONTINUOUS
10
3.6846969685039368
20
-5.1256797244094487
11
3.6847051181102359
21
-5.1256538188976375
0
LINE
8
Edge.Cuts
6
CONTINUOUS
10
3.6847051181102359
20
-5.1256538188976375
11
3.6867261023622047
21
-5.1219526377952755
0
LINE
8
Edge.Cuts
6
CONTINUOUS
10
3.6867261023622047
20
-5.1219526377952755
11
3.686743503937008
21
-5.1219317716535429
0
LINE
8
Edge.Cuts
6
CONTINUOUS
10
3.686743503937008
20
-5.1219317716535429
11
3.6867534251968501
21
-5.1219066141732279
0
LINE
8
Edge.Cuts
6
CONTINUOUS
10
3.6867534251968501
20
-5.1219066141732279
11
3.6890332677165354
21
-5.11835905511811
0
LINE
8
Edge.Cuts
6
CONTINUOUS
10
3.6890332677165354
20
-5.11835905511811
11
3.6890521259842517
21
-5.1183394881889761
0
LINE
8
Edge.Cuts
6
CONTINUOUS
10
3.6890521259842517
20
-5.1183394881889761
11
3.6890638188976377
21
-5.1183150787401575
0
LINE
8
Edge.Cuts
6
CONTINUOUS
10
3.6890638188976377
20
-5.1183150787401575
11
3.6915909842519685
21
-5.1149392125984248
0
LINE
8
Edge.Cuts
6
CONTINUOUS
10
3.6915909842519685
20
-5.1149392125984248
11
3.6916111417322832
21
-5.114921062992126
0
LINE
8
Edge.Cuts
6
CONTINUOUS
10
3.6916111417322832
20
-5.114921062992126
11
3.6916245669291339
21
-5.1148975590551178
0
LINE
8
Edge.Cuts
6
CONTINUOUS
10
3.6916245669291339
20
-5.1148975590551178
11
3.6943860629921259
21
-5.1117105511811021
0
LINE
8
Edge.Cuts
6
CONTINUOUS
10
3.6943860629921259
20
-5.1117105511811021
11
3.6944075196850394
21
-5.1116938582677163
0
LINE
8
Edge.Cuts
6
CONTINUOUS
10
3.6944075196850394
20
-5.1116938582677163
11
3.6944225590551181
21
-5.1116713779527556
0
LINE
8
Edge.Cuts
6
CONTINUOUS
10
3.6944225590551181
20
-5.1116713779527556
11
3.697404409448819
21
-5.1086895275590551
0
LINE
8
Edge.Cuts
6
CONTINUOUS
10
3.697404409448819
20
-5.1086895275590551
11
3.6974268897637796
21
-5.1086744488188973
0
LINE
8
Edge.Cuts
6
CONTINUOUS
10
3.6974268897637796
20
-5.1086744488188973
11
3.6974435826771654
21
-5.108653031496063
0
LINE
8
Edge.Cuts
6
CONTINUOUS
10
3.6974435826771654
20
-5.108653031496063
11
3.7006305905511812
21
-5.1058915354330709
0
LINE
8
Edge.Cuts
6
CONTINUOUS
10
3.7006305905511812
20
-5.1058915354330709
11
3.7006541732283464
21
-5.105878070866142
0
LINE
8
Edge.Cuts
6
CONTINUOUS
10
3.7006541732283464
20
-5.105878070866142
11
3.7006722834645669
21
-5.1058579527559056
0
LINE
8
Edge.Cuts
6
CONTINUOUS
10
3.7006722834645669
20
-5.1058579527559056
11
3.7040481102362204
21
-5.1033307874015748
0
LINE
8
Edge.Cuts
6
CONTINUOUS
10
3.7040481102362204
20
-5.1033307874015748
11
3.7040725196850395
21
-5.1033190944881888
0
LINE
8
Edge.Cuts
6
CONTINUOUS
10
3.7040725196850395
20
-5.1033190944881888
11
3.7040920866141733
21
-5.1033002362204725
0
LINE
8
Edge.Cuts
6
CONTINUOUS
10
3.7040920866141733
20
-5.1033002362204725
11
3.7076396456692913
21
-5.1010203937007876
0
LINE
8
Edge.Cuts
6
CONTINUOUS
10
3.7076396456692913
20
-5.1010203937007876
11
3.7076648031496062
21
-5.1010104724409446
0
LINE
8
Edge.Cuts
6
CONTINUOUS
10
3.7076648031496062
20
-5.1010104724409446
11
3.7076856692913385
21
-5.1009930708661413
0
LINE
8
Edge.Cuts
6
CONTINUOUS
10
3.7076856692913385
20
-5.1009930708661413
11
3.7113868503937009
21
-5.0989721259842522
0
LINE
8
Edge.Cuts
6
CONTINUOUS
10
3.7113868503937009
20
-5.0989721259842522
11
3.7114127165354329
21
-5.0989640157480318
0
LINE
8
Edge.Cuts
6
CONTINUOUS
10
3.7114127165354329
20
-5.0989640157480318
11
3.7114346850393698
21
-5.0989481889763777
0
LINE
8
Edge.Cuts
6
CONTINUOUS
10
3.7114346850393698
20
-5.0989481889763777
11
3.7152705905511811
21
-5.0971963385826768
0
LINE
8
Edge.Cuts
6
CONTINUOUS
10
3.7152705905511811
20
-5.0971963385826768
11
3.7152969291338582
21
-5.0971900787401569
0
LINE
8
Edge.Cuts
6
CONTINUOUS
10
3.7152969291338582
20
-5.0971900787401569
11
3.7153200787401572
21
-5.0971758267716538
0
LINE
8
Edge.Cuts
6
CONTINUOUS
10
3.7153200787401572
20
-5.0971758267716538
11
3.719271181102362
21
-5.0957021653543304
0
LINE
8
Edge.Cuts
6
CONTINUOUS
10
3.719271181102362
20
-5.0957021653543304
11
3.7192979527559054
21
-5.0956977952755906
0
LINE
8
Edge.Cuts
6
CONTINUOUS
10
3.7192979527559054
20
-5.0956977952755906
11
3.7193219685039369
21
-5.0956852755905508
0
LINE
8
Edge.Cuts
6
CONTINUOUS
10
3.7193219685039369
20
-5.0956852755905508
11
3.7233681102362204
21
-5.0944972047244095
0
LINE
8
Edge.Cuts
6
CONTINUOUS
10
3.7233681102362204
20
-5.0944972047244095
11
3.7233950393700788
21
-5.0944947637795277
0
LINE
8
Edge.Cuts
6
CONTINUOUS
10
3.7233950393700788
20
-5.0944947637795277
11
3.72342
21
-5.0944839370078743
0
LINE
8
Edge.Cuts
6
CONTINUOUS
10
3.72342
20
-5.0944839370078743
11
3.7275405905511811
21
-5.0935875590551181
0
LINE
8
Edge.Cuts
6
CONTINUOUS
10
3.7275405905511811
20
-5.0935875590551181
11
3.7275677165354328
21
-5.0935870472440943
0
LINE
8
Edge.Cuts
6
CONTINUOUS
10
3.7275677165354328
20
-5.0935870472440943
11
3.7275932677165353
21
-5.0935780708661413
0
LINE
8
Edge.Cuts
6
CONTINUOUS
10
3.7275932677165353
20
-5.0935780708661413
11
3.7317673228346457
21
-5.0929779133858268
0
LINE
8
Edge.Cuts
6
CONTINUOUS
10
3.7317673228346457
20
-5.0929779133858268
11
3.7317944094488187
21
-5.092979330708661
0
LINE
8
Edge.Cuts
6
CONTINUOUS
10
3.7317944094488187
20
-5.092979330708661
11
3.7318205511811025
21
-5.0929722047244095
0
LINE
8
Edge.Cuts
6
CONTINUOUS
10
3.7318205511811025
20
-5.0929722047244095
11
3.7360267716535431
21
-5.0926713779527555
0
LINE
8
Edge.Cuts
6
CONTINUOUS
10
3.7360267716535431
20
-5.0926713779527555
11
3.7360502755905509
21
-5.092674330708661
0
LINE
8
Edge.Cuts
6
CONTINUOUS
10
3.7360502755905509
20
-5.092674330708661
11
3.7360735826771654
21
-5.0926694881889762
0
LINE
8
Edge.Cuts
6
CONTINUOUS
10
3.7360735826771654
20
-5.0926694881889762
11
3.738182125984252
21
-5.0926506692913387
0
LINE
8
Edge.Cuts
6
CONTINUOUS
10
3.738182125984252
20
-5.0926506692913387
11
3.7381854330708659
21
-5.0926512992125987
0
LINE
8
Edge.Cuts
6
CONTINUOUS
10
3.7381854330708659
20
-5.0926512992125987
11
3.7381888188976378
21
-5.0926506299212599
0
LINE
8
Edge.Cuts
6
CONTINUOUS
10
3.7381888188976378
20
-5.0926506299212599
11
3.7775588188976377
21
-5.0926506299212599
0
LINE
8
Edge.Cuts
6
CONTINUOUS
10
3.7775588188976377
20
-5.0926506299212599
11
3.7775621653543308
21
-5.0926512992125987
0
LINE
8
Edge.Cuts
6
CONTINUOUS
10
3.7381911023622045
20
-5.09415062992126
11
3.7361102362204726
21
-5.0941691732283463
0
LINE
8
Edge.Cuts
6
CONTINUOUS
10
3.7361102362204726
20
-5.0941691732283463
11
3.7319544488188976
21
-5.0944664173228347
0
LINE
8
Edge.Cuts
6
CONTINUOUS
10
3.7319544488188976
20
-5.0944664173228347
11
3.7278335433070864
21
-5.0950588976377951
0
LINE
8
Edge.Cuts
6
CONTINUOUS
10
3.7278335433070864
20
-5.0950588976377951
11
3.7237646850393702
21
-5.0959440551181103
0
LINE
8
Edge.Cuts
6
CONTINUOUS
10
3.7237646850393702
20
-5.0959440551181103
11
3.7197704330708659
21
-5.0971168897637797
0
LINE
8
Edge.Cuts
6
CONTINUOUS
10
3.7197704330708659
20
-5.0971168897637797
11
3.7158691732283464
21
-5.0985719291338585
0
LINE
8
Edge.Cuts
6
CONTINUOUS
10
3.7158691732283464
20
-5.0985719291338585
11
3.7120824803149604
21
-5.1003012992125987
0
LINE
8
Edge.Cuts
6
CONTINUOUS
10
3.7120824803149604
20
-5.1003012992125987
11
3.7084278740157481
21
-5.1022968503937003
0
LINE
8
Edge.Cuts
6
CONTINUOUS
10
3.7084278740157481
20
-5.1022968503937003
11
3.7049256692913386
21
-5.1045475590551179
0
LINE
8
Edge.Cuts
6
CONTINUOUS
10
3.7049256692913386
20
-5.1045475590551179
11
3.7015927559055117
21
-5.1070425590551176
0
LINE
8
Edge.Cuts
6
CONTINUOUS
10
3.7015927559055117
20
-5.1070425590551176
11
3.6984459055118108
21
-5.1097692519685038
0
LINE
8
Edge.Cuts
6
CONTINUOUS
10
3.6984459055118108
20
-5.1097692519685038
11
3.6955022834645668
21
-5.1127128740157479
0
LINE
8
Edge.Cuts
6
CONTINUOUS
10
3.6955022834645668
20
-5.1127128740157479
11
3.692775590551181
21
-5.1158597244094484
0
LINE
8
Edge.Cuts
6
CONTINUOUS
10
3.692775590551181
20
-5.1158597244094484
11
3.6902807480314959
21
-5.119192362204724
0
LINE
8
Edge.Cuts
6
CONTINUOUS
10
3.6902807480314959
20
-5.119192362204724
11
3.6880298818897637
21
-5.1226948425196852
0
LINE
8
Edge.Cuts
6
CONTINUOUS
10
3.6880298818897637
20
-5.1226948425196852
11
3.6860344488188974
21
-5.1263492519685041
0
LINE
8
Edge.Cuts
6
CONTINUOUS
10
3.6860344488188974
20
-5.1263492519685041
11
3.684304960629921
21
-5.1301361417322831
0
LINE
8
Edge.Cuts
6
CONTINUOUS
10
3.684304960629921
20
-5.1301361417322831
11
3.6828499212598422
21
-5.1340374015748029
0
LINE
8
Edge.Cuts
6
CONTINUOUS
10
3.6828499212598422
20
-5.1340374015748029
11
3.6816770472440945
21
-5.1380316535433073
0
LINE
8
Edge.Cuts
6
CONTINUOUS
10
3.6816770472440945
20
-5.1380316535433073
11
3.6807919685039368
21
-5.1421003937007876
0
LINE
8
Edge.Cuts
6
CONTINUOUS
10
3.6807919685039368
20
-5.1421003937007876
11
3.6801994488188976
21
-5.1462214173228347
0
LINE
8
Edge.Cuts
6
CONTINUOUS
10
3.6801994488188976
20
-5.1462214173228347
11
3.6799022047244092
21
-5.1503772047244096
0
LINE
8
Edge.Cuts
6
CONTINUOUS
10
3.6799022047244092
20
-5.1503772047244096
11
3.6798836614173229
21
-5.1524579921259841
0
LINE
8
Edge.Cuts
6
CONTINUOUS
10
3.6798836614173229
20
-5.1524579921259841
11
3.6798836614173229
21
-5.4280440157480312
0
LINE
8
Edge.Cuts
6
CONTINUOUS
10
3.6798836614173229
20
-5.4280440157480312
11
3.6799022047244092
21
-5.4301248031496065
0
LINE
8
Edge.Cuts
6
CONTINUOUS
10
3.6799022047244092
20
-5.4301248031496065
11
3.6801994488188976
21
-5.4342805905511806
0
LINE
8
Edge.Cuts
6
CONTINUOUS
10
3.6801994488188976
20
-5.4342805905511806
11
3.6807919685039368
21
-5.4384016141732285
0
LINE
8
Edge.Cuts
6
CONTINUOUS
10
3.6807919685039368
20
-5.4384016141732285
11
3.6816770472440945
21
-5.4424703543307089
0
LINE
8
Edge.Cuts
6
CONTINUOUS
10
3.6816770472440945
20
-5.4424703543307089
11
3.6828499212598422
21
-5.4464646062992124
0
LINE
8
Edge.Cuts
6
CONTINUOUS
10
3.6828499212598422
20
-5.4464646062992124
11
3.684304960629921
21
-5.4503658661417322
0
LINE
8
Edge.Cuts
6
CONTINUOUS
10
3.684304960629921
20
-5.4503658661417322
11
3.6860344488188974
21
-5.4541527559055121
0
LINE
8
Edge.Cuts
6
CONTINUOUS
10
3.6860344488188974
20
-5.4541527559055121
11
3.6880298818897637
21
-5.457807165354331
0
LINE
8
Edge.Cuts
6
CONTINUOUS
10
3.6880298818897637
20
-5.457807165354331
11
3.6902807480314959
21
-5.4613096456692913
0
LINE
8
Edge.Cuts
6
CONTINUOUS
10
3.6902807480314959
20
-5.4613096456692913
11
3.692775590551181
21
-5.4646422834645669
0
LINE
8
Edge.Cuts
6
CONTINUOUS
10
3.692775590551181
20
-5.4646422834645669
11
3.6955022834645668
21
-5.4677891338582674
0
LINE
8
Edge.Cuts
6
CONTINUOUS
10
3.6955022834645668
20
-5.4677891338582674
11
3.6984459055118108
21
-5.4707327559055114
0
LINE
8
Edge.Cuts
6
CONTINUOUS
10
3.6984459055118108
20
-5.4707327559055114
11
3.7015927559055117
21
-5.4734594488188977
0
LINE
8
Edge.Cuts
6
CONTINUOUS
10
3.7015927559055117
20
-5.4734594488188977
11
3.7049256692913386
21
-5.4759544488188974
0
LINE
8
Edge.Cuts
6
CONTINUOUS
10
3.7049256692913386
20
-5.4759544488188974
11
3.7084278740157481
21
-5.478205157480315
0
LINE
8
Edge.Cuts
6
CONTINUOUS
10
3.7084278740157481
20
-5.478205157480315
11
3.7120824803149604
21
-5.4802007086614175
0
LINE
8
Edge.Cuts
6
CONTINUOUS
10
3.7120824803149604
20
-5.4802007086614175
11
3.7158691732283464
21
-5.4819300787401577
0
LINE
8
Edge.Cuts
6
CONTINUOUS
10
3.7158691732283464
20
-5.4819300787401577
11
3.7197704330708659
21
-5.4833851181102364
0
LINE
8
Edge.Cuts
6
CONTINUOUS
10
3.7197704330708659
20
-5.4833851181102364
11
3.7237646850393702
21
-5.484557952755905
0
LINE
8
Edge.Cuts
6
CONTINUOUS
10
3.7237646850393702
20
-5.484557952755905
11
3.7278335433070864
21
-5.4854431102362202
0
LINE
8
Edge.Cuts
6
CONTINUOUS
10
3.7278335433070864
20
-5.4854431102362202
11
3.7319544488188976
21
-5.4860355905511806
0
LINE
8
Edge.Cuts
6
CONTINUOUS
10
3.7319544488188976
20
-5.4860355905511806
11
3.7361102362204726
21
-5.486332834645669
0
LINE
8
Edge.Cuts
6
CONTINUOUS
10
3.7361102362204726
20
-5.486332834645669
11
3.7381911023622045
21
-5.4863514173228349
0
LINE
8
Edge.Cuts
6
CONTINUOUS
10
3.7381911023622045
20
-5.4863514173228349
11
3.7775565354330709
21
-5.4863514173228349
0
LINE
8
Edge.Cuts
6
CONTINUOUS
10
3.7775565354330709
20
-5.4863514173228349
11
3.7796373622047241
21
-5.486332834645669
0
LINE
8
Edge.Cuts
6
CONTINUOUS
10
3.7796373622047241
20
-5.486332834645669
11
3.7837931496062991
21
-5.4860355905511806
0
LINE
8
Edge.Cuts
6
CONTINUOUS
10
3.7837931496062991
20
-5.4860355905511806
11
3.7879141732283466
21
-5.4854430708661415
0
LINE
8
Edge.Cuts
6
CONTINUOUS
10
3.7879141732283466
20
-5.4854430708661415
11
3.7919829133858265
21
-5.484557952755905
0
LINE
8
Edge.Cuts
6
CONTINUOUS
10
3.7919829133858265
20
-5.484557952755905
11
3.7959771653543308
21
-5.4833851181102364
0
LINE
8
Edge.Cuts
6
CONTINUOUS
10
3.7959771653543308
20
-5.4833851181102364
11
3.7998784251968503
21
-5.4819300787401577
0
LINE
8
Edge.Cuts
6
CONTINUOUS
10
3.7998784251968503
20
-5.4819300787401577
11
3.8036651181102363
21
-5.4802007086614175
0
LINE
8
Edge.Cuts
6
CONTINUOUS
10
3.8036651181102363
20
-5.4802007086614175
11
3.8073194881889765
21
-5.47820531496063
0
LINE
8
Edge.Cuts
6
CONTINUOUS
10
3.8073194881889765
20
-5.47820531496063
11
3.8108222047244094
21
-5.4759542913385824
0
LINE
8
Edge.Cuts
6
CONTINUOUS
10
3.8108222047244094
20
-5.4759542913385824
11
3.814154842519685
21
-5.4734594488188977
0
LINE
8
Edge.Cuts
6
CONTINUOUS
10
3.814154842519685
20
-5.4734594488188977
11
3.8173016929133858
21
-5.4707327559055114
0
LINE
8
Edge.Cuts
6
CONTINUOUS
10
3.8173016929133858
20
-5.4707327559055114
11
3.8202453149606299
21
-5.4677891338582674
0
LINE
8
Edge.Cuts
6
CONTINUOUS
10
3.8202453149606299
20
-5.4677891338582674
11
3.8229720078740157
21
-5.4646422834645669
0
LINE
8
Edge.Cuts
6
CONTINUOUS
10
3.8229720078740157
20
-5.4646422834645669
11
3.8254670078740158
21
-5.4613093700787401
0
LINE
8
Edge.Cuts
6
CONTINUOUS
10
3.8254670078740158
20
-5.4613093700787401
11
3.827717716535433
21
-5.457807165354331
0
LINE
8
Edge.Cuts
6
CONTINUOUS
10
3.827717716535433
20
-5.457807165354331
11
3.8297133070866143
21
-5.4541525196850396
0
LINE
8
Edge.Cuts
6
CONTINUOUS
10
3.8297133070866143
20
-5.4541525196850396
11
3.8314426377952757
21
-5.4503658661417322
0
LINE
8
Edge.Cuts
6
CONTINUOUS
10
3.8314426377952757
20
-5.4503658661417322
11
3.8328976771653545
21
-5.4464646062992124
0
LINE
8
Edge.Cuts
6
CONTINUOUS
10
3.8328976771653545
20
-5.4464646062992124
11
3.8340705511811022
21
-5.4424703543307089
0
LINE
8
Edge.Cuts
6
CONTINUOUS
10
3.8340705511811022
20
-5.4424703543307089
11
3.8349556692913387
21
-5.4384014960629923
0
LINE
8
Edge.Cuts
6
CONTINUOUS
10
3.8349556692913387
20
-5.4384014960629923
11
3.8355481496062991
21
-5.4342805905511806
0
LINE
8
Edge.Cuts
6
CONTINUOUS
10
3.8355481496062991
20
-5.4342805905511806
11
3.8358453937007875
21
-5.4301248031496065
0
LINE
8
Edge.Cuts
6
CONTINUOUS
10
3.8358453937007875
20
-5.4301248031496065
11
3.8358639763779525
21
-5.4280440157480312
0
LINE
8
Edge.Cuts
6
CONTINUOUS
10
3.8358639763779525
20
-5.4280440157480312
11
3.8358639763779525
21
-5.1524579921259841
0
LINE
8
Edge.Cuts
6
CONTINUOUS
10
3.8358639763779525
20
-5.1524579921259841
11
3.8358453937007875
21
-5.1503772047244096
0
LINE
8
Edge.Cuts
6
CONTINUOUS
10
3.8358453937007875
20
-5.1503772047244096
11
3.8355481496062991
21
-5.1462214173228347
0
LINE
8
Edge.Cuts
6
CONTINUOUS
10
3.8355481496062991
20
-5.1462214173228347
11
3.8349556692913387
21
-5.1421005118110239
0
LINE
8
Edge.Cuts
6
CONTINUOUS
10
3.8349556692913387
20
-5.1421005118110239
11
3.8340705511811022
21
-5.1380316535433073
0
LINE
8
Edge.Cuts
6
CONTINUOUS
10
3.8340705511811022
20
-5.1380316535433073
11
3.8328976771653545
21
-5.1340374015748029
0
LINE
8
Edge.Cuts
6
CONTINUOUS
10
3.8328976771653545
20
-5.1340374015748029
11
3.8314426377952757
21
-5.1301361417322831
0
LINE
8
Edge.Cuts
6
CONTINUOUS
10
3.8314426377952757
20
-5.1301361417322831
11
3.8297133070866143
21
-5.1263494881889766
0
LINE
8
Edge.Cuts
6
CONTINUOUS
10
3.8297133070866143
20
-5.1263494881889766
11
3.827717716535433
21
-5.1226948425196852
0
LINE
8
Edge.Cuts
6
CONTINUOUS
10
3.827717716535433
20
-5.1226948425196852
11
3.8254670078740158
21
-5.1191926377952752
0
LINE
8
Edge.Cuts
6
CONTINUOUS
10
3.8254670078740158
20
-5.1191926377952752
11
3.8229720078740157
21
-5.1158597244094484
0
LINE
8
Edge.Cuts
6
CONTINUOUS
10
3.8229720078740157
20
-5.1158597244094484
11
3.8202453149606299
21
-5.1127128740157479
0
LINE
8
Edge.Cuts
6
CONTINUOUS
10
3.8202453149606299
20
-5.1127128740157479
11
3.8173016929133858
21
-5.1097692519685038
0
LINE
8
Edge.Cuts
6
CONTINUOUS
10
3.8173016929133858
20
-5.1097692519685038
11
3.814154842519685
21
-5.1070425590551176
0
LINE
8
Edge.Cuts
6
CONTINUOUS
10
3.814154842519685
20
-5.1070425590551176
11
3.8108222047244094
21
-5.1045477165354329
0
LINE
8
Edge.Cuts
6
CONTINUOUS
10
3.8108222047244094
20
-5.1045477165354329
11
3.8073194881889765
21
-5.1022966929133853
0
LINE
8
Edge.Cuts
6
CONTINUOUS
10
3.8073194881889765
20
-5.1022966929133853
11
3.8036651181102363
21
-5.1003012992125987
0
LINE
8
Edge.Cuts
6
CONTINUOUS
10
3.8036651181102363
20
-5.1003012992125987
11
3.7998784251968503
21
-5.0985719291338585
0
LINE
8
Edge.Cuts
6
CONTINUOUS
10
3.7998784251968503
20
-5.0985719291338585
11
3.7959771653543308
21
-5.0971168897637797
0
LINE
8
Edge.Cuts
6
CONTINUOUS
10
3.7959771653543308
20
-5.0971168897637797
11
3.7919829133858265
21
-5.0959440551181103
0
LINE
8
Edge.Cuts
6
CONTINUOUS
10
3.7919829133858265
20
-5.0959440551181103
11
3.7879141732283466
21
-5.0950589370078738
0
LINE
8
Edge.Cuts
6
CONTINUOUS
10
3.7879141732283466
20
-5.0950589370078738
11
3.7837931496062991
21
-5.0944664173228347
0
LINE
8
Edge.Cuts
6
CONTINUOUS
10
3.7837931496062991
20
-5.0944664173228347
11
3.7796373622047241
21
-5.0941691732283463
0
LINE
8
Edge.Cuts
6
CONTINUOUS
10
3.7796373622047241
20
-5.0941691732283463
11
3.7775565354330709
21
-5.09415062992126
0
LINE
8
Edge.Cuts
6
CONTINUOUS
10
3.7775565354330709
20
-5.09415062992126
11
3.7381911023622045
21
-5.09415062992126
0
LINE
8
Edge.Cuts
6
CONTINUOUS
10
4.2427741338582674
20
-4.6881301968503939
11
4.2551617322834643
21
-4.690594212598425
0
LINE
8
Edge.Cuts
6
CONTINUOUS
10
4.2551617322834643
20
-4.690594212598425
11
4.267248188976378
21
-4.6942605905511812
0
LINE
8
Edge.Cuts
6
CONTINUOUS
10
4.267248188976378
20
-4.6942605905511812
11
4.2789170472440947
21
-4.699094015748031
0
LINE
8
Edge.Cuts
6
CONTINUOUS
10
4.2789170472440947
20
-4.699094015748031
11
4.2900559842519685
21
-4.7050478740157482
0
LINE
8
Edge.Cuts
6
CONTINUOUS
10
4.2900559842519685
20
-4.7050478740157482
11
4.3005576771653544
21
-4.7120648818897637
0
LINE
8
Edge.Cuts
6
CONTINUOUS
10
4.3005576771653544
20
-4.7120648818897637
11
4.3103210236220475
21
-4.7200774803149601
0
LINE
8
Edge.Cuts
6
CONTINUOUS
10
4.3103210236220475
20
-4.7200774803149601
11
4.319251968503937
21
-4.7290084251968505
0
LINE
8
Edge.Cuts
6
CONTINUOUS
10
4.319251968503937
20
-4.7290084251968505
11
4.3272645669291334
21
-4.7387717716535436
0
LINE
8
Edge.Cuts
6
CONTINUOUS
10
4.3272645669291334
20
-4.7387717716535436
11
4.3342815748031498
21
-4.7492734645669294
0
LINE
8
Edge.Cuts
6
CONTINUOUS
10
4.3342815748031498
20
-4.7492734645669294
11
4.3402354330708661
21
-4.7604124015748033
0
LINE
8
Edge.Cuts
6
CONTINUOUS
10
4.3402354330708661
20
-4.7604124015748033
11
4.3450688582677168
21
-4.77208125984252
0
LINE
8
Edge.Cuts
6
CONTINUOUS
10
4.3450688582677168
20
-4.77208125984252
11
4.3487352362204721
21
-4.7841677165354328
0
LINE
8
Edge.Cuts
6
CONTINUOUS
10
4.3487352362204721
20
-4.7841677165354328
11
4.3511992519685041
21
-4.7965553149606297
0
LINE
8
Edge.Cuts
6
CONTINUOUS
10
4.3511992519685041
20
-4.7965553149606297
11
4.3524372440944878
21
-4.8091247637795274
0
LINE
8
Edge.Cuts
6
CONTINUOUS
10
4.3524372440944878
20
-4.8091247637795274
11
4.3524372440944878
21
-4.8217550787401571
0
LINE
8
Edge.Cuts
6
CONTINUOUS
10
4.3524372440944878
20
-4.8217550787401571
11
4.3511992519685041
21
-4.8343245275590547
0
LINE
8
Edge.Cuts
6
CONTINUOUS
10
4.3511992519685041
20
-4.8343245275590547
11
4.3487352362204721
21
-4.8467121259842516
0
LINE
8
Edge.Cuts
6
CONTINUOUS
10
4.3487352362204721
20
-4.8467121259842516
11
4.3450688582677168
21
-4.8587985826771654
0
LINE
8
Edge.Cuts
6
CONTINUOUS
10
4.3450688582677168
20
-4.8587985826771654
11
4.3402354330708661
21
-4.870467440944882
0
LINE
8
Edge.Cuts
6
CONTINUOUS
10
4.3402354330708661
20
-4.870467440944882
11
4.3342815748031498
21
-4.8816063779527559
0
LINE
8
Edge.Cuts
6
CONTINUOUS
10
4.3342815748031498
20
-4.8816063779527559
11
4.3272645669291334
21
-4.8921080708661417
0
LINE
8
Edge.Cuts
6
CONTINUOUS
10
4.3272645669291334
20
-4.8921080708661417
11
4.319251968503937
21
-4.9018714173228348
0
LINE
8
Edge.Cuts
6
CONTINUOUS
10
4.319251968503937
20
-4.9018714173228348
11
4.3103210236220475
21
-4.9108023622047243
0
LINE
8
Edge.Cuts
6
CONTINUOUS
10
4.3103210236220475
20
-4.9108023622047243
11
4.3005576771653544
21
-4.9188149606299207
0
LINE
8
Edge.Cuts
6
CONTINUOUS
10
4.3005576771653544
20
-4.9188149606299207
11
4.2900559842519685
21
-4.9258319685039371
0
LINE
8
Edge.Cuts
6
CONTINUOUS
10
4.2900559842519685
20
-4.9258319685039371
11
4.2789170472440947
21
-4.9317858267716534
0
LINE
8
Edge.Cuts
6
CONTINUOUS
10
4.2789170472440947
20
-4.9317858267716534
11
4.267248188976378
21
-4.9366192519685042
0
LINE
8
Edge.Cuts
6
CONTINUOUS
10
4.267248188976378
20
-4.9366192519685042
11
4.2551617322834643
21
-4.9402856299212594
0
LINE
8
Edge.Cuts
6
CONTINUOUS
10
4.2551617322834643
20
-4.9402856299212594
11
4.2427741338582674
21
-4.9427496456692914
0
LINE
8
Edge.Cuts
6
CONTINUOUS
10
4.2427741338582674
20
-4.9427496456692914
11
4.2302046850393697
21
-4.9439876377952752
0
LINE
8
Edge.Cuts
6
CONTINUOUS
10
4.2302046850393697
20
-4.9439876377952752
11
4.21757437007874
21
-4.9439876377952752
0
LINE
8
Edge.Cuts
6
CONTINUOUS
10
4.21757437007874
20
-4.9439876377952752
11
4.2050049212598424
21
-4.9427496456692914
0
LINE
8
Edge.Cuts
6
CONTINUOUS
10
4.2050049212598424
20
-4.9427496456692914
11
4.1926173228346455
21
-4.9402856299212594
0
LINE
8
Edge.Cuts
6
CONTINUOUS
10
4.1926173228346455
20
-4.9402856299212594
11
4.1805308661417317
21
-4.9366192519685042
0
LINE
8
Edge.Cuts
6
CONTINUOUS
10
4.1805308661417317
20
-4.9366192519685042
11
4.168862007874016
21
-4.9317858267716534
0
LINE
8
Edge.Cuts
6
CONTINUOUS
10
4.168862007874016
20
-4.9317858267716534
11
4.1577230708661412
21
-4.9258319685039371
0
LINE
8
Edge.Cuts
6
CONTINUOUS
10
4.1577230708661412
20
-4.9258319685039371
11
4.1472213779527562
21
-4.9188149606299207
0
LINE
8
Edge.Cuts
6
CONTINUOUS
10
4.1472213779527562
20
-4.9188149606299207
11
4.1374580314960632
21
-4.9108023622047243
0
LINE
8
Edge.Cuts
6
CONTINUOUS
10
4.1374580314960632
20
-4.9108023622047243
11
4.1285270866141728
21
-4.9018714173228348
0
LINE
8
Edge.Cuts
6
CONTINUOUS
10
4.1285270866141728
20
-4.9018714173228348
11
4.1205144881889764
21
-4.8921080708661417
0
LINE
8
Edge.Cuts
6
CONTINUOUS
10
4.1205144881889764
20
-4.8921080708661417
11
4.1134974803149609
21
-4.8816063779527559
0
LINE
8
Edge.Cuts
6
CONTINUOUS
10
4.1134974803149609
20
-4.8816063779527559
11
4.1075436220472437
21
-4.870467440944882
0
LINE
8
Edge.Cuts
6
CONTINUOUS
10
4.1075436220472437
20
-4.870467440944882
11
4.1027101968503938
21
-4.8587985826771654
0
LINE
8
Edge.Cuts
6
CONTINUOUS
10
4.1027101968503938
20
-4.8587985826771654
11
4.0990438188976377
21
-4.8467121259842516
0
LINE
8
Edge.Cuts
6
CONTINUOUS
10
4.0990438188976377
20
-4.8467121259842516
11
4.0965798031496066
21
-4.8343245275590547
0
LINE
8
Edge.Cuts
6
CONTINUOUS
10
4.0965798031496066
20
-4.8343245275590547
11
4.0953418110236219
21
-4.8217550787401571
0
LINE
8
Edge.Cuts
6
CONTINUOUS
10
4.0953418110236219
20
-4.8217550787401571
11
4.0953418110236219
21
-4.8091247637795274
0
LINE
8
Edge.Cuts
6
CONTINUOUS
10
4.0953418110236219
20
-4.8091247637795274
11
4.0954233858267717
21
-4.8082963779527557
0
LINE
8
Edge.Cuts
6
CONTINUOUS
10
4.0954233858267717
20
-4.8082963779527557
11
4.0965798031496066
21
-4.7965553149606297
0
LINE
8
Edge.Cuts
6
CONTINUOUS
10
4.0965798031496066
20
-4.7965553149606297
11
4.0990438188976377
21
-4.7841677165354328
0
LINE
8
Edge.Cuts
6
CONTINUOUS
10
4.0990438188976377
20
-4.7841677165354328
11
4.1027101968503938
21
-4.77208125984252
0
LINE
8
Edge.Cuts
6
CONTINUOUS
10
4.1027101968503938
20
-4.77208125984252
11
4.1075436220472437
21
-4.7604124015748033
0
LINE
8
Edge.Cuts
6
CONTINUOUS
10
4.1075436220472437
20
-4.7604124015748033
11
4.1134974803149609
21
-4.7492734645669294
0
LINE
8
Edge.Cuts
6
CONTINUOUS
10
4.1134974803149609
20
-4.7492734645669294
11
4.1205144881889764
21
-4.7387717716535436
0
LINE
8
Edge.Cuts
6
CONTINUOUS
10
4.1205144881889764
20
-4.7387717716535436
11
4.1285270866141728
21
-4.7290084251968505
0
LINE
8
Edge.Cuts
6
CONTINUOUS
10
4.1285270866141728
20
-4.7290084251968505
11
4.1374580314960632
21
-4.7200774803149601
0
LINE
8
Edge.Cuts
6
CONTINUOUS
10
4.1374580314960632
20
-4.7200774803149601
11
4.1472213779527562
21
-4.7120648818897637
0
LINE
8
Edge.Cuts
6
CONTINUOUS
10
4.1472213779527562
20
-4.7120648818897637
11
4.1577230708661412
21
-4.7050478740157482
0
LINE
8
Edge.Cuts
6
CONTINUOUS
10
4.1577230708661412
20
-4.7050478740157482
11
4.168862007874016
21
-4.699094015748031
0
LINE
8
Edge.Cuts
6
CONTINUOUS
10
4.168862007874016
20
-4.699094015748031
11
4.1805308661417317
21
-4.6942605905511812
0
LINE
8
Edge.Cuts
6
CONTINUOUS
10
4.1805308661417317
20
-4.6942605905511812
11
4.1926173228346455
21
-4.690594212598425
0
LINE
8
Edge.Cuts
6
CONTINUOUS
10
4.1926173228346455
20
-4.690594212598425
11
4.2050049212598424
21
-4.6881301968503939
0
LINE
8
Edge.Cuts
6
CONTINUOUS
10
4.2050049212598424
20
-4.6881301968503939
11
4.21757437007874
21
-4.6868922047244093
0
LINE
8
Edge.Cuts
6
CONTINUOUS
10
4.21757437007874
20
-4.6868922047244093
11
4.2302046850393697
21
-4.6868922047244093
0
LINE
8
Edge.Cuts
6
CONTINUOUS
10
4.2302046850393697
20
-4.6868922047244093
11
4.2427741338582674
21
-4.6881301968503939
0
LINE
8
Edge.Cuts
6
CONTINUOUS
10
4.0966867716535429
20
-4.8225834645669288
11
4.0982864173228348
21
-4.8367807480314964
0
LINE
8
Edge.Cuts
6
CONTINUOUS
10
4.0982864173228348
20
-4.8367807480314964
11
4.1014655905511814
21
-4.8507096456692915
0
LINE
8
Edge.Cuts
6
CONTINUOUS
10
4.1014655905511814
20
-4.8507096456692915
11
4.1061843307086612
21
-4.8641949999999996
0
LINE
8
Edge.Cuts
6
CONTINUOUS
10
4.1061843307086612
20
-4.8641949999999996
11
4.1123832677165355
21
-4.877067244094488
0
LINE
8
Edge.Cuts
6
CONTINUOUS
10
4.1123832677165355
20
-4.877067244094488
11
4.119984488188976
21
-4.8891644881889764
0
LINE
8
Edge.Cuts
6
CONTINUOUS
10
4.119984488188976
20
-4.8891644881889764
11
4.1288923228346457
21
-4.9003346062992126
0
LINE
8
Edge.Cuts
6
CONTINUOUS
10
4.1288923228346457
20
-4.9003346062992126
11
4.1389948425196845
21
-4.9104371259842514
0
LINE
8
Edge.Cuts
6
CONTINUOUS
10
4.1389948425196845
20
-4.9104371259842514
11
4.1501649606299216
21
-4.9193449606299211
0
LINE
8
Edge.Cuts
6
CONTINUOUS
10
4.1501649606299216
20
-4.9193449606299211
11
4.1622622047244091
21
-4.9269461811023625
0
LINE
8
Edge.Cuts
6
CONTINUOUS
10
4.1622622047244091
20
-4.9269461811023625
11
4.1751344488188975
21
-4.9331451181102359
0
LINE
8
Edge.Cuts
6
CONTINUOUS
10
4.1751344488188975
20
-4.9331451181102359
11
4.1886198031496065
21
-4.9378638582677166
0
LINE
8
Edge.Cuts
6
CONTINUOUS
10
4.1886198031496065
20
-4.9378638582677166
11
4.2025487007874016
21
-4.9410430314960632
0
LINE
8
Edge.Cuts
6
CONTINUOUS
10
4.2025487007874016
20
-4.9410430314960632
11
4.2167459842519683
21
-4.9426426771653542
0
LINE
8
Edge.Cuts
6
CONTINUOUS
10
4.2167459842519683
20
-4.9426426771653542
11
4.2310330708661414
21
-4.9426426771653542
0
LINE
8
Edge.Cuts
6
CONTINUOUS
10
4.2310330708661414
20
-4.9426426771653542
11
4.2452303543307082
21
-4.9410430314960632
0
LINE
8
Edge.Cuts
6
CONTINUOUS
10
4.2452303543307082
20
-4.9410430314960632
11
4.2591592519685042
21
-4.9378638582677166
0
LINE
8
Edge.Cuts
6
CONTINUOUS
10
4.2591592519685042
20
-4.9378638582677166
11
4.2726446062992123
21
-4.9331451181102359
0
LINE
8
Edge.Cuts
6
CONTINUOUS
10
4.2726446062992123
20
-4.9331451181102359
11
4.2855168503937007
21
-4.9269461811023625
0
LINE
8
Edge.Cuts
6
CONTINUOUS
10
4.2855168503937007
20
-4.9269461811023625
11
4.2976140944881891
21
-4.9193449606299211
0
LINE
8
Edge.Cuts
6
CONTINUOUS
10
4.2976140944881891
20
-4.9193449606299211
11
4.3087842125984253
21
-4.9104371259842514
0
LINE
8
Edge.Cuts
6
CONTINUOUS
10
4.3087842125984253
20
-4.9104371259842514
11
4.3188867322834641
21
-4.9003346062992126
0
LINE
8
Edge.Cuts
6
CONTINUOUS
10
4.3188867322834641
20
-4.9003346062992126
11
4.3277945669291338
21
-4.8891644881889764
0
LINE
8
Edge.Cuts
6
CONTINUOUS
10
4.3277945669291338
20
-4.8891644881889764
11
4.3353957874015743
21
-4.877067244094488
0
LINE
8
Edge.Cuts
6
CONTINUOUS
10
4.3353957874015743
20
-4.877067244094488
11
4.3415947244094486
21
-4.8641949999999996
0
LINE
8
Edge.Cuts
6
CONTINUOUS
10
4.3415947244094486
20
-4.8641949999999996
11
4.3463134645669292
21
-4.8507096456692915
0
LINE
8
Edge.Cuts
6
CONTINUOUS
10
4.3463134645669292
20
-4.8507096456692915
11
4.3494926377952758
21
-4.8367807480314964
0
LINE
8
Edge.Cuts
6
CONTINUOUS
10
4.3494926377952758
20
-4.8367807480314964
11
4.3510922834645669
21
-4.8225834645669288
0
LINE
8
Edge.Cuts
6
CONTINUOUS
10
4.3510922834645669
20
-4.8225834645669288
11
4.3510922834645669
21
-4.8082963779527557
0
LINE
8
Edge.Cuts
6
CONTINUOUS
10
4.3510922834645669
20
-4.8082963779527557
11
4.3494926377952758
21
-4.7940990944881889
0
LINE
8
Edge.Cuts
6
CONTINUOUS
10
4.3494926377952758
20
-4.7940990944881889
11
4.3463134645669292
21
-4.7801701968503938
0
LINE
8
Edge.Cuts
6
CONTINUOUS
10
4.3463134645669292
20
-4.7801701968503938
11
4.3415947244094486
21
-4.7666848425196848
0
LINE
8
Edge.Cuts
6
CONTINUOUS
10
4.3415947244094486
20
-4.7666848425196848
11
4.3353957874015743
21
-4.7538125984251964
0
LINE
8
Edge.Cuts
6
CONTINUOUS
10
4.3353957874015743
20
-4.7538125984251964
11
4.3277945669291338
21
-4.7417153543307089
0
LINE
8
Edge.Cuts
6
CONTINUOUS
10
4.3277945669291338
20
-4.7417153543307089
11
4.3188867322834641
21
-4.7305452362204727
0
LINE
8
Edge.Cuts
6
CONTINUOUS
10
4.3188867322834641
20
-4.7305452362204727
11
4.3087842125984253
21
-4.720442716535433
0
LINE
8
Edge.Cuts
6
CONTINUOUS
10
4.3087842125984253
20
-4.720442716535433
11
4.2976140944881891
21
-4.7115348818897633
0
LINE
8
Edge.Cuts
6
CONTINUOUS
10
4.2976140944881891
20
-4.7115348818897633
11
4.2855168503937007
21
-4.7039336614173228
0
LINE
8
Edge.Cuts
6
CONTINUOUS
10
4.2855168503937007
20
-4.7039336614173228
11
4.2726446062992123
21
-4.6977347244094485
0
LINE
8
Edge.Cuts
6
CONTINUOUS
10
4.2726446062992123
20
-4.6977347244094485
11
4.2591592519685042
21
-4.6930159842519688
0
LINE
8
Edge.Cuts
6
CONTINUOUS
10
4.2591592519685042
20
-4.6930159842519688
11
4.2452303543307082
21
-4.6898368110236222
0
LINE
8
Edge.Cuts
6
CONTINUOUS
10
4.2452303543307082
20
-4.6898368110236222
11
4.2310330708661414
21
-4.6882371653543302
0
LINE
8
Edge.Cuts
6
CONTINUOUS
10
4.2310330708661414
20
-4.6882371653543302
11
4.2167459842519683
21
-4.6882371653543302
0
LINE
8
Edge.Cuts
6
CONTINUOUS
10
4.2167459842519683
20
-4.6882371653543302
11
4.2025487007874016
21
-4.6898368110236222
0
LINE
8
Edge.Cuts
6
CONTINUOUS
10
4.2025487007874016
20
-4.6898368110236222
11
4.1886198031496065
21
-4.6930159842519688
0
LINE
8
Edge.Cuts
6
CONTINUOUS
10
4.1886198031496065
20
-4.6930159842519688
11
4.1751344488188975
21
-4.6977347244094485
0
LINE
8
Edge.Cuts
6
CONTINUOUS
10
4.1751344488188975
20
-4.6977347244094485
11
4.1622622047244091
21
-4.7039336614173228
0
LINE
8
Edge.Cuts
6
CONTINUOUS
10
4.1622622047244091
20
-4.7039336614173228
11
4.1501649606299216
21
-4.7115348818897633
0
LINE
8
Edge.Cuts
6
CONTINUOUS
10
4.1501649606299216
20
-4.7115348818897633
11
4.1389948425196845
21
-4.720442716535433
0
LINE
8
Edge.Cuts
6
CONTINUOUS
10
4.1389948425196845
20
-4.720442716535433
11
4.1288923228346457
21
-4.7305452362204727
0
LINE
8
Edge.Cuts
6
CONTINUOUS
10
4.1288923228346457
20
-4.7305452362204727
11
4.119984488188976
21
-4.7417153543307089
0
LINE
8
Edge.Cuts
6
CONTINUOUS
10
4.119984488188976
20
-4.7417153543307089
11
4.1123832677165355
21
-4.7538125984251964
0
LINE
8
Edge.Cuts
6
CONTINUOUS
10
4.1123832677165355
20
-4.7538125984251964
11
4.1061843307086612
21
-4.7666848425196848
0
LINE
8
Edge.Cuts
6
CONTINUOUS
10
4.1061843307086612
20
-4.7666848425196848
11
4.1014655905511814
21
-4.7801701968503938
0
LINE
8
Edge.Cuts
6
CONTINUOUS
10
4.1014655905511814
20
-4.7801701968503938
11
4.0982864173228348
21
-4.7940990944881889
0
LINE
8
Edge.Cuts
6
CONTINUOUS
10
4.0982864173228348
20
-4.7940990944881889
11
4.0966867716535429
21
-4.8082963779527557
0
LINE
8
Edge.Cuts
6
CONTINUOUS
10
4.0966867716535429
20
-4.8082963779527557
11
4.0966867716535429
21
-4.8225834645669288
0
LINE
8
Edge.Cuts
6
CONTINUOUS
10
4.8948982283464568
20
-4.3623297637795275
11
4.9061853149606298
21
-4.3653541338582675
0
LINE
8
Edge.Cuts
6
CONTINUOUS
10
4.9061853149606298
20
-4.3653541338582675
11
4.9169811023622048
21
-4.3698259055118109
0
LINE
8
Edge.Cuts
6
CONTINUOUS
10
4.9169811023622048
20
-4.3698259055118109
11
4.9271008661417319
21
-4.3756685433070865
0
LINE
8
Edge.Cuts
6
CONTINUOUS
10
4.9271008661417319
20
-4.3756685433070865
11
4.9363714173228344
21
-4.3827820866141733
0
LINE
8
Edge.Cuts
6
CONTINUOUS
10
4.9363714173228344
20
-4.3827820866141733
11
4.9446341338582673
21
-4.3910448031496063
0
LINE
8
Edge.Cuts
6
CONTINUOUS
10
4.9446341338582673
20
-4.3910448031496063
11
4.9517476771653541
21
-4.4003153543307088
0
LINE
8
Edge.Cuts
6
CONTINUOUS
10
4.9517476771653541
20
-4.4003153543307088
11
4.9575903149606297
21
-4.4104351181102359
0
LINE
8
Edge.Cuts
6
CONTINUOUS
10
4.9575903149606297
20
-4.4104351181102359
11
4.9620620866141731
21
-4.4212309055118109
0
LINE
8
Edge.Cuts
6
CONTINUOUS
10
4.9620620866141731
20
-4.4212309055118109
11
4.9650864566929132
21
-4.4325179921259839
0
LINE
8
Edge.Cuts
6
CONTINUOUS
10
4.9650864566929132
20
-4.4325179921259839
11
4.9666116929133857
21
-4.4441033070866141
0
LINE
8
Edge.Cuts
6
CONTINUOUS
10
4.9666116929133857
20
-4.4441033070866141
11
4.9666116929133857
21
-4.4557885826771653
0
LINE
8
Edge.Cuts
6
CONTINUOUS
10
4.9666116929133857
20
-4.4557885826771653
11
4.9650864566929132
21
-4.4673738976377955
0
LINE
8
Edge.Cuts
6
CONTINUOUS
10
4.9650864566929132
20
-4.4673738976377955
11
4.9620620866141731
21
-4.4786609842519685
0
LINE
8
Edge.Cuts
6
CONTINUOUS
10
4.9620620866141731
20
-4.4786609842519685
11
4.9575903149606297
21
-4.4894567716535434
0
LINE
8
Edge.Cuts
6
CONTINUOUS
10
4.9575903149606297
20
-4.4894567716535434
11
4.9517476771653541
21
-4.4995765354330706
0
LINE
8
Edge.Cuts
6
CONTINUOUS
10
4.9517476771653541
20
-4.4995765354330706
11
4.9446341338582673
21
-4.508847086614173
0
LINE
8
Edge.Cuts
6
CONTINUOUS
10
4.9446341338582673
20
-4.508847086614173
11
4.9363714173228344
21
-4.517109803149606
0
LINE
8
Edge.Cuts
6
CONTINUOUS
10
4.9363714173228344
20
-4.517109803149606
11
4.9271008661417319
21
-4.5242233464566928
0
LINE
8
Edge.Cuts
6
CONTINUOUS
10
4.9271008661417319
20
-4.5242233464566928
11
4.9169811023622048
21
-4.5300659842519684
0
LINE
8
Edge.Cuts
6
CONTINUOUS
10
4.9169811023622048
20
-4.5300659842519684
11
4.9061853149606298
21
-4.5345377559055118
0
LINE
8
Edge.Cuts
6
CONTINUOUS
10
4.9061853149606298
20
-4.5345377559055118
11
4.8948982283464568
21
-4.5375621259842518
0
LINE
8
Edge.Cuts
6
CONTINUOUS
10
4.8948982283464568
20
-4.5375621259842518
11
4.8833129133858266
21
-4.5390873622047243
0
LINE
8
Edge.Cuts
6
CONTINUOUS
10
4.8833129133858266
20
-4.5390873622047243
11
4.8716276377952754
21
-4.5390873622047243
0
LINE
8
Edge.Cuts
6
CONTINUOUS
10
4.8716276377952754
20
-4.5390873622047243
11
4.8600423228346452
21
-4.5375621259842518
0
LINE
8
Edge.Cuts
6
CONTINUOUS
10
4.8600423228346452
20
-4.5375621259842518
11
4.8487552362204722
21
-4.5345377559055118
0
LINE
8
Edge.Cuts
6
CONTINUOUS
10
4.8487552362204722
20
-4.5345377559055118
11
4.8379594488188973
21
-4.5300659842519684
0
LINE
8
Edge.Cuts
6
CONTINUOUS
10
4.8379594488188973
20
-4.5300659842519684
11
4.8278396850393701
21
-4.5242233464566928
0
LINE
8
Edge.Cuts
6
CONTINUOUS
10
4.8278396850393701
20
-4.5242233464566928
11
4.8185691338582677
21
-4.517109803149606
0
LINE
8
Edge.Cuts
6
CONTINUOUS
10
4.8185691338582677
20
-4.517109803149606
11
4.8103064173228347
21
-4.508847086614173
0
LINE
8
Edge.Cuts
6
CONTINUOUS
10
4.8103064173228347
20
-4.508847086614173
11
4.8031928740157479
21
-4.4995765354330706
0
LINE
8
Edge.Cuts
6
CONTINUOUS
10
4.8031928740157479
20
-4.4995765354330706
11
4.7973502362204723
21
-4.4894567716535434
0
LINE
8
Edge.Cuts
6
CONTINUOUS
10
4.7973502362204723
20
-4.4894567716535434
11
4.7928784645669289
21
-4.4786609842519685
0
LINE
8
Edge.Cuts
6
CONTINUOUS
10
4.7928784645669289
20
-4.4786609842519685
11
4.7898540944881889
21
-4.4673738976377955
0
LINE
8
Edge.Cuts
6
CONTINUOUS
10
4.7898540944881889
20
-4.4673738976377955
11
4.7883288582677164
21
-4.4557885826771653
0
LINE
8
Edge.Cuts
6
CONTINUOUS
10
4.7883288582677164
20
-4.4557885826771653
11
4.7883288582677164
21
-4.4441890944881886
0
LINE
8
Edge.Cuts
6
CONTINUOUS
10
4.7883288582677164
20
-4.4441890944881886
11
4.7883288582677164
21
-4.4441033070866141
0
LINE
8
Edge.Cuts
6
CONTINUOUS
10
4.7883288582677164
20
-4.4441033070866141
11
4.7898540944881889
21
-4.4325179921259839
0
LINE
8
Edge.Cuts
6
CONTINUOUS
10
4.7898540944881889
20
-4.4325179921259839
11
4.7928784645669289
21
-4.4212309055118109
0
LINE
8
Edge.Cuts
6
CONTINUOUS
10
4.7928784645669289
20
-4.4212309055118109
11
4.7973502362204723
21
-4.4104351181102359
0
LINE
8
Edge.Cuts
6
CONTINUOUS
10
4.7973502362204723
20
-4.4104351181102359
11
4.8031928740157479
21
-4.4003153543307088
0
LINE
8
Edge.Cuts
6
CONTINUOUS
10
4.8031928740157479
20
-4.4003153543307088
11
4.8103064173228347
21
-4.3910448031496063
0
LINE
8
Edge.Cuts
6
CONTINUOUS
10
4.8103064173228347
20
-4.3910448031496063
11
4.8185691338582677
21
-4.3827820866141733
0
LINE
8
Edge.Cuts
6
CONTINUOUS
10
4.8185691338582677
20
-4.3827820866141733
11
4.8278396850393701
21
-4.3756685433070865
0
LINE
8
Edge.Cuts
6
CONTINUOUS
10
4.8278396850393701
20
-4.3756685433070865
11
4.8379594488188973
21
-4.3698259055118109
0
LINE
8
Edge.Cuts
6
CONTINUOUS
10
4.8379594488188973
20
-4.3698259055118109
11
4.8487552362204722
21
-4.3653541338582675
0
LINE
8
Edge.Cuts
6
CONTINUOUS
10
4.8487552362204722
20
-4.3653541338582675
11
4.8600423228346452
21
-4.3623297637795275
0
LINE
8
Edge.Cuts
6
CONTINUOUS
10
4.8600423228346452
20
-4.3623297637795275
11
4.8716276377952754
21
-4.360804527559055
0
LINE
8
Edge.Cuts
6
CONTINUOUS
10
4.8716276377952754
20
-4.360804527559055
11
4.8833129133858266
21
-4.360804527559055
0
LINE
8
Edge.Cuts
6
CONTINUOUS
10
4.8833129133858266
20
-4.360804527559055
11
4.8948982283464568
21
-4.3623297637795275
0
LINE
8
Edge.Cuts
6
CONTINUOUS
10
4.7896375984251964
20
-4.4557027952755908
11
4.7911404330708658
21
-4.4671180314960628
0
LINE
8
Edge.Cuts
6
CONTINUOUS
10
4.7911404330708658
20
-4.4671180314960628
11
4.794120393700787
21
-4.4782394094488192
0
LINE
8
Edge.Cuts
6
CONTINUOUS
10
4.794120393700787
20
-4.4782394094488192
11
4.7985264960629923
21
-4.4888766929133856
0
LINE
8
Edge.Cuts
6
CONTINUOUS
10
4.7985264960629923
20
-4.4888766929133856
11
4.8042833858267713
21
-4.4988478740157483
0
LINE
8
Edge.Cuts
6
CONTINUOUS
10
4.8042833858267713
20
-4.4988478740157483
11
4.8112924803149602
21
-4.5079823228346454
0
LINE
8
Edge.Cuts
6
CONTINUOUS
10
4.8112924803149602
20
-4.5079823228346454
11
4.8194338976377953
21
-4.5161237401574805
0
LINE
8
Edge.Cuts
6
CONTINUOUS
10
4.8194338976377953
20
-4.5161237401574805
11
4.8285683464566924
21
-4.5231328346456694
0
LINE
8
Edge.Cuts
6
CONTINUOUS
10
4.8285683464566924
20
-4.5231328346456694
11
4.838539527559055
21
-4.5288897244094484
0
LINE
8
Edge.Cuts
6
CONTINUOUS
10
4.838539527559055
20
-4.5288897244094484
11
4.8491768110236215
21
-4.5332958267716537
0
LINE
8
Edge.Cuts
6
CONTINUOUS
10
4.8491768110236215
20
-4.5332958267716537
11
4.8602981889763779
21
-4.5362757874015749
0
LINE
8
Edge.Cuts
6
CONTINUOUS
10
4.8602981889763779
20
-4.5362757874015749
11
4.8717134251968499
21
-4.5377786220472442
0
LINE
8
Edge.Cuts
6
CONTINUOUS
10
4.8717134251968499
20
-4.5377786220472442
11
4.8832271259842521
21
-4.5377786220472442
0
LINE
8
Edge.Cuts
6
CONTINUOUS
10
4.8832271259842521
20
-4.5377786220472442
11
4.8946423622047242
21
-4.5362757874015749
0
LINE
8
Edge.Cuts
6
CONTINUOUS
10
4.8946423622047242
20
-4.5362757874015749
11
4.9057637401574805
21
-4.5332958267716537
0
LINE
8
Edge.Cuts
6
CONTINUOUS
10
4.9057637401574805
20
-4.5332958267716537
11
4.916401023622047
21
-4.5288897244094484
0
LINE
8
Edge.Cuts
6
CONTINUOUS
10
4.916401023622047
20
-4.5288897244094484
11
4.9263722047244096
21
-4.5231328346456694
0
LINE
8
Edge.Cuts
6
CONTINUOUS
10
4.9263722047244096
20
-4.5231328346456694
11
4.9355066535433068
21
-4.5161237401574805
0
LINE
8
Edge.Cuts
6
CONTINUOUS
10
4.9355066535433068
20
-4.5161237401574805
11
4.9436480708661419
21
-4.5079823228346454
0
LINE
8
Edge.Cuts
6
CONTINUOUS
10
4.9436480708661419
20
-4.5079823228346454
11
4.9506571653543308
21
-4.4988478740157483
0
LINE
8
Edge.Cuts
6
CONTINUOUS
10
4.9506571653543308
20
-4.4988478740157483
11
4.9564140551181097
21
-4.4888766929133856
0
LINE
8
Edge.Cuts
6
CONTINUOUS
10
4.9564140551181097
20
-4.4888766929133856
11
4.960820157480315
21
-4.4782394094488192
0
LINE
8
Edge.Cuts
6
CONTINUOUS
10
4.960820157480315
20
-4.4782394094488192
11
4.9638001181102362
21
-4.4671180314960628
0
LINE
8
Edge.Cuts
6
CONTINUOUS
10
4.9638001181102362
20
-4.4671180314960628
11
4.9653029527559056
21
-4.4557027952755908
0
LINE
8
Edge.Cuts
6
CONTINUOUS
10
4.9653029527559056
20
-4.4557027952755908
11
4.9653029527559056
21
-4.4441890944881886
0
LINE
8
Edge.Cuts
6
CONTINUOUS
10
4.9653029527559056
20
-4.4441890944881886
11
4.9638001181102362
21
-4.4327738582677165
0
LINE
8
Edge.Cuts
6
CONTINUOUS
10
4.9638001181102362
20
-4.4327738582677165
11
4.960820157480315
21
-4.4216524803149602
0
LINE
8
Edge.Cuts
6
CONTINUOUS
10
4.960820157480315
20
-4.4216524803149602
11
4.9564140551181097
21
-4.4110151968503937
0
LINE
8
Edge.Cuts
6
CONTINUOUS
10
4.9564140551181097
20
-4.4110151968503937
11
4.9506571653543308
21
-4.4010440157480311
0
LINE
8
Edge.Cuts
6
CONTINUOUS
10
4.9506571653543308
20
-4.4010440157480311
11
4.9436480708661419
21
-4.3919095669291339
0
LINE
8
Edge.Cuts
6
CONTINUOUS
10
4.9436480708661419
20
-4.3919095669291339
11
4.9355066535433068
21
-4.3837681496062988
0
LINE
8
Edge.Cuts
6
CONTINUOUS
10
4.9355066535433068
20
-4.3837681496062988
11
4.9263722047244096
21
-4.3767590551181099
0
LINE
8
Edge.Cuts
6
CONTINUOUS
10
4.9263722047244096
20
-4.3767590551181099
11
4.916401023622047
21
-4.3710021653543309
0
LINE
8
Edge.Cuts
6
CONTINUOUS
10
4.916401023622047
20
-4.3710021653543309
11
4.9057637401574805
21
-4.3665960629921257
0
LINE
8
Edge.Cuts
6
CONTINUOUS
10
4.9057637401574805
20
-4.3665960629921257
11
4.8946423622047242
21
-4.3636161023622044
0
LINE
8
Edge.Cuts
6
CONTINUOUS
10
4.8946423622047242
20
-4.3636161023622044
11
4.8832271259842521
21
-4.3621132677165351
0
LINE
8
Edge.Cuts
6
CONTINUOUS
10
4.8832271259842521
20
-4.3621132677165351
11
4.8717134251968499
21
-4.3621132677165351
0
LINE
8
Edge.Cuts
6
CONTINUOUS
10
4.8717134251968499
20
-4.3621132677165351
11
4.8602981889763779
21
-4.3636161023622044
0
LINE
8
Edge.Cuts
6
CONTINUOUS
10
4.8602981889763779
20
-4.3636161023622044
11
4.8491768110236215
21
-4.3665960629921257
0
LINE
8
Edge.Cuts
6
CONTINUOUS
10
4.8491768110236215
20
-4.3665960629921257
11
4.838539527559055
21
-4.3710021653543309
0
LINE
8
Edge.Cuts
6
CONTINUOUS
10
4.838539527559055
20
-4.3710021653543309
11
4.8285683464566924
21
-4.3767590551181099
0
LINE
8
Edge.Cuts
6
CONTINUOUS
10
4.8285683464566924
20
-4.3767590551181099
11
4.8194338976377953
21
-4.3837681496062988
0
LINE
8
Edge.Cuts
6
CONTINUOUS
10
4.8194338976377953
20
-4.3837681496062988
11
4.8112924803149602
21
-4.3919095669291339
0
LINE
8
Edge.Cuts
6
CONTINUOUS
10
4.8112924803149602
20
-4.3919095669291339
11
4.8042833858267713
21
-4.4010440157480311
0
LINE
8
Edge.Cuts
6
CONTINUOUS
10
4.8042833858267713
20
-4.4010440157480311
11
4.7985264960629923
21
-4.4110151968503937
0
LINE
8
Edge.Cuts
6
CONTINUOUS
10
4.7985264960629923
20
-4.4110151968503937
11
4.794120393700787
21
-4.4216524803149602
0
LINE
8
Edge.Cuts
6
CONTINUOUS
10
4.794120393700787
20
-4.4216524803149602
11
4.7911404330708658
21
-4.4327738582677165
0
LINE
8
Edge.Cuts
6
CONTINUOUS
10
4.7911404330708658
20
-4.4327738582677165
11
4.7896375984251964
21
-4.4441890944881886
0
LINE
8
Edge.Cuts
6
CONTINUOUS
10
4.7896375984251964
20
-4.4441890944881886
11
4.7896375984251964
21
-4.4557027952755908
0
LINE
8
Edge.Cuts
6
CONTINUOUS
10
4.2427741338582674
20
-4.0188388582677161
11
4.2551617322834643
21
-4.0213028740157482
0
LINE
8
Edge.Cuts
6
CONTINUOUS
10
4.2551617322834643
20
-4.0213028740157482
11
4.267248188976378
21
-4.0249692519685034
0
LINE
8
Edge.Cuts
6
CONTINUOUS
10
4.267248188976378
20
-4.0249692519685034
11
4.2789170472440947
21
-4.0298026771653541
0
LINE
8
Edge.Cuts
6
CONTINUOUS
10
4.2789170472440947
20
-4.0298026771653541
11
4.2900559842519685
21
-4.0357565354330704
0
LINE
8
Edge.Cuts
6
CONTINUOUS
10
4.2900559842519685
20
-4.0357565354330704
11
4.3005576771653544
21
-4.0427735433070868
0
LINE
8
Edge.Cuts
6
CONTINUOUS
10
4.3005576771653544
20
-4.0427735433070868
11
4.3103210236220475
21
-4.0507861417322832
0
LINE
8
Edge.Cuts
6
CONTINUOUS
10
4.3103210236220475
20
-4.0507861417322832
11
4.319251968503937
21
-4.0597170866141727
0
LINE
8
Edge.Cuts
6
CONTINUOUS
10
4.319251968503937
20
-4.0597170866141727
11
4.3272645669291334
21
-4.0694804330708658
0
LINE
8
Edge.Cuts
6
CONTINUOUS
10
4.3272645669291334
20
-4.0694804330708658
11
4.3342815748031498
21
-4.0799821259842517
0
LINE
8
Edge.Cuts
6
CONTINUOUS
10
4.3342815748031498
20
-4.0799821259842517
11
4.3402354330708661
21
-4.0911210629921255
0
LINE
8
Edge.Cuts
6
CONTINUOUS
10
4.3402354330708661
20
-4.0911210629921255
11
4.3450688582677168
21
-4.1027899212598422
0
LINE
8
Edge.Cuts
6
CONTINUOUS
10
4.3450688582677168
20
-4.1027899212598422
11
4.3487352362204721
21
-4.114876377952756
0
LINE
8
Edge.Cuts
6
CONTINUOUS
10
4.3487352362204721
20
-4.114876377952756
11
4.3511992519685041
21
-4.1272639763779528
0
LINE
8
Edge.Cuts
6
CONTINUOUS
10
4.3511992519685041
20
-4.1272639763779528
11
4.3524372440944878
21
-4.1398334251968505
0
LINE
8
Edge.Cuts
6
CONTINUOUS
10
4.3524372440944878
20
-4.1398334251968505
11
4.3524372440944878
21
-4.1524637401574802
0
LINE
8
Edge.Cuts
6
CONTINUOUS
10
4.3524372440944878
20
-4.1524637401574802
11
4.3511992519685041
21
-4.1650331889763779
0
LINE
8
Edge.Cuts
6
CONTINUOUS
10
4.3511992519685041
20
-4.1650331889763779
11
4.3487352362204721
21
-4.1774207874015747
0
LINE
8
Edge.Cuts
6
CONTINUOUS
10
4.3487352362204721
20
-4.1774207874015747
11
4.3450688582677168
21
-4.1895072440944885
0
LINE
8
Edge.Cuts
6
CONTINUOUS
10
4.3450688582677168
20
-4.1895072440944885
11
4.3402354330708661
21
-4.2011761023622043
0
LINE
8
Edge.Cuts
6
CONTINUOUS
10
4.3402354330708661
20
-4.2011761023622043
11
4.3342815748031498
21
-4.212315039370079
0
LINE
8
Edge.Cuts
6
CONTINUOUS
10
4.3342815748031498
20
-4.212315039370079
11
4.3272645669291334
21
-4.2228167322834649
0
LINE
8
Edge.Cuts
6
CONTINUOUS
10
4.3272645669291334
20
-4.2228167322834649
11
4.319251968503937
21
-4.2325800787401571
0
LINE
8
Edge.Cuts
6
CONTINUOUS
10
4.319251968503937
20
-4.2325800787401571
11
4.3103210236220475
21
-4.2415110236220475
0
LINE
8
Edge.Cuts
6
CONTINUOUS
10
4.3103210236220475
20
-4.2415110236220475
11
4.3005576771653544
21
-4.2495236220472439
0
LINE
8
Edge.Cuts
6
CONTINUOUS
10
4.3005576771653544
20
-4.2495236220472439
11
4.2900559842519685
21
-4.2565406299212594
0
LINE
8
Edge.Cuts
6
CONTINUOUS
10
4.2900559842519685
20
-4.2565406299212594
11
4.2789170472440947
21
-4.2624944881889766
0
LINE
8
Edge.Cuts
6
CONTINUOUS
10
4.2789170472440947
20
-4.2624944881889766
11
4.267248188976378
21
-4.2673279133858264
0
LINE
8
Edge.Cuts
6
CONTINUOUS
10
4.267248188976378
20
-4.2673279133858264
11
4.2551617322834643
21
-4.2709942913385825
0
LINE
8
Edge.Cuts
6
CONTINUOUS
10
4.2551617322834643
20
-4.2709942913385825
11
4.2427741338582674
21
-4.2734583070866137
0
LINE
8
Edge.Cuts
6
CONTINUOUS
10
4.2427741338582674
20
-4.2734583070866137
11
4.2302046850393697
21
-4.2746962992125983
0
LINE
8
Edge.Cuts
6
CONTINUOUS
10
4.2302046850393697
20
-4.2746962992125983
11
4.21757437007874
21
-4.2746962992125983
0
LINE
8
Edge.Cuts
6
CONTINUOUS
10
4.21757437007874
20
-4.2746962992125983
11
4.2050049212598424
21
-4.2734583070866137
0
LINE
8
Edge.Cuts
6
CONTINUOUS
10
4.2050049212598424
20
-4.2734583070866137
11
4.1926173228346455
21
-4.2709942913385825
0
LINE
8
Edge.Cuts
6
CONTINUOUS
10
4.1926173228346455
20
-4.2709942913385825
11
4.1805308661417317
21
-4.2673279133858264
0
LINE
8
Edge.Cuts
6
CONTINUOUS
10
4.1805308661417317
20
-4.2673279133858264
11
4.168862007874016
21
-4.2624944881889766
0
LINE
8
Edge.Cuts
6
CONTINUOUS
10
4.168862007874016
20
-4.2624944881889766
11
4.1577230708661412
21
-4.2565406299212594
0
LINE
8
Edge.Cuts
6
CONTINUOUS
10
4.1577230708661412
20
-4.2565406299212594
11
4.1472213779527562
21
-4.2495236220472439
0
LINE
8
Edge.Cuts
6
CONTINUOUS
10
4.1472213779527562
20
-4.2495236220472439
11
4.1374580314960632
21
-4.2415110236220475
0
LINE
8
Edge.Cuts
6
CONTINUOUS
10
4.1374580314960632
20
-4.2415110236220475
11
4.1285270866141728
21
-4.2325800787401571
0
LINE
8
Edge.Cuts
6
CONTINUOUS
10
4.1285270866141728
20
-4.2325800787401571
11
4.1205144881889764
21
-4.2228167322834649
0
LINE
8
Edge.Cuts
6
CONTINUOUS
10
4.1205144881889764
20
-4.2228167322834649
11
4.1134974803149609
21
-4.212315039370079
0
LINE
8
Edge.Cuts
6
CONTINUOUS
10
4.1134974803149609
20
-4.212315039370079
11
4.1075436220472437
21
-4.2011761023622043
0
LINE
8
Edge.Cuts
6
CONTINUOUS
10
4.1075436220472437
20
-4.2011761023622043
11
4.1027101968503938
21
-4.1895072440944885
0
LINE
8
Edge.Cuts
6
CONTINUOUS
10
4.1027101968503938
20
-4.1895072440944885
11
4.0990438188976377
21
-4.1774207874015747
0
LINE
8
Edge.Cuts
6
CONTINUOUS
10
4.0990438188976377
20
-4.1774207874015747
11
4.0965798031496066
21
-4.1650331889763779
0
LINE
8
Edge.Cuts
6
CONTINUOUS
10
4.0965798031496066
20
-4.1650331889763779
11
4.0953418110236219
21
-4.1524637401574802
0
LINE
8
Edge.Cuts
6
CONTINUOUS
10
4.0953418110236219
20
-4.1524637401574802
11
4.0953418110236219
21
-4.1398334251968505
0
LINE
8
Edge.Cuts
6
CONTINUOUS
10
4.0953418110236219
20
-4.1398334251968505
11
4.0954233858267717
21
-4.1390050393700788
0
LINE
8
Edge.Cuts
6
CONTINUOUS
10
4.0954233858267717
20
-4.1390050393700788
11
4.0965798031496066
21
-4.1272639763779528
0
LINE
8
Edge.Cuts
6
CONTINUOUS
10
4.0965798031496066
20
-4.1272639763779528
11
4.0990438188976377
21
-4.114876377952756
0
LINE
8
Edge.Cuts
6
CONTINUOUS
10
4.0990438188976377
20
-4.114876377952756
11
4.1027101968503938
21
-4.1027899212598422
0
LINE
8
Edge.Cuts
6
CONTINUOUS
10
4.1027101968503938
20
-4.1027899212598422
11
4.1075436220472437
21
-4.0911210629921255
0
LINE
8
Edge.Cuts
6
CONTINUOUS
10
4.1075436220472437
20
-4.0911210629921255
11
4.1134974803149609
21
-4.0799821259842517
0
LINE
8
Edge.Cuts
6
CONTINUOUS
10
4.1134974803149609
20
-4.0799821259842517
11
4.1205144881889764
21
-4.0694804330708658
0
LINE
8
Edge.Cuts
6
CONTINUOUS
10
4.1205144881889764
20
-4.0694804330708658
11
4.1285270866141728
21
-4.0597170866141727
0
LINE
8
Edge.Cuts
6
CONTINUOUS
10
4.1285270866141728
20
-4.0597170866141727
11
4.1374580314960632
21
-4.0507861417322832
0
LINE
8
Edge.Cuts
6
CONTINUOUS
10
4.1374580314960632
20
-4.0507861417322832
11
4.1472213779527562
21
-4.0427735433070868
0
LINE
8
Edge.Cuts
6
CONTINUOUS
10
4.1472213779527562
20
-4.0427735433070868
11
4.1577230708661412
21
-4.0357565354330704
0
LINE
8
Edge.Cuts
6
CONTINUOUS
10
4.1577230708661412
20
-4.0357565354330704
11
4.168862007874016
21
-4.0298026771653541
0
LINE
8
Edge.Cuts
6
CONTINUOUS
10
4.168862007874016
20
-4.0298026771653541
11
4.1805308661417317
21
-4.0249692519685034
0
LINE
8
Edge.Cuts
6
CONTINUOUS
10
4.1805308661417317
20
-4.0249692519685034
11
4.1926173228346455
21
-4.0213028740157482
0
LINE
8
Edge.Cuts
6
CONTINUOUS
10
4.1926173228346455
20
-4.0213028740157482
11
4.2050049212598424
21
-4.0188388582677161
0
LINE
8
Edge.Cuts
6
CONTINUOUS
10
4.2050049212598424
20
-4.0188388582677161
11
4.21757437007874
21
-4.0176008661417324
0
LINE
8
Edge.Cuts
6
CONTINUOUS
10
4.21757437007874
20
-4.0176008661417324
11
4.2302046850393697
21
-4.0176008661417324
0
LINE
8
Edge.Cuts
6
CONTINUOUS
10
4.2302046850393697
20
-4.0176008661417324
11
4.2427741338582674
21
-4.0188388582677161
0
LINE
8
Edge.Cuts
6
CONTINUOUS
10
4.0966867716535429
20
-4.1532921259842519
11
4.0982864173228348
21
-4.1674894094488186
0
LINE
8
Edge.Cuts
6
CONTINUOUS
10
4.0982864173228348
20
-4.1674894094488186
11
4.1014655905511814
21
-4.1814183070866138
0
LINE
8
Edge.Cuts
6
CONTINUOUS
10
4.1014655905511814
20
-4.1814183070866138
11
4.1061843307086612
21
-4.1949036614173227
0
LINE
8
Edge.Cuts
6
CONTINUOUS
10
4.1061843307086612
20
-4.1949036614173227
11
4.1123832677165355
21
-4.2077759055118111
0
LINE
8
Edge.Cuts
6
CONTINUOUS
10
4.1123832677165355
20
-4.2077759055118111
11
4.119984488188976
21
-4.2198731496062996
0
LINE
8
Edge.Cuts
6
CONTINUOUS
10
4.119984488188976
20
-4.2198731496062996
11
4.1288923228346457
21
-4.2310432677165357
0
LINE
8
Edge.Cuts
6
CONTINUOUS
10
4.1288923228346457
20
-4.2310432677165357
11
4.1389948425196845
21
-4.2411457874015746
0
LINE
8
Edge.Cuts
6
CONTINUOUS
10
4.1389948425196845
20
-4.2411457874015746
11
4.1501649606299216
21
-4.2500536220472442
0
LINE
8
Edge.Cuts
6
CONTINUOUS
10
4.1501649606299216
20
-4.2500536220472442
11
4.1622622047244091
21
-4.2576548425196847
0
LINE
8
Edge.Cuts
6
CONTINUOUS
10
4.1622622047244091
20
-4.2576548425196847
11
4.1751344488188975
21
-4.2638537795275591
0
LINE
8
Edge.Cuts
6
CONTINUOUS
10
4.1751344488188975
20
-4.2638537795275591
11
4.1886198031496065
21
-4.2685725196850397
0
LINE
8
Edge.Cuts
6
CONTINUOUS
10
4.1886198031496065
20
-4.2685725196850397
11
4.2025487007874016
21
-4.2717516929133854
0
LINE
8
Edge.Cuts
6
CONTINUOUS
10
4.2025487007874016
20
-4.2717516929133854
11
4.2167459842519683
21
-4.2733513385826774
0
LINE
8
Edge.Cuts
6
CONTINUOUS
10
4.2167459842519683
20
-4.2733513385826774
11
4.2310330708661414
21
-4.2733513385826774
0
LINE
8
Edge.Cuts
6
CONTINUOUS
10
4.2310330708661414
20
-4.2733513385826774
11
4.2452303543307082
21
-4.2717516929133854
0
LINE
8
Edge.Cuts
6
CONTINUOUS
10
4.2452303543307082
20
-4.2717516929133854
11
4.2591592519685042
21
-4.2685725196850397
0
LINE
8
Edge.Cuts
6
CONTINUOUS
10
4.2591592519685042
20
-4.2685725196850397
11
4.2726446062992123
21
-4.2638537795275591
0
LINE
8
Edge.Cuts
6
CONTINUOUS
10
4.2726446062992123
20
-4.2638537795275591
11
4.2855168503937007
21
-4.2576548425196847
0
LINE
8
Edge.Cuts
6
CONTINUOUS
10
4.2855168503937007
20
-4.2576548425196847
11
4.2976140944881891
21
-4.2500536220472442
0
LINE
8
Edge.Cuts
6
CONTINUOUS
10
4.2976140944881891
20
-4.2500536220472442
11
4.3087842125984253
21
-4.2411457874015746
0
LINE
8
Edge.Cuts
6
CONTINUOUS
10
4.3087842125984253
20
-4.2411457874015746
11
4.3188867322834641
21
-4.2310432677165357
0
LINE
8
Edge.Cuts
6
CONTINUOUS
10
4.3188867322834641
20
-4.2310432677165357
11
4.3277945669291338
21
-4.2198731496062996
0
LINE
8
Edge.Cuts
6
CONTINUOUS
10
4.3277945669291338
20
-4.2198731496062996
11
4.3353957874015743
21
-4.2077759055118111
0
LINE
8
Edge.Cuts
6
CONTINUOUS
10
4.3353957874015743
20
-4.2077759055118111
11
4.3415947244094486
21
-4.1949036614173227
0
LINE
8
Edge.Cuts
6
CONTINUOUS
10
4.3415947244094486
20
-4.1949036614173227
11
4.3463134645669292
21
-4.1814183070866138
0
LINE
8
Edge.Cuts
6
CONTINUOUS
10
4.3463134645669292
20
-4.1814183070866138
11
4.3494926377952758
21
-4.1674894094488186
0
LINE
8
Edge.Cuts
6
CONTINUOUS
10
4.3494926377952758
20
-4.1674894094488186
11
4.3510922834645669
21
-4.1532921259842519
0
LINE
8
Edge.Cuts
6
CONTINUOUS
10
4.3510922834645669
20
-4.1532921259842519
11
4.3510922834645669
21
-4.1390050393700788
0
LINE
8
Edge.Cuts
6
CONTINUOUS
10
4.3510922834645669
20
-4.1390050393700788
11
4.3494926377952758
21
-4.1248077559055121
0
LINE
8
Edge.Cuts
6
CONTINUOUS
10
4.3494926377952758
20
-4.1248077559055121
11
4.3463134645669292
21
-4.110878858267716
0
LINE
8
Edge.Cuts
6
CONTINUOUS
10
4.3463134645669292
20
-4.110878858267716
11
4.3415947244094486
21
-4.097393503937008
0
LINE
8
Edge.Cuts
6
CONTINUOUS
10
4.3415947244094486
20
-4.097393503937008
11
4.3353957874015743
21
-4.0845212598425196
0
LINE
8
Edge.Cuts
6
CONTINUOUS
10
4.3353957874015743
20
-4.0845212598425196
11
4.3277945669291338
21
-4.0724240157480311
0
LINE
8
Edge.Cuts
6
CONTINUOUS
10
4.3277945669291338
20
-4.0724240157480311
11
4.3188867322834641
21
-4.061253897637795
0
LINE
8
Edge.Cuts
6
CONTINUOUS
10
4.3188867322834641
20
-4.061253897637795
11
4.3087842125984253
21
-4.0511513779527561
0
LINE
8
Edge.Cuts
6
CONTINUOUS
10
4.3087842125984253
20
-4.0511513779527561
11
4.2976140944881891
21
-4.0422435433070865
0
LINE
8
Edge.Cuts
6
CONTINUOUS
10
4.2976140944881891
20
-4.0422435433070865
11
4.2855168503937007
21
-4.034642322834646
0
LINE
8
Edge.Cuts
6
CONTINUOUS
10
4.2855168503937007
20
-4.034642322834646
11
4.2726446062992123
21
-4.0284433858267716
0
LINE
8
Edge.Cuts
6
CONTINUOUS
10
4.2726446062992123
20
-4.0284433858267716
11
4.2591592519685042
21
-4.023724645669291
0
LINE
8
Edge.Cuts
6
CONTINUOUS
10
4.2591592519685042
20
-4.023724645669291
11
4.2452303543307082
21
-4.0205454724409444
0
LINE
8
Edge.Cuts
6
CONTINUOUS
10
4.2452303543307082
20
-4.0205454724409444
11
4.2310330708661414
21
-4.0189458267716534
0
LINE
8
Edge.Cuts
6
CONTINUOUS
10
4.2310330708661414
20
-4.0189458267716534
11
4.2167459842519683
21
-4.0189458267716534
0
LINE
8
Edge.Cuts
6
CONTINUOUS
10
4.2167459842519683
20
-4.0189458267716534
11
4.2025487007874016
21
-4.0205454724409444
0
LINE
8
Edge.Cuts
6
CONTINUOUS
10
4.2025487007874016
20
-4.0205454724409444
11
4.1886198031496065
21
-4.023724645669291
0
LINE
8
Edge.Cuts
6
CONTINUOUS
10
4.1886198031496065
20
-4.023724645669291
11
4.1751344488188975
21
-4.0284433858267716
0
LINE
8
Edge.Cuts
6
CONTINUOUS
10
4.1751344488188975
20
-4.0284433858267716
11
4.1622622047244091
21
-4.034642322834646
0
LINE
8
Edge.Cuts
6
CONTINUOUS
10
4.1622622047244091
20
-4.034642322834646
11
4.1501649606299216
21
-4.0422435433070865
0
LINE
8
Edge.Cuts
6
CONTINUOUS
10
4.1501649606299216
20
-4.0422435433070865
11
4.1389948425196845
21
-4.0511513779527561
0
LINE
8
Edge.Cuts
6
CONTINUOUS
10
4.1389948425196845
20
-4.0511513779527561
11
4.1288923228346457
21
-4.061253897637795
0
LINE
8
Edge.Cuts
6
CONTINUOUS
10
4.1288923228346457
20
-4.061253897637795
11
4.119984488188976
21
-4.0724240157480311
0
LINE
8
Edge.Cuts
6
CONTINUOUS
10
4.119984488188976
20
-4.0724240157480311
11
4.1123832677165355
21
-4.0845212598425196
0
LINE
8
Edge.Cuts
6
CONTINUOUS
10
4.1123832677165355
20
-4.0845212598425196
11
4.1061843307086612
21
-4.097393503937008
0
LINE
8
Edge.Cuts
6
CONTINUOUS
10
4.1061843307086612
20
-4.097393503937008
11
4.1014655905511814
21
-4.110878858267716
0
LINE
8
Edge.Cuts
6
CONTINUOUS
10
4.1014655905511814
20
-4.110878858267716
11
4.0982864173228348
21
-4.1248077559055121
0
LINE
8
Edge.Cuts
6
CONTINUOUS
10
4.0982864173228348
20
-4.1248077559055121
11
4.0966867716535429
21
-4.1390050393700788
0
LINE
8
Edge.Cuts
6
CONTINUOUS
10
4.0966867716535429
20
-4.1390050393700788
11
4.0966867716535429
21
-4.1532921259842519
0
LINE
8
Edge.Cuts
6
CONTINUOUS
10
4.8949028740157479
20
-3.7623198425196849
11
4.9061899606299209
21
-3.7653442125984253
0
LINE
8
Edge.Cuts
6
CONTINUOUS
10
4.9061899606299209
20
-3.7653442125984253
11
4.9169857480314958
21
-3.7698159842519683
0
LINE
8
Edge.Cuts
6
CONTINUOUS
10
4.9169857480314958
20
-3.7698159842519683
11
4.9271055118110239
21
-3.7756586220472439
0
LINE
8
Edge.Cuts
6
CONTINUOUS
10
4.9271055118110239
20
-3.7756586220472439
11
4.9363760629921263
21
-3.7827721653543307
0
LINE
8
Edge.Cuts
6
CONTINUOUS
10
4.9363760629921263
20
-3.7827721653543307
11
4.9446387795275593
21
-3.7910348818897637
0
LINE
8
Edge.Cuts
6
CONTINUOUS
10
4.9446387795275593
20
-3.7910348818897637
11
4.9517523228346452
21
-3.8003054330708661
0
LINE
8
Edge.Cuts
6
CONTINUOUS
10
4.9517523228346452
20
-3.8003054330708661
11
4.9575949606299208
21
-3.8104251968503937
0
LINE
8
Edge.Cuts
6
CONTINUOUS
10
4.9575949606299208
20
-3.8104251968503937
11
4.9620667322834642
21
-3.8212209842519682
0
LINE
8
Edge.Cuts
6
CONTINUOUS
10
4.9620667322834642
20
-3.8212209842519682
11
4.9650911023622042
21
-3.8325080708661416
0
LINE
8
Edge.Cuts
6
CONTINUOUS
10
4.9650911023622042
20
-3.8325080708661416
11
4.9666163385826767
21
-3.8440933858267714
0
LINE
8
Edge.Cuts
6
CONTINUOUS
10
4.9666163385826767
20
-3.8440933858267714
11
4.9666163385826767
21
-3.8557786614173226
0
LINE
8
Edge.Cuts
6
CONTINUOUS
10
4.9666163385826767
20
-3.8557786614173226
11
4.9650911023622042
21
-3.8673639763779528
0
LINE
8
Edge.Cuts
6
CONTINUOUS
10
4.9650911023622042
20
-3.8673639763779528
11
4.9620667322834642
21
-3.8786510629921258
0
LINE
8
Edge.Cuts
6
CONTINUOUS
10
4.9620667322834642
20
-3.8786510629921258
11
4.9575949606299208
21
-3.8894468503937007
0
LINE
8
Edge.Cuts
6
CONTINUOUS
10
4.9575949606299208
20
-3.8894468503937007
11
4.9517523228346452
21
-3.8995666141732284
0
LINE
8
Edge.Cuts
6
CONTINUOUS
10
4.9517523228346452
20
-3.8995666141732284
11
4.9446387795275593
21
-3.9088371653543308
0
LINE
8
Edge.Cuts
6
CONTINUOUS
10
4.9446387795275593
20
-3.9088371653543308
11
4.9363760629921263
21
-3.9170998818897638
0
LINE
8
Edge.Cuts
6
CONTINUOUS
10
4.9363760629921263
20
-3.9170998818897638
11
4.9271055118110239
21
-3.9242134251968501
0
LINE
8
Edge.Cuts
6
CONTINUOUS
10
4.9271055118110239
20
-3.9242134251968501
11
4.9169857480314958
21
-3.9300560629921257
0
LINE
8
Edge.Cuts
6
CONTINUOUS
10
4.9169857480314958
20
-3.9300560629921257
11
4.9061899606299209
21
-3.9345278346456691
0
LINE
8
Edge.Cuts
6
CONTINUOUS
10
4.9061899606299209
20
-3.9345278346456691
11
4.8949028740157479
21
-3.9375522047244091
0
LINE
8
Edge.Cuts
6
CONTINUOUS
10
4.8949028740157479
20
-3.9375522047244091
11
4.8833175590551177
21
-3.9390774409448817
0
LINE
8
Edge.Cuts
6
CONTINUOUS
10
4.8833175590551177
20
-3.9390774409448817
11
4.8716322834645664
21
-3.9390774409448817
0
LINE
8
Edge.Cuts
6
CONTINUOUS
10
4.8716322834645664
20
-3.9390774409448817
11
4.8600469685039371
21
-3.9375522047244091
0
LINE
8
Edge.Cuts
6
CONTINUOUS
10
4.8600469685039371
20
-3.9375522047244091
11
4.8487598818897633
21
-3.9345278346456691
0
LINE
8
Edge.Cuts
6
CONTINUOUS
10
4.8487598818897633
20
-3.9345278346456691
11
4.8379640944881892
21
-3.9300560629921257
0
LINE
8
Edge.Cuts
6
CONTINUOUS
10
4.8379640944881892
20
-3.9300560629921257
11
4.8278443307086611
21
-3.9242134251968501
0
LINE
8
Edge.Cuts
6
CONTINUOUS
10
4.8278443307086611
20
-3.9242134251968501
11
4.8185737795275587
21
-3.9170998818897638
0
LINE
8
Edge.Cuts
6
CONTINUOUS
10
4.8185737795275587
20
-3.9170998818897638
11
4.8103110629921257
21
-3.9088371653543308
0
LINE
8
Edge.Cuts
6
CONTINUOUS
10
4.8103110629921257
20
-3.9088371653543308
11
4.8031975196850389
21
-3.8995666141732284
0
LINE
8
Edge.Cuts
6
CONTINUOUS
10
4.8031975196850389
20
-3.8995666141732284
11
4.7973548818897633
21
-3.8894468503937007
0
LINE
8
Edge.Cuts
6
CONTINUOUS
10
4.7973548818897633
20
-3.8894468503937007
11
4.7928831102362199
21
-3.8786510629921258
0
LINE
8
Edge.Cuts
6
CONTINUOUS
10
4.7928831102362199
20
-3.8786510629921258
11
4.7898587401574799
21
-3.8673639763779528
0
LINE
8
Edge.Cuts
6
CONTINUOUS
10
4.7898587401574799
20
-3.8673639763779528
11
4.7883335039370074
21
-3.8557786614173226
0
LINE
8
Edge.Cuts
6
CONTINUOUS
10
4.7883335039370074
20
-3.8557786614173226
11
4.7883335039370074
21
-3.8441791732283463
0
LINE
8
Edge.Cuts
6
CONTINUOUS
10
4.7883335039370074
20
-3.8441791732283463
11
4.7883335039370074
21
-3.8440933858267714
0
LINE
8
Edge.Cuts
6
CONTINUOUS
10
4.7883335039370074
20
-3.8440933858267714
11
4.7898587401574799
21
-3.8325080708661416
0
LINE
8
Edge.Cuts
6
CONTINUOUS
10
4.7898587401574799
20
-3.8325080708661416
11
4.7928831102362199
21
-3.8212209842519682
0
LINE
8
Edge.Cuts
6
CONTINUOUS
10
4.7928831102362199
20
-3.8212209842519682
11
4.7973548818897633
21
-3.8104251968503937
0
LINE
8
Edge.Cuts
6
CONTINUOUS
10
4.7973548818897633
20
-3.8104251968503937
11
4.8031975196850389
21
-3.8003054330708661
0
LINE
8
Edge.Cuts
6
CONTINUOUS
10
4.8031975196850389
20
-3.8003054330708661
11
4.8103110629921257
21
-3.7910348818897637
0
LINE
8
Edge.Cuts
6
CONTINUOUS
10
4.8103110629921257
20
-3.7910348818897637
11
4.8185737795275587
21
-3.7827721653543307
0
LINE
8
Edge.Cuts
6
CONTINUOUS
10
4.8185737795275587
20
-3.7827721653543307
11
4.8278443307086611
21
-3.7756586220472439
0
LINE
8
Edge.Cuts
6
CONTINUOUS
10
4.8278443307086611
20
-3.7756586220472439
11
4.8379640944881892
21
-3.7698159842519683
0
LINE
8
Edge.Cuts
6
CONTINUOUS
10
4.8379640944881892
20
-3.7698159842519683
11
4.8487598818897633
21
-3.7653442125984253
0
LINE
8
Edge.Cuts
6
CONTINUOUS
10
4.8487598818897633
20
-3.7653442125984253
11
4.8600469685039371
21
-3.7623198425196849
0
LINE
8
Edge.Cuts
6
CONTINUOUS
10
4.8600469685039371
20
-3.7623198425196849
11
4.8716322834645664
21
-3.7607946062992124
0
LINE
8
Edge.Cuts
6
CONTINUOUS
10
4.8716322834645664
20
-3.7607946062992124
11
4.8833175590551177
21
-3.7607946062992124
0
LINE
8
Edge.Cuts
6
CONTINUOUS
10
4.8833175590551177
20
-3.7607946062992124
11
4.8949028740157479
21
-3.7623198425196849
0
LINE
8
Edge.Cuts
6
CONTINUOUS
10
4.7896422440944884
20
-3.8556928740157481
11
4.7911450787401577
21
-3.8671081102362206
0
LINE
8
Edge.Cuts
6
CONTINUOUS
10
4.7911450787401577
20
-3.8671081102362206
11
4.7941250393700789
21
-3.8782294881889765
0
LINE
8
Edge.Cuts
6
CONTINUOUS
10
4.7941250393700789
20
-3.8782294881889765
11
4.7985311417322833
21
-3.888866771653543
0
LINE
8
Edge.Cuts
6
CONTINUOUS
10
4.7985311417322833
20
-3.888866771653543
11
4.8042880314960632
21
-3.8988379527559056
0
LINE
8
Edge.Cuts
6
CONTINUOUS
10
4.8042880314960632
20
-3.8988379527559056
11
4.8112971259842521
21
-3.9079724015748032
0
LINE
8
Edge.Cuts
6
CONTINUOUS
10
4.8112971259842521
20
-3.9079724015748032
11
4.8194385433070863
21
-3.9161138188976379
0
LINE
8
Edge.Cuts
6
CONTINUOUS
10
4.8194385433070863
20
-3.9161138188976379
11
4.8285729921259843
21
-3.9231229133858267
0
LINE
8
Edge.Cuts
6
CONTINUOUS
10
4.8285729921259843
20
-3.9231229133858267
11
4.8385441732283461
21
-3.9288798031496062
0
LINE
8
Edge.Cuts
6
CONTINUOUS
10
4.8385441732283461
20
-3.9288798031496062
11
4.8491814566929135
21
-3.933285905511811
0
LINE
8
Edge.Cuts
6
CONTINUOUS
10
4.8491814566929135
20
-3.933285905511811
11
4.8603028346456689
21
-3.9362658661417322
0
LINE
8
Edge.Cuts
6
CONTINUOUS
10
4.8603028346456689
20
-3.9362658661417322
11
4.8717180708661418
21
-3.9377687007874016
0
LINE
8
Edge.Cuts
6
CONTINUOUS
10
4.8717180708661418
20
-3.9377687007874016
11
4.8832317716535432
21
-3.9377687007874016
0
LINE
8
Edge.Cuts
6
CONTINUOUS
10
4.8832317716535432
20
-3.9377687007874016
11
4.8946470078740161
21
-3.9362658661417322
0
LINE
8
Edge.Cuts
6
CONTINUOUS
10
4.8946470078740161
20
-3.9362658661417322
11
4.9057683858267715
21
-3.933285905511811
0
LINE
8
Edge.Cuts
6
CONTINUOUS
10
4.9057683858267715
20
-3.933285905511811
11
4.916405669291338
21
-3.9288798031496062
0
LINE
8
Edge.Cuts
6
CONTINUOUS
10
4.916405669291338
20
-3.9288798031496062
11
4.9263768503937007
21
-3.9231229133858267
0
LINE
8
Edge.Cuts
6
CONTINUOUS
10
4.9263768503937007
20
-3.9231229133858267
11
4.9355112992125987
21
-3.9161138188976379
0
LINE
8
Edge.Cuts
6
CONTINUOUS
10
4.9355112992125987
20
-3.9161138188976379
11
4.9436527165354329
21
-3.9079724015748032
0
LINE
8
Edge.Cuts
6
CONTINUOUS
10
4.9436527165354329
20
-3.9079724015748032
11
4.9506618110236218
21
-3.8988379527559056
0
LINE
8
Edge.Cuts
6
CONTINUOUS
10
4.9506618110236218
20
-3.8988379527559056
11
4.9564187007874017
21
-3.888866771653543
0
LINE
8
Edge.Cuts
6
CONTINUOUS
10
4.9564187007874017
20
-3.888866771653543
11
4.9608248031496061
21
-3.8782294881889765
0
LINE
8
Edge.Cuts
6
CONTINUOUS
10
4.9608248031496061
20
-3.8782294881889765
11
4.9638047637795273
21
-3.8671081102362206
0
LINE
8
Edge.Cuts
6
CONTINUOUS
10
4.9638047637795273
20
-3.8671081102362206
11
4.9653075984251966
21
-3.8556928740157481
0
LINE
8
Edge.Cuts
6
CONTINUOUS
10
4.9653075984251966
20
-3.8556928740157481
11
4.9653075984251966
21
-3.8441791732283463
0
LINE
8
Edge.Cuts
6
CONTINUOUS
10
4.9653075984251966
20
-3.8441791732283463
11
4.9638047637795273
21
-3.8327639370078739
0
LINE
8
Edge.Cuts
6
CONTINUOUS
10
4.9638047637795273
20
-3.8327639370078739
11
4.9608248031496061
21
-3.821642559055118
0
LINE
8
Edge.Cuts
6
CONTINUOUS
10
4.9608248031496061
20
-3.821642559055118
11
4.9564187007874017
21
-3.811005275590551
0
LINE
8
Edge.Cuts
6
CONTINUOUS
10
4.9564187007874017
20
-3.811005275590551
11
4.9506618110236218
21
-3.8010340944881889
0
LINE
8
Edge.Cuts
6
CONTINUOUS
10
4.9506618110236218
20
-3.8010340944881889
11
4.9436527165354329
21
-3.7918996456692913
0
LINE
8
Edge.Cuts
6
CONTINUOUS
10
4.9436527165354329
20
-3.7918996456692913
11
4.9355112992125987
21
-3.7837582283464566
0
LINE
8
Edge.Cuts
6
CONTINUOUS
10
4.9355112992125987
20
-3.7837582283464566
11
4.9263768503937007
21
-3.7767491338582677
0
LINE
8
Edge.Cuts
6
CONTINUOUS
10
4.9263768503937007
20
-3.7767491338582677
11
4.916405669291338
21
-3.7709922440944883
0
LINE
8
Edge.Cuts
6
CONTINUOUS
10
4.916405669291338
20
-3.7709922440944883
11
4.9057683858267715
21
-3.7665861417322835
0
LINE
8
Edge.Cuts
6
CONTINUOUS
10
4.9057683858267715
20
-3.7665861417322835
11
4.8946470078740161
21
-3.7636061811023622
0
LINE
8
Edge.Cuts
6
CONTINUOUS
10
4.8946470078740161
20
-3.7636061811023622
11
4.8832317716535432
21
-3.7621033464566929
0
LINE
8
Edge.Cuts
6
CONTINUOUS
10
4.8832317716535432
20
-3.7621033464566929
11
4.8717180708661418
21
-3.7621033464566929
0
LINE
8
Edge.Cuts
6
CONTINUOUS
10
4.8717180708661418
20
-3.7621033464566929
11
4.8603028346456689
21
-3.7636061811023622
0
LINE
8
Edge.Cuts
6
CONTINUOUS
10
4.8603028346456689
20
-3.7636061811023622
11
4.8491814566929135
21
-3.7665861417322835
0
LINE
8
Edge.Cuts
6
CONTINUOUS
10
4.8491814566929135
20
-3.7665861417322835
11
4.8385441732283461
21
-3.7709922440944883
0
LINE
8
Edge.Cuts
6
CONTINUOUS
10
4.8385441732283461
20
-3.7709922440944883
11
4.8285729921259843
21
-3.7767491338582677
0
LINE
8
Edge.Cuts
6
CONTINUOUS
10
4.8285729921259843
20
-3.7767491338582677
11
4.8194385433070863
21
-3.7837582283464566
0
LINE
8
Edge.Cuts
6
CONTINUOUS
10
4.8194385433070863
20
-3.7837582283464566
11
4.8112971259842521
21
-3.7918996456692913
0
LINE
8
Edge.Cuts
6
CONTINUOUS
10
4.8112971259842521
20
-3.7918996456692913
11
4.8042880314960632
21
-3.8010340944881889
0
LINE
8
Edge.Cuts
6
CONTINUOUS
10
4.8042880314960632
20
-3.8010340944881889
11
4.7985311417322833
21
-3.811005275590551
0
LINE
8
Edge.Cuts
6
CONTINUOUS
10
4.7985311417322833
20
-3.811005275590551
11
4.7941250393700789
21
-3.821642559055118
0
LINE
8
Edge.Cuts
6
CONTINUOUS
10
4.7941250393700789
20
-3.821642559055118
11
4.7911450787401577
21
-3.8327639370078739
0
LINE
8
Edge.Cuts
6
CONTINUOUS
10
4.7911450787401577
20
-3.8327639370078739
11
4.7896422440944884
21
-3.8441791732283463
0
LINE
8
Edge.Cuts
6
CONTINUOUS
10
4.7896422440944884
20
-3.8441791732283463
11
4.7896422440944884
21
-3.8556928740157481
0
LINE
8
Edge.Cuts
6
CONTINUOUS
10
4.2427741338582674
20
-3.4282876771653541
11
4.2551617322834643
21
-3.4307516929133857
0
LINE
8
Edge.Cuts
6
CONTINUOUS
10
4.2551617322834643
20
-3.4307516929133857
11
4.267248188976378
21
-3.4344180708661418
0
LINE
8
Edge.Cuts
6
CONTINUOUS
10
4.267248188976378
20
-3.4344180708661418
11
4.2789170472440947
21
-3.4392514960629921
0
LINE
8
Edge.Cuts
6
CONTINUOUS
10
4.2789170472440947
20
-3.4392514960629921
11
4.2900559842519685
21
-3.4452053543307084
0
LINE
8
Edge.Cuts
6
CONTINUOUS
10
4.2900559842519685
20
-3.4452053543307084
11
4.3005576771653544
21
-3.4522223622047243
0
LINE
8
Edge.Cuts
6
CONTINUOUS
10
4.3005576771653544
20
-3.4522223622047243
11
4.3103210236220475
21
-3.4602349606299212
0
LINE
8
Edge.Cuts
6
CONTINUOUS
10
4.3103210236220475
20
-3.4602349606299212
11
4.319251968503937
21
-3.4691659055118111
0
LINE
8
Edge.Cuts
6
CONTINUOUS
10
4.319251968503937
20
-3.4691659055118111
11
4.3272645669291334
21
-3.4789292519685038
0
LINE
8
Edge.Cuts
6
CONTINUOUS
10
4.3272645669291334
20
-3.4789292519685038
11
4.3342815748031498
21
-3.4894309448818897
0
LINE
8
Edge.Cuts
6
CONTINUOUS
10
4.3342815748031498
20
-3.4894309448818897
11
4.3402354330708661
21
-3.5005698818897635
0
LINE
8
Edge.Cuts
6
CONTINUOUS
10
4.3402354330708661
20
-3.5005698818897635
11
4.3450688582677168
21
-3.5122387401574802
0
LINE
8
Edge.Cuts
6
CONTINUOUS
10
4.3450688582677168
20
-3.5122387401574802
11
4.3487352362204721
21
-3.5243251968503935
0
LINE
8
Edge.Cuts
6
CONTINUOUS
10
4.3487352362204721
20
-3.5243251968503935
11
4.3511992519685041
21
-3.5367127952755903
0
LINE
8
Edge.Cuts
6
CONTINUOUS
10
4.3511992519685041
20
-3.5367127952755903
11
4.3524372440944878
21
-3.549282244094488
0
LINE
8
Edge.Cuts
6
CONTINUOUS
10
4.3524372440944878
20
-3.549282244094488
11
4.3524372440944878
21
-3.5619125590551182
0
LINE
8
Edge.Cuts
6
CONTINUOUS
10
4.3524372440944878
20
-3.5619125590551182
11
4.3511992519685041
21
-3.5744820078740158
0
LINE
8
Edge.Cuts
6
CONTINUOUS
10
4.3511992519685041
20
-3.5744820078740158
11
4.3487352362204721
21
-3.5868696062992127
0
LINE
8
Edge.Cuts
6
CONTINUOUS
10
4.3487352362204721
20
-3.5868696062992127
11
4.3450688582677168
21
-3.598956062992126
0
LINE
8
Edge.Cuts
6
CONTINUOUS
10
4.3450688582677168
20
-3.598956062992126
11
4.3402354330708661
21
-3.6106249212598422
0
LINE
8
Edge.Cuts
6
CONTINUOUS
10
4.3402354330708661
20
-3.6106249212598422
11
4.3342815748031498
21
-3.6217638582677165
0
LINE
8
Edge.Cuts
6
CONTINUOUS
10
4.3342815748031498
20
-3.6217638582677165
11
4.3272645669291334
21
-3.6322655511811024
0
LINE
8
Edge.Cuts
6
CONTINUOUS
10
4.3272645669291334
20
-3.6322655511811024
11
4.319251968503937
21
-3.642028897637795
0
LINE
8
Edge.Cuts
6
CONTINUOUS
10
4.319251968503937
20
-3.642028897637795
11
4.3103210236220475
21
-3.650959842519685
0
LINE
8
Edge.Cuts
6
CONTINUOUS
10
4.3103210236220475
20
-3.650959842519685
11
4.3005576771653544
21
-3.6589724409448818
0
LINE
8
Edge.Cuts
6
CONTINUOUS
10
4.3005576771653544
20
-3.6589724409448818
11
4.2900559842519685
21
-3.6659894488188978
0
LINE
8
Edge.Cuts
6
CONTINUOUS
10
4.2900559842519685
20
-3.6659894488188978
11
4.2789170472440947
21
-3.6719433070866141
0
LINE
8
Edge.Cuts
6
CONTINUOUS
10
4.2789170472440947
20
-3.6719433070866141
11
4.267248188976378
21
-3.6767767322834644
0
LINE
8
Edge.Cuts
6
CONTINUOUS
10
4.267248188976378
20
-3.6767767322834644
11
4.2551617322834643
21
-3.6804431102362205
0
LINE
8
Edge.Cuts
6
CONTINUOUS
10
4.2551617322834643
20
-3.6804431102362205
11
4.2427741338582674
21
-3.6829071259842521
0
LINE
8
Edge.Cuts
6
CONTINUOUS
10
4.2427741338582674
20
-3.6829071259842521
11
4.2302046850393697
21
-3.6841451181102363
0
LINE
8
Edge.Cuts
6
CONTINUOUS
10
4.2302046850393697
20
-3.6841451181102363
11
4.21757437007874
21
-3.6841451181102363
0
LINE
8
Edge.Cuts
6
CONTINUOUS
10
4.21757437007874
20
-3.6841451181102363
11
4.2050049212598424
21
-3.6829071259842521
0
LINE
8
Edge.Cuts
6
CONTINUOUS
10
4.2050049212598424
20
-3.6829071259842521
11
4.1926173228346455
21
-3.6804431102362205
0
LINE
8
Edge.Cuts
6
CONTINUOUS
10
4.1926173228346455
20
-3.6804431102362205
11
4.1805308661417317
21
-3.6767767322834644
0
LINE
8
Edge.Cuts
6
CONTINUOUS
10
4.1805308661417317
20
-3.6767767322834644
11
4.168862007874016
21
-3.6719433070866141
0
LINE
8
Edge.Cuts
6
CONTINUOUS
10
4.168862007874016
20
-3.6719433070866141
11
4.1577230708661412
21
-3.6659894488188978
0
LINE
8
Edge.Cuts
6
CONTINUOUS
10
4.1577230708661412
20
-3.6659894488188978
11
4.1472213779527562
21
-3.6589724409448818
0
LINE
8
Edge.Cuts
6
CONTINUOUS
10
4.1472213779527562
20
-3.6589724409448818
11
4.1374580314960632
21
-3.650959842519685
0
LINE
8
Edge.Cuts
6
CONTINUOUS
10
4.1374580314960632
20
-3.650959842519685
11
4.1285270866141728
21
-3.642028897637795
0
LINE
8
Edge.Cuts
6
CONTINUOUS
10
4.1285270866141728
20
-3.642028897637795
11
4.1205144881889764
21
-3.6322655511811024
0
LINE
8
Edge.Cuts
6
CONTINUOUS
10
4.1205144881889764
20
-3.6322655511811024
11
4.1134974803149609
21
-3.6217638582677165
0
LINE
8
Edge.Cuts
6
CONTINUOUS
10
4.1134974803149609
20
-3.6217638582677165
11
4.1075436220472437
21
-3.6106249212598422
0
LINE
8
Edge.Cuts
6
CONTINUOUS
10
4.1075436220472437
20
-3.6106249212598422
11
4.1027101968503938
21
-3.598956062992126
0
LINE
8
Edge.Cuts
6
CONTINUOUS
10
4.1027101968503938
20
-3.598956062992126
11
4.0990438188976377
21
-3.5868696062992127
0
LINE
8
Edge.Cuts
6
CONTINUOUS
10
4.0990438188976377
20
-3.5868696062992127
11
4.0965798031496066
21
-3.5744820078740158
0
LINE
8
Edge.Cuts
6
CONTINUOUS
10
4.0965798031496066
20
-3.5744820078740158
11
4.0953418110236219
21
-3.5619125590551182
0
LINE
8
Edge.Cuts
6
CONTINUOUS
10
4.0953418110236219
20
-3.5619125590551182
11
4.0953418110236219
21
-3.549282244094488
0
LINE
8
Edge.Cuts
6
CONTINUOUS
10
4.0953418110236219
20
-3.549282244094488
11
4.0954233858267717
21
-3.5484538582677163
0
LINE
8
Edge.Cuts
6
CONTINUOUS
10
4.0954233858267717
20
-3.5484538582677163
11
4.0965798031496066
21
-3.5367127952755903
0
LINE
8
Edge.Cuts
6
CONTINUOUS
10
4.0965798031496066
20
-3.5367127952755903
11
4.0990438188976377
21
-3.5243251968503935
0
LINE
8
Edge.Cuts
6
CONTINUOUS
10
4.0990438188976377
20
-3.5243251968503935
11
4.1027101968503938
21
-3.5122387401574802
0
LINE
8
Edge.Cuts
6
CONTINUOUS
10
4.1027101968503938
20
-3.5122387401574802
11
4.1075436220472437
21
-3.5005698818897635
0
LINE
8
Edge.Cuts
6
CONTINUOUS
10
4.1075436220472437
20
-3.5005698818897635
11
4.1134974803149609
21
-3.4894309448818897
0
LINE
8
Edge.Cuts
6
CONTINUOUS
10
4.1134974803149609
20
-3.4894309448818897
11
4.1205144881889764
21
-3.4789292519685038
0
LINE
8
Edge.Cuts
6
CONTINUOUS
10
4.1205144881889764
20
-3.4789292519685038
11
4.1285270866141728
21
-3.4691659055118111
0
LINE
8
Edge.Cuts
6
CONTINUOUS
10
4.1285270866141728
20
-3.4691659055118111
11
4.1374580314960632
21
-3.4602349606299212
0
LINE
8
Edge.Cuts
6
CONTINUOUS
10
4.1374580314960632
20
-3.4602349606299212
11
4.1472213779527562
21
-3.4522223622047243
0
LINE
8
Edge.Cuts
6
CONTINUOUS
10
4.1472213779527562
20
-3.4522223622047243
11
4.1577230708661412
21
-3.4452053543307084
0
LINE
8
Edge.Cuts
6
CONTINUOUS
10
4.1577230708661412
20
-3.4452053543307084
11
4.168862007874016
21
-3.4392514960629921
0
LINE
8
Edge.Cuts
6
CONTINUOUS
10
4.168862007874016
20
-3.4392514960629921
11
4.1805308661417317
21
-3.4344180708661418
0
LINE
8
Edge.Cuts
6
CONTINUOUS
10
4.1805308661417317
20
-3.4344180708661418
11
4.1926173228346455
21
-3.4307516929133857
0
LINE
8
Edge.Cuts
6
CONTINUOUS
10
4.1926173228346455
20
-3.4307516929133857
11
4.2050049212598424
21
-3.4282876771653541
0
LINE
8
Edge.Cuts
6
CONTINUOUS
10
4.2050049212598424
20
-3.4282876771653541
11
4.21757437007874
21
-3.4270496850393699
0
LINE
8
Edge.Cuts
6
CONTINUOUS
10
4.21757437007874
20
-3.4270496850393699
11
4.2302046850393697
21
-3.4270496850393699
0
LINE
8
Edge.Cuts
6
CONTINUOUS
10
4.2302046850393697
20
-3.4270496850393699
11
4.2427741338582674
21
-3.4282876771653541
0
LINE
8
Edge.Cuts
6
CONTINUOUS
10
4.0966867716535429
20
-3.5627409448818899
11
4.0982864173228348
21
-3.5769382283464566
0
LINE
8
Edge.Cuts
6
CONTINUOUS
10
4.0982864173228348
20
-3.5769382283464566
11
4.1014655905511814
21
-3.5908671259842517
0
LINE
8
Edge.Cuts
6
CONTINUOUS
10
4.1014655905511814
20
-3.5908671259842517
11
4.1061843307086612
21
-3.6043524803149607
0
LINE
8
Edge.Cuts
6
CONTINUOUS
10
4.1061843307086612
20
-3.6043524803149607
11
4.1123832677165355
21
-3.6172247244094486
0
LINE
8
Edge.Cuts
6
CONTINUOUS
10
4.1123832677165355
20
-3.6172247244094486
11
4.119984488188976
21
-3.6293219685039371
0
LINE
8
Edge.Cuts
6
CONTINUOUS
10
4.119984488188976
20
-3.6293219685039371
11
4.1288923228346457
21
-3.6404920866141732
0
LINE
8
Edge.Cuts
6
CONTINUOUS
10
4.1288923228346457
20
-3.6404920866141732
11
4.1389948425196845
21
-3.6505946062992125
0
LINE
8
Edge.Cuts
6
CONTINUOUS
10
4.1389948425196845
20
-3.6505946062992125
11
4.1501649606299216
21
-3.6595024409448818
0
LINE
8
Edge.Cuts
6
CONTINUOUS
10
4.1501649606299216
20
-3.6595024409448818
11
4.1622622047244091
21
-3.6671036614173227
0
LINE
8
Edge.Cuts
6
CONTINUOUS
10
4.1622622047244091
20
-3.6671036614173227
11
4.1751344488188975
21
-3.6733025984251966
0
LINE
8
Edge.Cuts
6
CONTINUOUS
10
4.1751344488188975
20
-3.6733025984251966
11
4.1886198031496065
21
-3.6780213385826772
0
LINE
8
Edge.Cuts
6
CONTINUOUS
10
4.1886198031496065
20
-3.6780213385826772
11
4.2025487007874016
21
-3.6812005118110234
0
LINE
8
Edge.Cuts
6
CONTINUOUS
10
4.2025487007874016
20
-3.6812005118110234
11
4.2167459842519683
21
-3.6828001574803149
0
LINE
8
Edge.Cuts
6
CONTINUOUS
10
4.2167459842519683
20
-3.6828001574803149
11
4.2310330708661414
21
-3.6828001574803149
0
LINE
8
Edge.Cuts
6
CONTINUOUS
10
4.2310330708661414
20
-3.6828001574803149
11
4.2452303543307082
21
-3.6812005118110234
0
LINE
8
Edge.Cuts
6
CONTINUOUS
10
4.2452303543307082
20
-3.6812005118110234
11
4.2591592519685042
21
-3.6780213385826772
0
LINE
8
Edge.Cuts
6
CONTINUOUS
10
4.2591592519685042
20
-3.6780213385826772
11
4.2726446062992123
21
-3.6733025984251966
0
LINE
8
Edge.Cuts
6
CONTINUOUS
10
4.2726446062992123
20
-3.6733025984251966
11
4.2855168503937007
21
-3.6671036614173227
0
LINE
8
Edge.Cuts
6
CONTINUOUS
10
4.2855168503937007
20
-3.6671036614173227
11
4.2976140944881891
21
-3.6595024409448818
0
LINE
8
Edge.Cuts
6
CONTINUOUS
10
4.2976140944881891
20
-3.6595024409448818
11
4.3087842125984253
21
-3.6505946062992125
0
LINE
8
Edge.Cuts
6
CONTINUOUS
10
4.3087842125984253
20
-3.6505946062992125
11
4.3188867322834641
21
-3.6404920866141732
0
LINE
8
Edge.Cuts
6
CONTINUOUS
10
4.3188867322834641
20
-3.6404920866141732
11
4.3277945669291338
21
-3.6293219685039371
0
LINE
8
Edge.Cuts
6
CONTINUOUS
10
4.3277945669291338
20
-3.6293219685039371
11
4.3353957874015743
21
-3.6172247244094486
0
LINE
8
Edge.Cuts
6
CONTINUOUS
10
4.3353957874015743
20
-3.6172247244094486
11
4.3415947244094486
21
-3.6043524803149607
0
LINE
8
Edge.Cuts
6
CONTINUOUS
10
4.3415947244094486
20
-3.6043524803149607
11
4.3463134645669292
21
-3.5908671259842517
0
LINE
8
Edge.Cuts
6
CONTINUOUS
10
4.3463134645669292
20
-3.5908671259842517
11
4.3494926377952758
21
-3.5769382283464566
0
LINE
8
Edge.Cuts
6
CONTINUOUS
10
4.3494926377952758
20
-3.5769382283464566
11
4.3510922834645669
21
-3.5627409448818899
0
LINE
8
Edge.Cuts
6
CONTINUOUS
10
4.3510922834645669
20
-3.5627409448818899
11
4.3510922834645669
21
-3.5484538582677163
0
LINE
8
Edge.Cuts
6
CONTINUOUS
10
4.3510922834645669
20
-3.5484538582677163
11
4.3494926377952758
21
-3.5342565748031496
0
LINE
8
Edge.Cuts
6
CONTINUOUS
10
4.3494926377952758
20
-3.5342565748031496
11
4.3463134645669292
21
-3.5203276771653544
0
LINE
8
Edge.Cuts
6
CONTINUOUS
10
4.3463134645669292
20
-3.5203276771653544
11
4.3415947244094486
21
-3.5068423228346455
0
LINE
8
Edge.Cuts
6
CONTINUOUS
10
4.3415947244094486
20
-3.5068423228346455
11
4.3353957874015743
21
-3.4939700787401575
0
LINE
8
Edge.Cuts
6
CONTINUOUS
10
4.3353957874015743
20
-3.4939700787401575
11
4.3277945669291338
21
-3.4818728346456691
0
LINE
8
Edge.Cuts
6
CONTINUOUS
10
4.3277945669291338
20
-3.4818728346456691
11
4.3188867322834641
21
-3.4707027165354329
0
LINE
8
Edge.Cuts
6
CONTINUOUS
10
4.3188867322834641
20
-3.4707027165354329
11
4.3087842125984253
21
-3.4606001968503937
0
LINE
8
Edge.Cuts
6
CONTINUOUS
10
4.3087842125984253
20
-3.4606001968503937
11
4.2976140944881891
21
-3.4516923622047244
0
LINE
8
Edge.Cuts
6
CONTINUOUS
10
4.2976140944881891
20
-3.4516923622047244
11
4.2855168503937007
21
-3.4440911417322835
0
LINE
8
Edge.Cuts
6
CONTINUOUS
10
4.2855168503937007
20
-3.4440911417322835
11
4.2726446062992123
21
-3.4378922047244092
0
LINE
8
Edge.Cuts
6
CONTINUOUS
10
4.2726446062992123
20
-3.4378922047244092
11
4.2591592519685042
21
-3.433173464566929
0
LINE
8
Edge.Cuts
6
CONTINUOUS
10
4.2591592519685042
20
-3.433173464566929
11
4.2452303543307082
21
-3.4299942913385828
0
LINE
8
Edge.Cuts
6
CONTINUOUS
10
4.2452303543307082
20
-3.4299942913385828
11
4.2310330708661414
21
-3.4283946456692913
0
LINE
8
Edge.Cuts
6
CONTINUOUS
10
4.2310330708661414
20
-3.4283946456692913
11
4.2167459842519683
21
-3.4283946456692913
0
LINE
8
Edge.Cuts
6
CONTINUOUS
10
4.2167459842519683
20
-3.4283946456692913
11
4.2025487007874016
21
-3.4299942913385828
0
LINE
8
Edge.Cuts
6
CONTINUOUS
10
4.2025487007874016
20
-3.4299942913385828
11
4.1886198031496065
21
-3.433173464566929
0
LINE
8
Edge.Cuts
6
CONTINUOUS
10
4.1886198031496065
20
-3.433173464566929
11
4.1751344488188975
21
-3.4378922047244092
0
LINE
8
Edge.Cuts
6
CONTINUOUS
10
4.1751344488188975
20
-3.4378922047244092
11
4.1622622047244091
21
-3.4440911417322835
0
LINE
8
Edge.Cuts
6
CONTINUOUS
10
4.1622622047244091
20
-3.4440911417322835
11
4.1501649606299216
21
-3.4516923622047244
0
LINE
8
Edge.Cuts
6
CONTINUOUS
10
4.1501649606299216
20
-3.4516923622047244
11
4.1389948425196845
21
-3.4606001968503937
0
LINE
8
Edge.Cuts
6
CONTINUOUS
10
4.1389948425196845
20
-3.4606001968503937
11
4.1288923228346457
21
-3.4707027165354329
0
LINE
8
Edge.Cuts
6
CONTINUOUS
10
4.1288923228346457
20
-3.4707027165354329
11
4.119984488188976
21
-3.4818728346456691
0
LINE
8
Edge.Cuts
6
CONTINUOUS
10
4.119984488188976
20
-3.4818728346456691
11
4.1123832677165355
21
-3.4939700787401575
0
LINE
8
Edge.Cuts
6
CONTINUOUS
10
4.1123832677165355
20
-3.4939700787401575
11
4.1061843307086612
21
-3.5068423228346455
0
LINE
8
Edge.Cuts
6
CONTINUOUS
10
4.1061843307086612
20
-3.5068423228346455
11
4.1014655905511814
21
-3.5203276771653544
0
LINE
8
Edge.Cuts
6
CONTINUOUS
10
4.1014655905511814
20
-3.5203276771653544
11
4.0982864173228348
21
-3.5342565748031496
0
LINE
8
Edge.Cuts
6
CONTINUOUS
10
4.0982864173228348
20
-3.5342565748031496
11
4.0966867716535429
21
-3.5484538582677163
0
LINE
8
Edge.Cuts
6
CONTINUOUS
10
4.0966867716535429
20
-3.5484538582677163
11
4.0966867716535429
21
-3.5627409448818899
0
LINE
8
Edge.Cuts
6
CONTINUOUS
10
3.7975309448818897
20
-1.9234163779527558
11
3.7979368503937008
21
-1.9238222834645669
0
LINE
8
Edge.Cuts
6
CONTINUOUS
10
3.7979368503937008
20
-1.9238222834645669
11
3.7979939370078739
21
-1.9241092913385827
0
LINE
8
Edge.Cuts
6
CONTINUOUS
10
3.7979939370078739
20
-1.9241092913385827
11
3.7979939370078739
21
-2.7508809448818896
0
LINE
8
Edge.Cuts
6
CONTINUOUS
10
3.7979939370078739
20
-2.7508809448818896
11
3.7979368503937008
21
-2.7511679527559054
0
LINE
8
Edge.Cuts
6
CONTINUOUS
10
3.7979368503937008
20
-2.7511679527559054
11
3.7975309448818897
21
-2.7515738582677165
0
LINE
8
Edge.Cuts
6
CONTINUOUS
10
3.7975309448818897
20
-2.7515738582677165
11
3.7972439370078739
21
-2.7516309448818896
0
LINE
8
Edge.Cuts
6
CONTINUOUS
10
3.7972439370078739
20
-2.7516309448818896
11
3.6791337007874017
21
-2.7516309448818896
0
LINE
8
Edge.Cuts
6
CONTINUOUS
10
3.6791337007874017
20
-2.7516309448818896
11
3.6788466929133858
21
-2.7515738582677165
0
LINE
8
Edge.Cuts
6
CONTINUOUS
10
3.6788466929133858
20
-2.7515738582677165
11
3.6784407874015748
21
-2.7511679527559054
0
LINE
8
Edge.Cuts
6
CONTINUOUS
10
3.6784407874015748
20
-2.7511679527559054
11
3.6783837007874016
21
-2.7508809448818896
0
LINE
8
Edge.Cuts
6
CONTINUOUS
10
3.6783837007874016
20
-2.7508809448818896
11
3.6783837007874016
21
-1.9241092913385827
0
LINE
8
Edge.Cuts
6
CONTINUOUS
10
3.6783837007874016
20
-1.9241092913385827
11
3.6784407874015748
21
-1.9238222834645669
0
LINE
8
Edge.Cuts
6
CONTINUOUS
10
3.6784407874015748
20
-1.9238222834645669
11
3.6788466929133858
21
-1.9234163779527558
0
LINE
8
Edge.Cuts
6
CONTINUOUS
10
3.6788466929133858
20
-1.9234163779527558
11
3.6791337007874017
21
-1.9233592913385826
0
LINE
8
Edge.Cuts
6
CONTINUOUS
10
3.6791337007874017
20
-1.9233592913385826
11
3.7972439370078739
21
-1.9233592913385826
0
LINE
8
Edge.Cuts
6
CONTINUOUS
10
3.7972439370078739
20
-1.9233592913385826
11
3.7975309448818897
21
-1.9234163779527558
0
LINE
8
Edge.Cuts
6
CONTINUOUS
10
3.6798837007874017
20
-1.9248592913385827
11
3.6798837007874017
21
-2.7501309448818896
0
LINE
8
Edge.Cuts
6
CONTINUOUS
10
3.6798837007874017
20
-2.7501309448818896
11
3.7964939370078739
21
-2.7501309448818896
0
LINE
8
Edge.Cuts
6
CONTINUOUS
10
3.7964939370078739
20
-2.7501309448818896
11
3.7964939370078739
21
-1.9248592913385827
0
LINE
8
Edge.Cuts
6
CONTINUOUS
10
3.7964939370078739
20
-1.9248592913385827
11
3.6798837007874017
21
-1.9248592913385827
0
LINE
8
Edge.Cuts
6
CONTINUOUS
10
5.4225114173228341
20
-1.9234163779527558
11
5.4229173228346452
21
-1.9238222834645669
0
LINE
8
Edge.Cuts
6
CONTINUOUS
10
5.4229173228346452
20
-1.9238222834645669
11
5.4229744094488188
21
-1.9241092913385827
0
LINE
8
Edge.Cuts
6
CONTINUOUS
10
5.4229744094488188
20
-1.9241092913385827
11
5.4229744094488188
21
-2.7508809448818896
0
LINE
8
Edge.Cuts
6
CONTINUOUS
10
5.4229744094488188
20
-2.7508809448818896
11
5.4229173228346452
21
-2.7511679527559054
0
LINE
8
Edge.Cuts
6
CONTINUOUS
10
5.4229173228346452
20
-2.7511679527559054
11
5.4225114173228341
21
-2.7515738582677165
0
LINE
8
Edge.Cuts
6
CONTINUOUS
10
5.4225114173228341
20
-2.7515738582677165
11
5.4222244094488188
21
-2.7516309448818896
0
LINE
8
Edge.Cuts
6
CONTINUOUS
10
5.4222244094488188
20
-2.7516309448818896
11
5.3041141732283466
21
-2.7516309448818896
0
LINE
8
Edge.Cuts
6
CONTINUOUS
10
5.3041141732283466
20
-2.7516309448818896
11
5.3038271653543303
21
-2.7515738582677165
0
LINE
8
Edge.Cuts
6
CONTINUOUS
10
5.3038271653543303
20
-2.7515738582677165
11
5.3034212598425192
21
-2.7511679527559054
0
LINE
8
Edge.Cuts
6
CONTINUOUS
10
5.3034212598425192
20
-2.7511679527559054
11
5.3033641732283465
21
-2.7508809448818896
0
LINE
8
Edge.Cuts
6
CONTINUOUS
10
5.3033641732283465
20
-2.7508809448818896
11
5.3033641732283465
21
-1.9241092913385827
0
LINE
8
Edge.Cuts
6
CONTINUOUS
10
5.3033641732283465
20
-1.9241092913385827
11
5.3034212598425192
21
-1.9238222834645669
0
LINE
8
Edge.Cuts
6
CONTINUOUS
10
5.3034212598425192
20
-1.9238222834645669
11
5.3038271653543303
21
-1.9234163779527558
0
LINE
8
Edge.Cuts
6
CONTINUOUS
10
5.3038271653543303
20
-1.9234163779527558
11
5.3041141732283466
21
-1.9233592913385826
0
LINE
8
Edge.Cuts
6
CONTINUOUS
10
5.3041141732283466
20
-1.9233592913385826
11
5.4222244094488188
21
-1.9233592913385826
0
LINE
8
Edge.Cuts
6
CONTINUOUS
10
5.4222244094488188
20
-1.9233592913385826
11
5.4225114173228341
21
-1.9234163779527558
0
LINE
8
Edge.Cuts
6
CONTINUOUS
10
5.3048641732283466
20
-1.9248592913385827
11
5.3048641732283466
21
-2.7501309448818896
0
LINE
8
Edge.Cuts
6
CONTINUOUS
10
5.3048641732283466
20
-2.7501309448818896
11
5.4214744094488188
21
-2.7501309448818896
0
LINE
8
Edge.Cuts
6
CONTINUOUS
10
5.4214744094488188
20
-2.7501309448818896
11
5.4214744094488188
21
-1.9248592913385827
0
LINE
8
Edge.Cuts
6
CONTINUOUS
10
5.4214744094488188
20
-1.9248592913385827
11
5.3048641732283466
21
-1.9248592913385827
0
LINE
8
Edge.Cuts
6
CONTINUOUS
10
4.069650196850394
20
-1.8793472834645668
11
4.0785753937007874
21
-1.8822472834645669
0
LINE
8
Edge.Cuts
6
CONTINUOUS
10
4.0785753937007874
20
-1.8822472834645669
11
4.0869370472440947
21
-1.8865077559055117
0
LINE
8
Edge.Cuts
6
CONTINUOUS
10
4.0869370472440947
20
-1.8865077559055117
11
4.0945292913385822
21
-1.8920238188976377
0
LINE
8
Edge.Cuts
6
CONTINUOUS
10
4.0945292913385822
20
-1.8920238188976377
11
4.101165157480315
21
-1.89865968503937
0
LINE
8
Edge.Cuts
6
CONTINUOUS
10
4.101165157480315
20
-1.89865968503937
11
4.1066812204724412
21
-1.9062519291338582
0
LINE
8
Edge.Cuts
6
CONTINUOUS
10
4.1066812204724412
20
-1.9062519291338582
11
4.1109416929133857
21
-1.9146135826771653
0
LINE
8
Edge.Cuts
6
CONTINUOUS
10
4.1109416929133857
20
-1.9146135826771653
11
4.1138416929133861
21
-1.9235387795275589
0
LINE
8
Edge.Cuts
6
CONTINUOUS
10
4.1138416929133861
20
-1.9235387795275589
11
4.1153097244094488
21
-1.9328077559055117
0
LINE
8
Edge.Cuts
6
CONTINUOUS
10
4.1153097244094488
20
-1.9328077559055117
11
4.1153097244094488
21
-1.9421922440944881
0
LINE
8
Edge.Cuts
6
CONTINUOUS
10
4.1153097244094488
20
-1.9421922440944881
11
4.1138416929133861
21
-1.9514612204724409
0
LINE
8
Edge.Cuts
6
CONTINUOUS
10
4.1138416929133861
20
-1.9514612204724409
11
4.1109416929133857
21
-1.9603864173228347
0
LINE
8
Edge.Cuts
6
CONTINUOUS
10
4.1109416929133857
20
-1.9603864173228347
11
4.1066812204724412
21
-1.9687480708661418
0
LINE
8
Edge.Cuts
6
CONTINUOUS
10
4.1066812204724412
20
-1.9687480708661418
11
4.101165157480315
21
-1.9763403149606298
0
LINE
8
Edge.Cuts
6
CONTINUOUS
10
4.101165157480315
20
-1.9763403149606298
11
4.0945292913385822
21
-1.9829761811023621
0
LINE
8
Edge.Cuts
6
CONTINUOUS
10
4.0945292913385822
20
-1.9829761811023621
11
4.0869370472440947
21
-1.9884922440944881
0
LINE
8
Edge.Cuts
6
CONTINUOUS
10
4.0869370472440947
20
-1.9884922440944881
11
4.0785753937007874
21
-1.9927527165354331
0
LINE
8
Edge.Cuts
6
CONTINUOUS
10
4.0785753937007874
20
-1.9927527165354331
11
4.069650196850394
21
-1.995652716535433
0
LINE
8
Edge.Cuts
6
CONTINUOUS
10
4.069650196850394
20
-1.995652716535433
11
4.0603812204724408
21
-1.9971207480314961
0
LINE
8
Edge.Cuts
6
CONTINUOUS
10
4.0603812204724408
20
-1.9971207480314961
11
4.0509967322834646
21
-1.9971207480314961
0
LINE
8
Edge.Cuts
6
CONTINUOUS
10
4.0509967322834646
20
-1.9971207480314961
11
4.0417277559055114
21
-1.995652716535433
0
LINE
8
Edge.Cuts
6
CONTINUOUS
10
4.0417277559055114
20
-1.995652716535433
11
4.032802559055118
21
-1.9927527165354331
0
LINE
8
Edge.Cuts
6
CONTINUOUS
10
4.032802559055118
20
-1.9927527165354331
11
4.0244409055118107
21
-1.9884922440944881
0
LINE
8
Edge.Cuts
6
CONTINUOUS
10
4.0244409055118107
20
-1.9884922440944881
11
4.0168486614173231
21
-1.9829761811023621
0
LINE
8
Edge.Cuts
6
CONTINUOUS
10
4.0168486614173231
20
-1.9829761811023621
11
4.0102127952755904
21
-1.9763403149606298
0
LINE
8
Edge.Cuts
6
CONTINUOUS
10
4.0102127952755904
20
-1.9763403149606298
11
4.0046967322834641
21
-1.9687480708661418
0
LINE
8
Edge.Cuts
6
CONTINUOUS
10
4.0046967322834641
20
-1.9687480708661418
11
4.0004362598425196
21
-1.9603864173228347
0
LINE
8
Edge.Cuts
6
CONTINUOUS
10
4.0004362598425196
20
-1.9603864173228347
11
3.9975362598425197
21
-1.9514612204724409
0
LINE
8
Edge.Cuts
6
CONTINUOUS
10
3.9975362598425197
20
-1.9514612204724409
11
3.9960682283464566
21
-1.9421922440944881
0
LINE
8
Edge.Cuts
6
CONTINUOUS
10
3.9960682283464566
20
-1.9421922440944881
11
3.9960682283464566
21
-1.9329112992125983
0
LINE
8
Edge.Cuts
6
CONTINUOUS
10
3.9960682283464566
20
-1.9329112992125983
11
3.9960682283464566
21
-1.9328077559055117
0
LINE
8
Edge.Cuts
6
CONTINUOUS
10
3.9960682283464566
20
-1.9328077559055117
11
3.9975362598425197
21
-1.9235387795275589
0
LINE
8
Edge.Cuts
6
CONTINUOUS
10
3.9975362598425197
20
-1.9235387795275589
11
4.0004362598425196
21
-1.9146135826771653
0
LINE
8
Edge.Cuts
6
CONTINUOUS
10
4.0004362598425196
20
-1.9146135826771653
11
4.0046967322834641
21
-1.9062519291338582
0
LINE
8
Edge.Cuts
6
CONTINUOUS
10
4.0046967322834641
20
-1.9062519291338582
11
4.0102127952755904
21
-1.89865968503937
0
LINE
8
Edge.Cuts
6
CONTINUOUS
10
4.0102127952755904
20
-1.89865968503937
11
4.0168486614173231
21
-1.8920238188976377
0
LINE
8
Edge.Cuts
6
CONTINUOUS
10
4.0168486614173231
20
-1.8920238188976377
11
4.0244409055118107
21
-1.8865077559055117
0
LINE
8
Edge.Cuts
6
CONTINUOUS
10
4.0244409055118107
20
-1.8865077559055117
11
4.032802559055118
21
-1.8822472834645669
0
LINE
8
Edge.Cuts
6
CONTINUOUS
10
4.032802559055118
20
-1.8822472834645669
11
4.0417277559055114
21
-1.8793472834645668
0
LINE
8
Edge.Cuts
6
CONTINUOUS
10
4.0417277559055114
20
-1.8793472834645668
11
4.0509967322834646
21
-1.8778792519685039
0
LINE
8
Edge.Cuts
6
CONTINUOUS
10
4.0509967322834646
20
-1.8778792519685039
11
4.0603812204724408
21
-1.8778792519685039
0
LINE
8
Edge.Cuts
6
CONTINUOUS
10
4.0603812204724408
20
-1.8778792519685039
11
4.069650196850394
21
-1.8793472834645668
0
LINE
8
Edge.Cuts
6
CONTINUOUS
10
3.9973838582677166
20
-1.9420887007874015
11
3.9988195275590552
21
-1.9511531496062993
0
LINE
8
Edge.Cuts
6
CONTINUOUS
10
3.9988195275590552
20
-1.9511531496062993
11
4.0016555118110233
21
-1.959881377952756
0
LINE
8
Edge.Cuts
6
CONTINUOUS
10
4.0016555118110233
20
-1.959881377952756
11
4.0058219685039367
21
-1.9680585433070865
0
LINE
8
Edge.Cuts
6
CONTINUOUS
10
4.0058219685039367
20
-1.9680585433070865
11
4.0112163385826767
21
-1.9754832283464567
0
LINE
8
Edge.Cuts
6
CONTINUOUS
10
4.0112163385826767
20
-1.9754832283464567
11
4.0177057480314957
21
-1.9819726377952755
0
LINE
8
Edge.Cuts
6
CONTINUOUS
10
4.0177057480314957
20
-1.9819726377952755
11
4.0251304330708662
21
-1.9873670078740158
0
LINE
8
Edge.Cuts
6
CONTINUOUS
10
4.0251304330708662
20
-1.9873670078740158
11
4.0333075984251971
21
-1.9915334645669291
0
LINE
8
Edge.Cuts
6
CONTINUOUS
10
4.0333075984251971
20
-1.9915334645669291
11
4.0420358267716532
21
-1.9943694488188977
0
LINE
8
Edge.Cuts
6
CONTINUOUS
10
4.0420358267716532
20
-1.9943694488188977
11
4.0511002755905512
21
-1.9958051181102361
0
LINE
8
Edge.Cuts
6
CONTINUOUS
10
4.0511002755905512
20
-1.9958051181102361
11
4.0602776771653541
21
-1.9958051181102361
0
LINE
8
Edge.Cuts
6
CONTINUOUS
10
4.0602776771653541
20
-1.9958051181102361
11
4.0693421259842522
21
-1.9943694488188977
0
LINE
8
Edge.Cuts
6
CONTINUOUS
10
4.0693421259842522
20
-1.9943694488188977
11
4.0780703543307082
21
-1.9915334645669291
0
LINE
8
Edge.Cuts
6
CONTINUOUS
10
4.0780703543307082
20
-1.9915334645669291
11
4.0862475196850392
21
-1.9873670078740158
0
LINE
8
Edge.Cuts
6
CONTINUOUS
10
4.0862475196850392
20
-1.9873670078740158
11
4.0936722047244096
21
-1.9819726377952755
0
LINE
8
Edge.Cuts
6
CONTINUOUS
10
4.0936722047244096
20
-1.9819726377952755
11
4.1001616141732287
21
-1.9754832283464567
0
LINE
8
Edge.Cuts
6
CONTINUOUS
10
4.1001616141732287
20
-1.9754832283464567
11
4.1055559842519687
21
-1.9680585433070865
0
LINE
8
Edge.Cuts
6
CONTINUOUS
10
4.1055559842519687
20
-1.9680585433070865
11
4.109722440944882
21
-1.959881377952756
0
LINE
8
Edge.Cuts
6
CONTINUOUS
10
4.109722440944882
20
-1.959881377952756
11
4.1125584251968501
21
-1.9511531496062993
0
LINE
8
Edge.Cuts
6
CONTINUOUS
10
4.1125584251968501
20
-1.9511531496062993
11
4.1139940944881888
21
-1.9420887007874015
0
LINE
8
Edge.Cuts
6
CONTINUOUS
10
4.1139940944881888
20
-1.9420887007874015
11
4.1139940944881888
21
-1.9329112992125983
0
LINE
8
Edge.Cuts
6
CONTINUOUS
10
4.1139940944881888
20
-1.9329112992125983
11
4.1125584251968501
21
-1.9238468503937007
0
LINE
8
Edge.Cuts
6
CONTINUOUS
10
4.1125584251968501
20
-1.9238468503937007
11
4.109722440944882
21
-1.915118622047244
0
LINE
8
Edge.Cuts
6
CONTINUOUS
10
4.109722440944882
20
-1.915118622047244
11
4.1055559842519687
21
-1.9069414566929133
0
LINE
8
Edge.Cuts
6
CONTINUOUS
10
4.1055559842519687
20
-1.9069414566929133
11
4.1001616141732287
21
-1.8995167716535433
0
LINE
8
Edge.Cuts
6
CONTINUOUS
10
4.1001616141732287
20
-1.8995167716535433
11
4.0936722047244096
21
-1.8930273622047245
0
LINE
8
Edge.Cuts
6
CONTINUOUS
10
4.0936722047244096
20
-1.8930273622047245
11
4.0862475196850392
21
-1.8876329921259842
0
LINE
8
Edge.Cuts
6
CONTINUOUS
10
4.0862475196850392
20
-1.8876329921259842
11
4.0780703543307082
21
-1.8834665354330709
0
LINE
8
Edge.Cuts
6
CONTINUOUS
10
4.0780703543307082
20
-1.8834665354330709
11
4.0693421259842522
21
-1.8806305511811023
0
LINE
8
Edge.Cuts
6
CONTINUOUS
10
4.0693421259842522
20
-1.8806305511811023
11
4.0602776771653541
21
-1.8791948818897637
0
LINE
8
Edge.Cuts
6
CONTINUOUS
10
4.0602776771653541
20
-1.8791948818897637
11
4.0511002755905512
21
-1.8791948818897637
0
LINE
8
Edge.Cuts
6
CONTINUOUS
10
4.0511002755905512
20
-1.8791948818897637
11
4.0420358267716532
21
-1.8806305511811023
0
LINE
8
Edge.Cuts
6
CONTINUOUS
10
4.0420358267716532
20
-1.8806305511811023
11
4.0333075984251971
21
-1.8834665354330709
0
LINE
8
Edge.Cuts
6
CONTINUOUS
10
4.0333075984251971
20
-1.8834665354330709
11
4.0251304330708662
21
-1.8876329921259842
0
LINE
8
Edge.Cuts
6
CONTINUOUS
10
4.0251304330708662
20
-1.8876329921259842
11
4.0177057480314957
21
-1.8930273622047245
0
LINE
8
Edge.Cuts
6
CONTINUOUS
10
4.0177057480314957
20
-1.8930273622047245
11
4.0112163385826767
21
-1.8995167716535433
0
LINE
8
Edge.Cuts
6
CONTINUOUS
10
4.0112163385826767
20
-1.8995167716535433
11
4.0058219685039367
21
-1.9069414566929133
0
LINE
8
Edge.Cuts
6
CONTINUOUS
10
4.0058219685039367
20
-1.9069414566929133
11
4.0016555118110233
21
-1.915118622047244
0
LINE
8
Edge.Cuts
6
CONTINUOUS
10
4.0016555118110233
20
-1.915118622047244
11
3.9988195275590552
21
-1.9238468503937007
0
LINE
8
Edge.Cuts
6
CONTINUOUS
10
3.9988195275590552
20
-1.9238468503937007
11
3.9973838582677166
21
-1.9329112992125983
0
LINE
8
Edge.Cuts
6
CONTINUOUS
10
3.9973838582677166
20
-1.9329112992125983
11
3.9973838582677166
21
-1.9420887007874015
0
LINE
8
Edge.Cuts
6
CONTINUOUS
10
5.0646501968503932
20
-1.8793472834645668
11
5.0735753937007875
21
-1.8822472834645669
0
LINE
8
Edge.Cuts
6
CONTINUOUS
10
5.0735753937007875
20
-1.8822472834645669
11
5.0819370472440948
21
-1.8865077559055117
0
LINE
8
Edge.Cuts
6
CONTINUOUS
10
5.0819370472440948
20
-1.8865077559055117
11
5.0895292913385823
21
-1.8920238188976377
0
LINE
8
Edge.Cuts
6
CONTINUOUS
10
5.0895292913385823
20
-1.8920238188976377
11
5.0961651574803151
21
-1.89865968503937
0
LINE
8
Edge.Cuts
6
CONTINUOUS
10
5.0961651574803151
20
-1.89865968503937
11
5.1016812204724404
21
-1.9062519291338582
0
LINE
8
Edge.Cuts
6
CONTINUOUS
10
5.1016812204724404
20
-1.9062519291338582
11
5.1059416929133858
21
-1.9146135826771653
0
LINE
8
Edge.Cuts
6
CONTINUOUS
10
5.1059416929133858
20
-1.9146135826771653
11
5.1088416929133853
21
-1.9235387795275589
0
LINE
8
Edge.Cuts
6
CONTINUOUS
10
5.1088416929133853
20
-1.9235387795275589
11
5.1103097244094489
21
-1.9328077559055117
0
LINE
8
Edge.Cuts
6
CONTINUOUS
10
5.1103097244094489
20
-1.9328077559055117
11
5.1103097244094489
21
-1.9421922440944881
0
LINE
8
Edge.Cuts
6
CONTINUOUS
10
5.1103097244094489
20
-1.9421922440944881
11
5.1088416929133853
21
-1.9514612204724409
0
LINE
8
Edge.Cuts
6
CONTINUOUS
10
5.1088416929133853
20
-1.9514612204724409
11
5.1059416929133858
21
-1.9603864173228347
0
LINE
8
Edge.Cuts
6
CONTINUOUS
10
5.1059416929133858
20
-1.9603864173228347
11
5.1016812204724404
21
-1.9687480708661418
0
LINE
8
Edge.Cuts
6
CONTINUOUS
10
5.1016812204724404
20
-1.9687480708661418
11
5.0961651574803151
21
-1.9763403149606298
0
LINE
8
Edge.Cuts
6
CONTINUOUS
10
5.0961651574803151
20
-1.9763403149606298
11
5.0895292913385823
21
-1.9829761811023621
0
LINE
8
Edge.Cuts
6
CONTINUOUS
10
5.0895292913385823
20
-1.9829761811023621
11
5.0819370472440948
21
-1.9884922440944881
0
LINE
8
Edge.Cuts
6
CONTINUOUS
10
5.0819370472440948
20
-1.9884922440944881
11
5.0735753937007875
21
-1.9927527165354331
0
LINE
8
Edge.Cuts
6
CONTINUOUS
10
5.0735753937007875
20
-1.9927527165354331
11
5.0646501968503932
21
-1.995652716535433
0
LINE
8
Edge.Cuts
6
CONTINUOUS
10
5.0646501968503932
20
-1.995652716535433
11
5.0553812204724409
21
-1.9971207480314961
0
LINE
8
Edge.Cuts
6
CONTINUOUS
10
5.0553812204724409
20
-1.9971207480314961
11
5.0459967322834647
21
-1.9971207480314961
0
LINE
8
Edge.Cuts
6
CONTINUOUS
10
5.0459967322834647
20
-1.9971207480314961
11
5.0367277559055115
21
-1.995652716535433
0
LINE
8
Edge.Cuts
6
CONTINUOUS
10
5.0367277559055115
20
-1.995652716535433
11
5.0278025590551181
21
-1.9927527165354331
0
LINE
8
Edge.Cuts
6
CONTINUOUS
10
5.0278025590551181
20
-1.9927527165354331
11
5.0194409055118108
21
-1.9884922440944881
0
LINE
8
Edge.Cuts
6
CONTINUOUS
10
5.0194409055118108
20
-1.9884922440944881
11
5.0118486614173223
21
-1.9829761811023621
0
LINE
8
Edge.Cuts
6
CONTINUOUS
10
5.0118486614173223
20
-1.9829761811023621
11
5.0052127952755905
21
-1.9763403149606298
0
LINE
8
Edge.Cuts
6
CONTINUOUS
10
5.0052127952755905
20
-1.9763403149606298
11
4.9996967322834642
21
-1.9687480708661418
0
LINE
8
Edge.Cuts
6
CONTINUOUS
10
4.9996967322834642
20
-1.9687480708661418
11
4.9954362598425197
21
-1.9603864173228347
0
LINE
8
Edge.Cuts
6
CONTINUOUS
10
4.9954362598425197
20
-1.9603864173228347
11
4.9925362598425194
21
-1.9514612204724409
0
LINE
8
Edge.Cuts
6
CONTINUOUS
10
4.9925362598425194
20
-1.9514612204724409
11
4.9910682283464567
21
-1.9421922440944881
0
LINE
8
Edge.Cuts
6
CONTINUOUS
10
4.9910682283464567
20
-1.9421922440944881
11
4.9910682283464567
21
-1.9329112992125983
0
LINE
8
Edge.Cuts
6
CONTINUOUS
10
4.9910682283464567
20
-1.9329112992125983
11
4.9910682283464567
21
-1.9328077559055117
0
LINE
8
Edge.Cuts
6
CONTINUOUS
10
4.9910682283464567
20
-1.9328077559055117
11
4.9925362598425194
21
-1.9235387795275589
0
LINE
8
Edge.Cuts
6
CONTINUOUS
10
4.9925362598425194
20
-1.9235387795275589
11
4.9954362598425197
21
-1.9146135826771653
0
LINE
8
Edge.Cuts
6
CONTINUOUS
10
4.9954362598425197
20
-1.9146135826771653
11
4.9996967322834642
21
-1.9062519291338582
0
LINE
8
Edge.Cuts
6
CONTINUOUS
10
4.9996967322834642
20
-1.9062519291338582
11
5.0052127952755905
21
-1.89865968503937
0
LINE
8
Edge.Cuts
6
CONTINUOUS
10
5.0052127952755905
20
-1.89865968503937
11
5.0118486614173223
21
-1.8920238188976377
0
LINE
8
Edge.Cuts
6
CONTINUOUS
10
5.0118486614173223
20
-1.8920238188976377
11
5.0194409055118108
21
-1.8865077559055117
0
LINE
8
Edge.Cuts
6
CONTINUOUS
10
5.0194409055118108
20
-1.8865077559055117
11
5.0278025590551181
21
-1.8822472834645669
0
LINE
8
Edge.Cuts
6
CONTINUOUS
10
5.0278025590551181
20
-1.8822472834645669
11
5.0367277559055115
21
-1.8793472834645668
0
LINE
8
Edge.Cuts
6
CONTINUOUS
10
5.0367277559055115
20
-1.8793472834645668
11
5.0459967322834647
21
-1.8778792519685039
0
LINE
8
Edge.Cuts
6
CONTINUOUS
10
5.0459967322834647
20
-1.8778792519685039
11
5.0553812204724409
21
-1.8778792519685039
0
LINE
8
Edge.Cuts
6
CONTINUOUS
10
5.0553812204724409
20
-1.8778792519685039
11
5.0646501968503932
21
-1.8793472834645668
0
LINE
8
Edge.Cuts
6
CONTINUOUS
10
4.9923838582677167
20
-1.9420887007874015
11
4.9938195275590553
21
-1.9511531496062993
0
LINE
8
Edge.Cuts
6
CONTINUOUS
10
4.9938195275590553
20
-1.9511531496062993
11
4.9966555118110234
21
-1.959881377952756
0
LINE
8
Edge.Cuts
6
CONTINUOUS
10
4.9966555118110234
20
-1.959881377952756
11
5.0008219685039368
21
-1.9680585433070865
0
LINE
8
Edge.Cuts
6
CONTINUOUS
10
5.0008219685039368
20
-1.9680585433070865
11
5.0062163385826768
21
-1.9754832283464567
0
LINE
8
Edge.Cuts
6
CONTINUOUS
10
5.0062163385826768
20
-1.9754832283464567
11
5.0127057480314958
21
-1.9819726377952755
0
LINE
8
Edge.Cuts
6
CONTINUOUS
10
5.0127057480314958
20
-1.9819726377952755
11
5.0201304330708663
21
-1.9873670078740158
0
LINE
8
Edge.Cuts
6
CONTINUOUS
10
5.0201304330708663
20
-1.9873670078740158
11
5.0283075984251964
21
-1.9915334645669291
0
LINE
8
Edge.Cuts
6
CONTINUOUS
10
5.0283075984251964
20
-1.9915334645669291
11
5.0370358267716533
21
-1.9943694488188977
0
LINE
8
Edge.Cuts
6
CONTINUOUS
10
5.0370358267716533
20
-1.9943694488188977
11
5.0461002755905513
21
-1.9958051181102361
0
LINE
8
Edge.Cuts
6
CONTINUOUS
10
5.0461002755905513
20
-1.9958051181102361
11
5.0552776771653543
21
-1.9958051181102361
0
LINE
8
Edge.Cuts
6
CONTINUOUS
10
5.0552776771653543
20
-1.9958051181102361
11
5.0643421259842523
21
-1.9943694488188977
0
LINE
8
Edge.Cuts
6
CONTINUOUS
10
5.0643421259842523
20
-1.9943694488188977
11
5.0730703543307083
21
-1.9915334645669291
0
LINE
8
Edge.Cuts
6
CONTINUOUS
10
5.0730703543307083
20
-1.9915334645669291
11
5.0812475196850393
21
-1.9873670078740158
0
LINE
8
Edge.Cuts
6
CONTINUOUS
10
5.0812475196850393
20
-1.9873670078740158
11
5.0886722047244097
21
-1.9819726377952755
0
LINE
8
Edge.Cuts
6
CONTINUOUS
10
5.0886722047244097
20
-1.9819726377952755
11
5.0951616141732279
21
-1.9754832283464567
0
LINE
8
Edge.Cuts
6
CONTINUOUS
10
5.0951616141732279
20
-1.9754832283464567
11
5.1005559842519688
21
-1.9680585433070865
0
LINE
8
Edge.Cuts
6
CONTINUOUS
10
5.1005559842519688
20
-1.9680585433070865
11
5.1047224409448821
21
-1.959881377952756
0
LINE
8
Edge.Cuts
6
CONTINUOUS
10
5.1047224409448821
20
-1.959881377952756
11
5.1075584251968502
21
-1.9511531496062993
0
LINE
8
Edge.Cuts
6
CONTINUOUS
10
5.1075584251968502
20
-1.9511531496062993
11
5.1089940944881889
21
-1.9420887007874015
0
LINE
8
Edge.Cuts
6
CONTINUOUS
10
5.1089940944881889
20
-1.9420887007874015
11
5.1089940944881889
21
-1.9329112992125983
0
LINE
8
Edge.Cuts
6
CONTINUOUS
10
5.1089940944881889
20
-1.9329112992125983
11
5.1075584251968502
21
-1.9238468503937007
0
LINE
8
Edge.Cuts
6
CONTINUOUS
10
5.1075584251968502
20
-1.9238468503937007
11
5.1047224409448821
21
-1.915118622047244
0
LINE
8
Edge.Cuts
6
CONTINUOUS
10
5.1047224409448821
20
-1.915118622047244
11
5.1005559842519688
21
-1.9069414566929133
0
LINE
8
Edge.Cuts
6
CONTINUOUS
10
5.1005559842519688
20
-1.9069414566929133
11
5.0951616141732279
21
-1.8995167716535433
0
LINE
8
Edge.Cuts
6
CONTINUOUS
10
5.0951616141732279
20
-1.8995167716535433
11
5.0886722047244097
21
-1.8930273622047245
0
LINE
8
Edge.Cuts
6
CONTINUOUS
10
5.0886722047244097
20
-1.8930273622047245
11
5.0812475196850393
21
-1.8876329921259842
0
LINE
8
Edge.Cuts
6
CONTINUOUS
10
5.0812475196850393
20
-1.8876329921259842
11
5.0730703543307083
21
-1.8834665354330709
0
LINE
8
Edge.Cuts
6
CONTINUOUS
10
5.0730703543307083
20
-1.8834665354330709
11
5.0643421259842523
21
-1.8806305511811023
0
LINE
8
Edge.Cuts
6
CONTINUOUS
10
5.0643421259842523
20
-1.8806305511811023
11
5.0552776771653543
21
-1.8791948818897637
0
LINE
8
Edge.Cuts
6
CONTINUOUS
10
5.0552776771653543
20
-1.8791948818897637
11
5.0461002755905513
21
-1.8791948818897637
0
LINE
8
Edge.Cuts
6
CONTINUOUS
10
5.0461002755905513
20
-1.8791948818897637
11
5.0370358267716533
21
-1.8806305511811023
0
LINE
8
Edge.Cuts
6
CONTINUOUS
10
5.0370358267716533
20
-1.8806305511811023
11
5.0283075984251964
21
-1.8834665354330709
0
LINE
8
Edge.Cuts
6
CONTINUOUS
10
5.0283075984251964
20
-1.8834665354330709
11
5.0201304330708663
21
-1.8876329921259842
0
LINE
8
Edge.Cuts
6
CONTINUOUS
10
5.0201304330708663
20
-1.8876329921259842
11
5.0127057480314958
21
-1.8930273622047245
0
LINE
8
Edge.Cuts
6
CONTINUOUS
10
5.0127057480314958
20
-1.8930273622047245
11
5.0062163385826768
21
-1.8995167716535433
0
LINE
8
Edge.Cuts
6
CONTINUOUS
10
5.0062163385826768
20
-1.8995167716535433
11
5.0008219685039368
21
-1.9069414566929133
0
LINE
8
Edge.Cuts
6
CONTINUOUS
10
5.0008219685039368
20
-1.9069414566929133
11
4.9966555118110234
21
-1.915118622047244
0
LINE
8
Edge.Cuts
6
CONTINUOUS
10
4.9966555118110234
20
-1.915118622047244
11
4.9938195275590553
21
-1.9238468503937007
0
LINE
8
Edge.Cuts
6
CONTINUOUS
10
4.9938195275590553
20
-1.9238468503937007
11
4.9923838582677167
21
-1.9329112992125983
0
LINE
8
Edge.Cuts
6
CONTINUOUS
10
4.9923838582677167
20
-1.9329112992125983
11
4.9923838582677167
21
-1.9420887007874015
0
LINE
8
Edge.Cuts
6
CONTINUOUS
10
5.5352279527559052
20
-1.8029488188976377
11
5.5356338582677163
21
-1.8033547244094488
0
LINE
8
Edge.Cuts
6
CONTINUOUS
10
5.5356338582677163
20
-1.8033547244094488
11
5.5356909448818898
21
-1.8036417322834646
0
LINE
8
Edge.Cuts
6
CONTINUOUS
10
5.5356909448818898
20
-1.8036417322834646
11
5.5356909448818898
21
-5.7800196850393704
0
LINE
8
Edge.Cuts
6
CONTINUOUS
10
5.5356909448818898
20
-5.7800196850393704
11
5.5356338582677163
21
-5.7803066929133857
0
LINE
8
Edge.Cuts
6
CONTINUOUS
10
5.5356338582677163
20
-5.7803066929133857
11
5.5352279527559052
21
-5.7807125984251968
0
LINE
8
Edge.Cuts
6
CONTINUOUS
10
5.5352279527559052
20
-5.7807125984251968
11
5.5349409448818898
21
-5.7807696850393704
0
LINE
8
Edge.Cuts
6
CONTINUOUS
10
5.5349409448818898
20
-5.7807696850393704
11
3.5664370078740157
21
-5.7807696850393704
0
LINE
8
Edge.Cuts
6
CONTINUOUS
10
3.5664370078740157
20
-5.7807696850393704
11
3.5661499999999999
21
-5.7807125984251968
0
LINE
8
Edge.Cuts
6
CONTINUOUS
10
3.5661499999999999
20
-5.7807125984251968
11
3.5657440944881889
21
-5.7803066929133857
0
LINE
8
Edge.Cuts
6
CONTINUOUS
10
3.5657440944881889
20
-5.7803066929133857
11
3.5656870078740157
21
-5.7800196850393704
0
LINE
8
Edge.Cuts
6
CONTINUOUS
10
3.5656870078740157
20
-5.7800196850393704
11
3.5656870078740157
21
-1.8036417322834646
0
LINE
8
Edge.Cuts
6
CONTINUOUS
10
3.5656870078740157
20
-1.8036417322834646
11
3.5657440944881889
21
-1.8033547244094488
0
LINE
8
Edge.Cuts
6
CONTINUOUS
10
3.5657440944881889
20
-1.8033547244094488
11
3.5661499999999999
21
-1.8029488188976377
0
LINE
8
Edge.Cuts
6
CONTINUOUS
10
3.5661499999999999
20
-1.8029488188976377
11
3.5664370078740157
21
-1.8028917322834646
0
LINE
8
Edge.Cuts
6
CONTINUOUS
10
3.5664370078740157
20
-1.8028917322834646
11
5.5349409448818898
21
-1.8028917322834646
0
LINE
8
Edge.Cuts
6
CONTINUOUS
10
5.5349409448818898
20
-1.8028917322834646
11
5.5352279527559052
21
-1.8029488188976377
0
LINE
8
Edge.Cuts
6
CONTINUOUS
10
3.5671870078740158
20
-1.8043917322834646
11
3.5671870078740158
21
-5.7792696850393703
0
LINE
8
Edge.Cuts
6
CONTINUOUS
10
3.5671870078740158
20
-5.7792696850393703
11
5.5341909448818898
21
-5.7792696850393703
0
LINE
8
Edge.Cuts
6
CONTINUOUS
10
5.5341909448818898
20
-5.7792696850393703
11
5.5341909448818898
21
-1.8043917322834646
0
LINE
8
Edge.Cuts
6
CONTINUOUS
10
5.5341909448818898
20
-1.8043917322834646
11
3.5671870078740158
21
-1.8043917322834646
  0
ENDSEC
  0
EOF
